<svg xmlns="http://www.w3.org/2000/svg" width="1354.103" height="228.863" viewBox="0 0 1354.103 228.863">
  <g id="Group_395" data-name="Group 395" transform="translate(-193.897 -4900.504)">
    <g id="Rectangle_226" data-name="Rectangle 226" transform="translate(554.897 4987.709)" fill="#fff" stroke="#121212" stroke-width="1">
      <rect width="139" height="62" rx="15" stroke="none"/>
      <rect x="0.5" y="0.5" width="138" height="61" rx="14.5" fill="none"/>
    </g>
    <g id="Rectangle_233" data-name="Rectangle 233" transform="translate(742 4987.18)" fill="#fff" stroke="#121212" stroke-width="1">
      <rect width="139" height="62" rx="15" stroke="none"/>
      <rect x="0.5" y="0.5" width="138" height="61" rx="14.5" fill="none"/>
    </g>
    <g id="Rectangle_227" data-name="Rectangle 227" transform="translate(929 4987.18)" fill="#fff" stroke="#121212" stroke-width="1">
      <rect width="111" height="62" rx="15" stroke="none"/>
      <rect x="0.5" y="0.5" width="110" height="61" rx="14.5" fill="none"/>
    </g>
    <g id="Rectangle_228" data-name="Rectangle 228" transform="translate(1094 4987.18)" fill="#fff" stroke="#121212" stroke-width="1">
      <rect width="115" height="62" rx="15" stroke="none"/>
      <rect x="0.5" y="0.5" width="114" height="61" rx="14.5" fill="none"/>
    </g>
    <g id="Rectangle_234" data-name="Rectangle 234" transform="translate(1264.759 4987.18)" fill="#fff" stroke="#121212" stroke-width="1">
      <rect width="115" height="62" rx="15" stroke="none"/>
      <rect x="0.5" y="0.5" width="114" height="61" rx="14.5" fill="none"/>
    </g>
    <g id="Rectangle_229" data-name="Rectangle 229" transform="translate(1426 4987.18)" fill="#fff" stroke="#121212" stroke-width="1">
      <rect width="122" height="62" rx="15" stroke="none"/>
      <rect x="0.5" y="0.5" width="121" height="61" rx="14.5" fill="none"/>
    </g>
    <g id="Rectangle_231" data-name="Rectangle 231" transform="translate(385.897 4987.709)" fill="#fff" stroke="#121212" stroke-width="1">
      <rect width="123" height="62" rx="15" stroke="none"/>
      <rect x="0.5" y="0.5" width="122" height="61" rx="14.5" fill="none"/>
    </g>
    <g id="Rectangle_232" data-name="Rectangle 232" transform="translate(193.897 4987.709)" fill="#fff" stroke="#121212" stroke-width="1">
      <rect width="150" height="62" rx="15" stroke="none"/>
      <rect x="0.5" y="0.5" width="149" height="61" rx="14.5" fill="none"/>
    </g>
    <text id="Research_Innsikt" data-name="Research &amp;
Innsikt" transform="translate(447.897 5013.709)" fill="#121212" font-size="14" font-family="Poppins-Medium, Poppins" font-weight="500"><tspan x="-39.445" y="0">Research &amp;</tspan><tspan x="-22.743" y="21">Innsikt</tspan></text>
    <text id="Brainstorming_Temavalg" data-name="Brainstorming &amp;
Temavalg" transform="translate(268.897 5013.709)" fill="#121212" font-size="14" font-family="Poppins-Medium, Poppins" font-weight="500"><tspan x="-56.602" y="0">Brainstorming &amp;</tspan><tspan x="-35.441" y="21">Temavalg</tspan></text>
    <text id="Konseptutvikling" transform="translate(565.897 5023.709)" fill="#121212" font-size="14" font-family="Poppins-Medium, Poppins" font-weight="500"><tspan x="0" y="0">Konseptutvikling</tspan></text>
    <text id="Konseptpitch_for_kunden" data-name="Konseptpitch for
kunden" transform="translate(811.897 5013.18)" fill="#121212" font-size="14" font-family="Poppins-Medium, Poppins" font-weight="500"><tspan x="-58.296" y="0">Konseptpitch for</tspan><tspan x="-26.425" y="21">kunden</tspan></text>
    <text id="Storyboard" transform="translate(944.533 5023.18)" fill="#121212" font-size="14" font-family="Poppins-Medium, Poppins" font-weight="500"><tspan x="0" y="0">Storyboard</tspan></text>
    <text id="Wireframing" transform="translate(1108 5023.18)" fill="#121212" font-size="14" font-family="Poppins-Medium, Poppins" font-weight="500"><tspan x="0" y="0">Wireframing</tspan></text>
    <text id="Prototyping" transform="translate(1277 5023.18)" fill="#121212" font-size="14" font-family="Poppins-Medium, Poppins" font-weight="500"><tspan x="0" y="0">Prototyping</tspan></text>
    <text id="Brukertesting" transform="translate(1431 5008.18)" fill="#121212" font-size="14" font-family="Poppins-Medium, Poppins" font-weight="500"><tspan x="8.544" y="15">Brukertesting</tspan></text>
    <path id="Path_314" data-name="Path 314" d="M3989,5081.313s6.756-71.312,84.5-71.312,84.5,71.312,84.5,71.312" transform="translate(-2670.999 -108.497)" fill="none" stroke="#121212" stroke-width="2" stroke-dasharray="5"/>
    <path id="Path_312" data-name="Path 312" d="M3989,5010s6.822,68.332,85.327,68.332S4159.654,5010,4159.654,5010" transform="translate(-2672.095 50.035)" fill="#fff" stroke="#121212" stroke-width="2" stroke-dasharray="5"/>
    <g id="Group_392" data-name="Group 392">
      <path id="Path_315" data-name="Path 315" d="M3989,5081.313s1.635-71.425,78.29-71.312,78.289,71.312,78.289,71.312" transform="translate(-3334.079 -108.496)" fill="none" stroke="#121212" stroke-width="2" stroke-dasharray="5"/>
      <path id="Path_316" data-name="Path 316" d="M2897.5,4878.367l7.427,7.927,6.846-7.927" transform="translate(-2249.716 86.523)" fill="none" stroke="#18076a" stroke-linecap="round" stroke-width="2"/>
    </g>
    <g id="Group_393" data-name="Group 393">
      <path id="Path_315-2" data-name="Path 315" d="M3989,5081.313s1.635-71.425,78.29-71.312,78.289,71.312,78.289,71.312" transform="translate(-3334.079 -108.496)" fill="none" stroke="#121212" stroke-width="2" stroke-dasharray="5"/>
      <path id="Path_316-2" data-name="Path 316" d="M2897.5,4878.367l7.427,7.927,6.846-7.927" transform="translate(-2249.716 86.523)" fill="none" stroke="#18076a" stroke-linecap="round" stroke-width="2"/>
    </g>
    <g id="Group_394" data-name="Group 394" transform="translate(657.45 5062)">
      <path id="Path_315-3" data-name="Path 315" d="M4312.415,5010s-3.378,66.472-161.708,66.366S3989,5010,3989,5010" transform="translate(-3989 -5010)" fill="none" stroke="#121212" stroke-width="2" stroke-dasharray="5"/>
      <path id="Path_316-3" data-name="Path 316" d="M2911.774,4886.293l-7.427-7.927-6.846,7.927" transform="translate(-2581.224 -4878.366)" fill="none" stroke="#18076a" stroke-linecap="round" stroke-width="2"/>
    </g>
    <path id="Path_317" data-name="Path 317" d="M2897.5,4878.367l7.427,7.927,6.846-7.927" transform="translate(-1586.614 85.633)" fill="none" stroke="#121212" stroke-linecap="round" stroke-width="2"/>
    <path id="Path_313" data-name="Path 313" d="M2897.5,4886.294l7.427-7.927,6.846,7.927" transform="translate(-1418.245 177.705)" fill="#fff" stroke="#121212" stroke-linecap="round" stroke-width="2"/>
    <path id="Icon_ionic-ios-arrow-round-forward" data-name="Icon ionic-ios-arrow-round-forward" d="M16.672,11.428a.626.626,0,0,0,0,.882l2.913,2.918H8.493a.623.623,0,0,0,0,1.246H19.575l-2.913,2.918a.631.631,0,0,0,0,.882.62.62,0,0,0,.877,0l3.948-3.977h0a.7.7,0,0,0,.129-.2.594.594,0,0,0,.048-.24.624.624,0,0,0-.177-.436l-3.948-3.977A.61.61,0,0,0,16.672,11.428Z" transform="translate(514.918 5002.926)" fill="#121212"/>
    <path id="Icon_ionic-ios-arrow-round-forward-2" data-name="Icon ionic-ios-arrow-round-forward" d="M16.672,11.428a.626.626,0,0,0,0,.882l2.913,2.918H8.493a.623.623,0,0,0,0,1.246H19.575l-2.913,2.918a.631.631,0,0,0,0,.882.62.62,0,0,0,.877,0l3.948-3.977h0a.7.7,0,0,0,.129-.2.594.594,0,0,0,.048-.24.624.624,0,0,0-.177-.436l-3.948-3.977A.61.61,0,0,0,16.672,11.428Z" transform="translate(702.022 5002.758)" fill="#121212"/>
    <path id="Icon_ionic-ios-arrow-round-forward-3" data-name="Icon ionic-ios-arrow-round-forward" d="M16.672,11.428a.626.626,0,0,0,0,.882l2.913,2.918H8.493a.623.623,0,0,0,0,1.246H19.575l-2.913,2.918a.631.631,0,0,0,0,.882.62.62,0,0,0,.877,0l3.948-3.977h0a.7.7,0,0,0,.129-.2.594.594,0,0,0,.048-.24.624.624,0,0,0-.177-.436l-3.948-3.977A.61.61,0,0,0,16.672,11.428Z" transform="translate(349.864 5002.809)" fill="#121212"/>
    <path id="Icon_ionic-ios-arrow-round-forward-4" data-name="Icon ionic-ios-arrow-round-forward" d="M16.672,11.428a.626.626,0,0,0,0,.882l2.913,2.918H8.493a.623.623,0,0,0,0,1.246H19.575l-2.913,2.918a.631.631,0,0,0,0,.882.62.62,0,0,0,.877,0l3.948-3.977h0a.7.7,0,0,0,.129-.2.594.594,0,0,0,.048-.24.624.624,0,0,0-.177-.436l-3.948-3.977A.61.61,0,0,0,16.672,11.428Z" transform="translate(889.022 5002.928)" fill="#121212"/>
    <path id="Icon_ionic-ios-arrow-round-forward-5" data-name="Icon ionic-ios-arrow-round-forward" d="M16.672,11.428a.626.626,0,0,0,0,.882l2.913,2.918H8.493a.623.623,0,0,0,0,1.246H19.575l-2.913,2.918a.631.631,0,0,0,0,.882.62.62,0,0,0,.877,0l3.948-3.977h0a.7.7,0,0,0,.129-.2.594.594,0,0,0,.048-.24.624.624,0,0,0-.177-.436l-3.948-3.977A.61.61,0,0,0,16.672,11.428Z" transform="translate(1052.121 5002.277)" fill="#121212"/>
    <path id="Icon_ionic-ios-arrow-round-forward-6" data-name="Icon ionic-ios-arrow-round-forward" d="M16.672,11.428a.626.626,0,0,0,0,.882l2.913,2.918H8.493a.623.623,0,0,0,0,1.246H19.575l-2.913,2.918a.631.631,0,0,0,0,.882.62.62,0,0,0,.877,0l3.948-3.977h0a.7.7,0,0,0,.129-.2.594.594,0,0,0,.048-.24.624.624,0,0,0-.177-.436l-3.948-3.977A.61.61,0,0,0,16.672,11.428Z" transform="translate(1220.09 5002.328)" fill="#121212"/>
    <path id="Icon_ionic-ios-arrow-round-forward-7" data-name="Icon ionic-ios-arrow-round-forward" d="M16.672,11.428a.626.626,0,0,0,0,.882l2.913,2.918H8.493a.623.623,0,0,0,0,1.246H19.575l-2.913,2.918a.631.631,0,0,0,0,.882.62.62,0,0,0,.877,0l3.948-3.977h0a.7.7,0,0,0,.129-.2.594.594,0,0,0,.048-.24.624.624,0,0,0-.177-.436l-3.948-3.977A.61.61,0,0,0,16.672,11.428Z" transform="translate(1387.589 5002.277)" fill="#121212"/>
  </g>
</svg>
