<svg xmlns="http://www.w3.org/2000/svg" xmlns:xlink="http://www.w3.org/1999/xlink" width="1532.384" height="1498.581" viewBox="0 0 1532.384 1498.581">
  <defs>
    <filter id="Union_1" x="149.879" y="14.909" width="221.302" height="318.373" filterUnits="userSpaceOnUse">
      <feOffset dx="15" dy="20" input="SourceAlpha"/>
      <feGaussianBlur stdDeviation="20" result="blur"/>
      <feFlood flood-opacity="0.235"/>
      <feComposite operator="in" in2="blur"/>
      <feComposite in="SourceGraphic"/>
    </filter>
    <filter id="Union_1-2" x="349.469" y="14.909" width="221.302" height="318.373" filterUnits="userSpaceOnUse">
      <feOffset dx="15" dy="20" input="SourceAlpha"/>
      <feGaussianBlur stdDeviation="20" result="blur-2"/>
      <feFlood flood-opacity="0.235"/>
      <feComposite operator="in" in2="blur-2"/>
      <feComposite in="SourceGraphic"/>
    </filter>
    <filter id="Union_1-3" x="546.415" y="14.909" width="221.302" height="318.373" filterUnits="userSpaceOnUse">
      <feOffset dx="15" dy="20" input="SourceAlpha"/>
      <feGaussianBlur stdDeviation="20" result="blur-3"/>
      <feFlood flood-opacity="0.235"/>
      <feComposite operator="in" in2="blur-3"/>
      <feComposite in="SourceGraphic"/>
    </filter>
    <filter id="Union_1-4" x="349.469" y="338.062" width="221.302" height="318.373" filterUnits="userSpaceOnUse">
      <feOffset dx="15" dy="20" input="SourceAlpha"/>
      <feGaussianBlur stdDeviation="20" result="blur-4"/>
      <feFlood flood-opacity="0.235"/>
      <feComposite operator="in" in2="blur-4"/>
      <feComposite in="SourceGraphic"/>
    </filter>
    <filter id="Union_1-5" x="150.098" y="338.062" width="221.302" height="318.373" filterUnits="userSpaceOnUse">
      <feOffset dx="15" dy="20" input="SourceAlpha"/>
      <feGaussianBlur stdDeviation="20" result="blur-5"/>
      <feFlood flood-opacity="0.235"/>
      <feComposite operator="in" in2="blur-5"/>
      <feComposite in="SourceGraphic"/>
    </filter>
    <filter id="Union_1-6" x="736.466" y="338.062" width="221.302" height="318.373" filterUnits="userSpaceOnUse">
      <feOffset dx="15" dy="20" input="SourceAlpha"/>
      <feGaussianBlur stdDeviation="20" result="blur-6"/>
      <feFlood flood-opacity="0.235"/>
      <feComposite operator="in" in2="blur-6"/>
      <feComposite in="SourceGraphic"/>
    </filter>
    <filter id="Union_1-7" x="547.324" y="692.674" width="221.302" height="318.373" filterUnits="userSpaceOnUse">
      <feOffset dx="15" dy="20" input="SourceAlpha"/>
      <feGaussianBlur stdDeviation="20" result="blur-7"/>
      <feFlood flood-opacity="0.235"/>
      <feComposite operator="in" in2="blur-7"/>
      <feComposite in="SourceGraphic"/>
    </filter>
    <filter id="Union_1-8" x="1311.082" y="1134.04" width="221.302" height="318.373" filterUnits="userSpaceOnUse">
      <feOffset dx="15" dy="20" input="SourceAlpha"/>
      <feGaussianBlur stdDeviation="20" result="blur-8"/>
      <feFlood flood-opacity="0.235"/>
      <feComposite operator="in" in2="blur-8"/>
      <feComposite in="SourceGraphic"/>
    </filter>
    <filter id="Union_1-9" x="738.725" y="692.674" width="221.302" height="318.373" filterUnits="userSpaceOnUse">
      <feOffset dx="15" dy="20" input="SourceAlpha"/>
      <feGaussianBlur stdDeviation="20" result="blur-9"/>
      <feFlood flood-opacity="0.235"/>
      <feComposite operator="in" in2="blur-9"/>
      <feComposite in="SourceGraphic"/>
    </filter>
    <filter id="Union_1-10" x="929.074" y="692.674" width="221.302" height="318.373" filterUnits="userSpaceOnUse">
      <feOffset dx="15" dy="20" input="SourceAlpha"/>
      <feGaussianBlur stdDeviation="20" result="blur-10"/>
      <feFlood flood-opacity="0.235"/>
      <feComposite operator="in" in2="blur-10"/>
      <feComposite in="SourceGraphic"/>
    </filter>
    <filter id="Union_1-11" x="1119.164" y="694.488" width="221.302" height="318.373" filterUnits="userSpaceOnUse">
      <feOffset dx="15" dy="20" input="SourceAlpha"/>
      <feGaussianBlur stdDeviation="20" result="blur-11"/>
      <feFlood flood-opacity="0.235"/>
      <feComposite operator="in" in2="blur-11"/>
      <feComposite in="SourceGraphic"/>
    </filter>
    <filter id="Union_1-12" x="552.711" y="1132.265" width="221.302" height="318.373" filterUnits="userSpaceOnUse">
      <feOffset dx="15" dy="20" input="SourceAlpha"/>
      <feGaussianBlur stdDeviation="20" result="blur-12"/>
      <feFlood flood-opacity="0.235"/>
      <feComposite operator="in" in2="blur-12"/>
      <feComposite in="SourceGraphic"/>
    </filter>
    <filter id="Union_1-13" x="929.074" y="338.062" width="221.302" height="318.373" filterUnits="userSpaceOnUse">
      <feOffset dx="15" dy="20" input="SourceAlpha"/>
      <feGaussianBlur stdDeviation="20" result="blur-13"/>
      <feFlood flood-opacity="0.235"/>
      <feComposite operator="in" in2="blur-13"/>
      <feComposite in="SourceGraphic"/>
    </filter>
    <filter id="Union_1-14" x="738.725" y="1132.265" width="221.302" height="318.373" filterUnits="userSpaceOnUse">
      <feOffset dx="15" dy="20" input="SourceAlpha"/>
      <feGaussianBlur stdDeviation="20" result="blur-14"/>
      <feFlood flood-opacity="0.235"/>
      <feComposite operator="in" in2="blur-14"/>
      <feComposite in="SourceGraphic"/>
    </filter>
    <filter id="Union_1-15" x="929.074" y="1132.265" width="221.302" height="318.373" filterUnits="userSpaceOnUse">
      <feOffset dx="15" dy="20" input="SourceAlpha"/>
      <feGaussianBlur stdDeviation="20" result="blur-15"/>
      <feFlood flood-opacity="0.235"/>
      <feComposite operator="in" in2="blur-15"/>
      <feComposite in="SourceGraphic"/>
    </filter>
  </defs>
  <g id="Group_265" data-name="Group 265" transform="translate(-160 -9493.829)">
    <g id="Group_159" data-name="Group 159" transform="translate(354.879 9548.738)">
      <g transform="matrix(1, 0, 0, 1, -194.88, -54.91)" filter="url(#Union_1)">
        <path id="Union_1-16" data-name="Union 1" d="M16,198.374A14.685,14.685,0,0,1,1.316,183.688V63.074A2.63,2.63,0,0,1,0,60.794V54.181A2.63,2.63,0,0,1,1.316,51.9V49.848A2.63,2.63,0,0,1,0,47.569V40.956a2.629,2.629,0,0,1,1.316-2.279v-6.1A2.63,2.63,0,0,1,0,30.3V28.542a2.63,2.63,0,0,1,1.316-2.28V14.685A14.685,14.685,0,0,1,16,0H85.3A14.685,14.685,0,0,1,99.986,14.685V38.677a2.629,2.629,0,0,1,1.316,2.279v6.613a2.63,2.63,0,0,1-1.316,2.279v133.84A14.685,14.685,0,0,1,85.3,198.374Z" transform="translate(194.88 54.91)" fill="#18076a"/>
      </g>
      <rect id="Screen_Shot_2021-02-08_at_19.22.16" data-name="Screen Shot 2021-02-08 at 19.22.16" width="85.373" height="151.331" transform="translate(7.965 21.405)" fill="#1f0c72"/>
      <g id="Ellipse_19" data-name="Ellipse 19" transform="translate(43.06 176.968)" fill="none" stroke="#2c11a5" stroke-width="2">
        <ellipse cx="7.591" cy="7.591" rx="7.591" ry="7.591" stroke="none"/>
        <ellipse cx="7.591" cy="7.591" rx="6.591" ry="6.591" fill="none"/>
      </g>
      <path id="camera" d="M14.518,1.3a1.3,1.3,0,1,0,1.3-1.3A1.3,1.3,0,0,0,14.518,1.3ZM.65.65a.65.65,0,1,0,0,1.3H10.834a.65.65,0,0,0,0-1.3Z" transform="translate(57.752 15.838) rotate(180)" fill="#2c11a5"/>
      <path id="camera-2" data-name="camera" d="M0,.578A.578.578,0,1,0,.578,0,.578.578,0,0,0,0,.578Z" transform="translate(52.18 8.885) rotate(180)" fill="#2c11a5"/>
    </g>
    <g id="Group_181" data-name="Group 181" transform="translate(554.469 9548.738)">
      <g transform="matrix(1, 0, 0, 1, -394.47, -54.91)" filter="url(#Union_1-2)">
        <path id="Union_1-17" data-name="Union 1" d="M16,198.374A14.685,14.685,0,0,1,1.316,183.688V63.074A2.63,2.63,0,0,1,0,60.794V54.181A2.63,2.63,0,0,1,1.316,51.9V49.848A2.63,2.63,0,0,1,0,47.569V40.956a2.629,2.629,0,0,1,1.316-2.279v-6.1A2.63,2.63,0,0,1,0,30.3V28.542a2.63,2.63,0,0,1,1.316-2.28V14.685A14.685,14.685,0,0,1,16,0H85.3A14.685,14.685,0,0,1,99.986,14.685V38.677a2.629,2.629,0,0,1,1.316,2.279v6.613a2.63,2.63,0,0,1-1.316,2.279v133.84A14.685,14.685,0,0,1,85.3,198.374Z" transform="translate(394.47 54.91)" fill="#18076a"/>
      </g>
      <rect id="Screen_Shot_2021-02-08_at_19.22.16-2" data-name="Screen Shot 2021-02-08 at 19.22.16" width="85.373" height="151.331" transform="translate(7.965 21.405)" fill="#1f0c72"/>
      <g id="Ellipse_19-2" data-name="Ellipse 19" transform="translate(43.06 176.968)" fill="none" stroke="#2c11a5" stroke-width="2">
        <ellipse cx="7.591" cy="7.591" rx="7.591" ry="7.591" stroke="none"/>
        <ellipse cx="7.591" cy="7.591" rx="6.591" ry="6.591" fill="none"/>
      </g>
      <path id="camera-3" data-name="camera" d="M14.518,1.3a1.3,1.3,0,1,0,1.3-1.3A1.3,1.3,0,0,0,14.518,1.3ZM.65.65a.65.65,0,1,0,0,1.3H10.834a.65.65,0,0,0,0-1.3Z" transform="translate(57.752 15.838) rotate(180)" fill="#2c11a5"/>
      <path id="camera-4" data-name="camera" d="M0,.578A.578.578,0,1,0,.578,0,.578.578,0,0,0,0,.578Z" transform="translate(52.18 8.885) rotate(180)" fill="#2c11a5"/>
    </g>
    <g id="Group_182" data-name="Group 182" transform="translate(751.415 9548.738)">
      <g transform="matrix(1, 0, 0, 1, -591.42, -54.91)" filter="url(#Union_1-3)">
        <path id="Union_1-18" data-name="Union 1" d="M16,198.374A14.685,14.685,0,0,1,1.316,183.688V63.074A2.63,2.63,0,0,1,0,60.794V54.181A2.63,2.63,0,0,1,1.316,51.9V49.848A2.63,2.63,0,0,1,0,47.569V40.956a2.629,2.629,0,0,1,1.316-2.279v-6.1A2.63,2.63,0,0,1,0,30.3V28.542a2.63,2.63,0,0,1,1.316-2.28V14.685A14.685,14.685,0,0,1,16,0H85.3A14.685,14.685,0,0,1,99.986,14.685V38.677a2.629,2.629,0,0,1,1.316,2.279v6.613a2.63,2.63,0,0,1-1.316,2.279v133.84A14.685,14.685,0,0,1,85.3,198.374Z" transform="translate(591.42 54.91)" fill="#18076a"/>
      </g>
      <rect id="Screen_Shot_2021-02-08_at_19.22.16-3" data-name="Screen Shot 2021-02-08 at 19.22.16" width="85.373" height="151.331" transform="translate(7.965 21.405)" fill="#1f0c72"/>
      <g id="Ellipse_19-3" data-name="Ellipse 19" transform="translate(43.06 176.968)" fill="none" stroke="#2c11a5" stroke-width="2">
        <ellipse cx="7.591" cy="7.591" rx="7.591" ry="7.591" stroke="none"/>
        <ellipse cx="7.591" cy="7.591" rx="6.591" ry="6.591" fill="none"/>
      </g>
      <path id="camera-5" data-name="camera" d="M14.518,1.3a1.3,1.3,0,1,0,1.3-1.3A1.3,1.3,0,0,0,14.518,1.3ZM.65.65a.65.65,0,1,0,0,1.3H10.834a.65.65,0,0,0,0-1.3Z" transform="translate(57.752 15.838) rotate(180)" fill="#2c11a5"/>
      <path id="camera-6" data-name="camera" d="M0,.578A.578.578,0,1,0,.578,0,.578.578,0,0,0,0,.578Z" transform="translate(52.18 8.885) rotate(180)" fill="#2c11a5"/>
    </g>
    <g id="Group_189" data-name="Group 189" transform="translate(554.469 9871.891)">
      <g transform="matrix(1, 0, 0, 1, -394.47, -378.06)" filter="url(#Union_1-4)">
        <path id="Union_1-19" data-name="Union 1" d="M16,198.374A14.685,14.685,0,0,1,1.316,183.688V63.074A2.63,2.63,0,0,1,0,60.794V54.181A2.63,2.63,0,0,1,1.316,51.9V49.848A2.63,2.63,0,0,1,0,47.569V40.956a2.629,2.629,0,0,1,1.316-2.279v-6.1A2.63,2.63,0,0,1,0,30.3V28.542a2.63,2.63,0,0,1,1.316-2.28V14.685A14.685,14.685,0,0,1,16,0H85.3A14.685,14.685,0,0,1,99.986,14.685V38.677a2.629,2.629,0,0,1,1.316,2.279v6.613a2.63,2.63,0,0,1-1.316,2.279v133.84A14.685,14.685,0,0,1,85.3,198.374Z" transform="translate(394.47 378.06)" fill="#18076a"/>
      </g>
      <rect id="Screen_Shot_2021-02-08_at_19.22.16-4" data-name="Screen Shot 2021-02-08 at 19.22.16" width="85.373" height="151.331" transform="translate(7.965 21.405)" fill="#1f0c72"/>
      <g id="Ellipse_19-4" data-name="Ellipse 19" transform="translate(43.06 176.968)" fill="none" stroke="#2c11a5" stroke-width="2">
        <ellipse cx="7.591" cy="7.591" rx="7.591" ry="7.591" stroke="none"/>
        <ellipse cx="7.591" cy="7.591" rx="6.591" ry="6.591" fill="none"/>
      </g>
      <path id="camera-7" data-name="camera" d="M14.518,1.3a1.3,1.3,0,1,0,1.3-1.3A1.3,1.3,0,0,0,14.518,1.3ZM.65.65a.65.65,0,1,0,0,1.3H10.834a.65.65,0,0,0,0-1.3Z" transform="translate(57.752 15.838) rotate(180)" fill="#2c11a5"/>
      <path id="camera-8" data-name="camera" d="M0,.578A.578.578,0,1,0,.578,0,.578.578,0,0,0,0,.578Z" transform="translate(52.18 8.885) rotate(180)" fill="#2c11a5"/>
    </g>
    <g id="Group_203" data-name="Group 203" transform="translate(355.098 9871.891)">
      <g transform="matrix(1, 0, 0, 1, -195.1, -378.06)" filter="url(#Union_1-5)">
        <path id="Union_1-20" data-name="Union 1" d="M16,198.374A14.685,14.685,0,0,1,1.316,183.688V63.074A2.63,2.63,0,0,1,0,60.794V54.181A2.63,2.63,0,0,1,1.316,51.9V49.848A2.63,2.63,0,0,1,0,47.569V40.956a2.629,2.629,0,0,1,1.316-2.279v-6.1A2.63,2.63,0,0,1,0,30.3V28.542a2.63,2.63,0,0,1,1.316-2.28V14.685A14.685,14.685,0,0,1,16,0H85.3A14.685,14.685,0,0,1,99.986,14.685V38.677a2.629,2.629,0,0,1,1.316,2.279v6.613a2.63,2.63,0,0,1-1.316,2.279v133.84A14.685,14.685,0,0,1,85.3,198.374Z" transform="translate(195.1 378.06)" fill="#18076a"/>
      </g>
      <rect id="Screen_Shot_2021-02-08_at_19.22.16-5" data-name="Screen Shot 2021-02-08 at 19.22.16" width="85.373" height="151.331" transform="translate(7.965 21.405)" fill="#1f0c72"/>
      <g id="Ellipse_19-5" data-name="Ellipse 19" transform="translate(43.06 176.968)" fill="none" stroke="#2c11a5" stroke-width="2">
        <ellipse cx="7.591" cy="7.591" rx="7.591" ry="7.591" stroke="none"/>
        <ellipse cx="7.591" cy="7.591" rx="6.591" ry="6.591" fill="none"/>
      </g>
      <path id="camera-9" data-name="camera" d="M14.518,1.3a1.3,1.3,0,1,0,1.3-1.3A1.3,1.3,0,0,0,14.518,1.3ZM.65.65a.65.65,0,1,0,0,1.3H10.834a.65.65,0,0,0,0-1.3Z" transform="translate(57.752 15.838) rotate(180)" fill="#2c11a5"/>
      <path id="camera-10" data-name="camera" d="M0,.578A.578.578,0,1,0,.578,0,.578.578,0,0,0,0,.578Z" transform="translate(52.18 8.885) rotate(180)" fill="#2c11a5"/>
    </g>
    <g id="Group_191" data-name="Group 191" transform="translate(941.466 9871.891)">
      <g transform="matrix(1, 0, 0, 1, -781.47, -378.06)" filter="url(#Union_1-6)">
        <path id="Union_1-21" data-name="Union 1" d="M16,198.374A14.685,14.685,0,0,1,1.316,183.688V63.074A2.63,2.63,0,0,1,0,60.794V54.181A2.63,2.63,0,0,1,1.316,51.9V49.848A2.63,2.63,0,0,1,0,47.569V40.956a2.629,2.629,0,0,1,1.316-2.279v-6.1A2.63,2.63,0,0,1,0,30.3V28.542a2.63,2.63,0,0,1,1.316-2.28V14.685A14.685,14.685,0,0,1,16,0H85.3A14.685,14.685,0,0,1,99.986,14.685V38.677a2.629,2.629,0,0,1,1.316,2.279v6.613a2.63,2.63,0,0,1-1.316,2.279v133.84A14.685,14.685,0,0,1,85.3,198.374Z" transform="translate(781.47 378.06)" fill="#18076a"/>
      </g>
      <rect id="Screen_Shot_2021-02-08_at_19.22.16-6" data-name="Screen Shot 2021-02-08 at 19.22.16" width="85.373" height="151.331" transform="translate(7.965 21.405)" fill="#1f0c72"/>
      <g id="Ellipse_19-6" data-name="Ellipse 19" transform="translate(43.06 176.968)" fill="none" stroke="#2c11a5" stroke-width="2">
        <ellipse cx="7.591" cy="7.591" rx="7.591" ry="7.591" stroke="none"/>
        <ellipse cx="7.591" cy="7.591" rx="6.591" ry="6.591" fill="none"/>
      </g>
      <path id="camera-11" data-name="camera" d="M14.518,1.3a1.3,1.3,0,1,0,1.3-1.3A1.3,1.3,0,0,0,14.518,1.3ZM.65.65a.65.65,0,1,0,0,1.3H10.834a.65.65,0,0,0,0-1.3Z" transform="translate(57.752 15.838) rotate(180)" fill="#2c11a5"/>
      <path id="camera-12" data-name="camera" d="M0,.578A.578.578,0,1,0,.578,0,.578.578,0,0,0,0,.578Z" transform="translate(52.18 8.885) rotate(180)" fill="#2c11a5"/>
    </g>
    <g id="Group_183" data-name="Group 183" transform="translate(752.324 10226.503)">
      <g transform="matrix(1, 0, 0, 1, -592.32, -732.67)" filter="url(#Union_1-7)">
        <path id="Union_1-22" data-name="Union 1" d="M16,198.374A14.685,14.685,0,0,1,1.316,183.688V63.074A2.63,2.63,0,0,1,0,60.794V54.181A2.63,2.63,0,0,1,1.316,51.9V49.848A2.63,2.63,0,0,1,0,47.569V40.956a2.629,2.629,0,0,1,1.316-2.279v-6.1A2.63,2.63,0,0,1,0,30.3V28.542a2.63,2.63,0,0,1,1.316-2.28V14.685A14.685,14.685,0,0,1,16,0H85.3A14.685,14.685,0,0,1,99.986,14.685V38.677a2.629,2.629,0,0,1,1.316,2.279v6.613a2.63,2.63,0,0,1-1.316,2.279v133.84A14.685,14.685,0,0,1,85.3,198.374Z" transform="translate(592.32 732.67)" fill="#18076a"/>
      </g>
      <rect id="Screen_Shot_2021-02-08_at_19.22.16-7" data-name="Screen Shot 2021-02-08 at 19.22.16" width="85.373" height="151.331" transform="translate(7.965 21.405)" fill="#1f0c72"/>
      <g id="Ellipse_19-7" data-name="Ellipse 19" transform="translate(43.06 176.968)" fill="none" stroke="#2c11a5" stroke-width="2">
        <ellipse cx="7.591" cy="7.591" rx="7.591" ry="7.591" stroke="none"/>
        <ellipse cx="7.591" cy="7.591" rx="6.591" ry="6.591" fill="none"/>
      </g>
      <path id="camera-13" data-name="camera" d="M14.518,1.3a1.3,1.3,0,1,0,1.3-1.3A1.3,1.3,0,0,0,14.518,1.3ZM.65.65a.65.65,0,1,0,0,1.3H10.834a.65.65,0,0,0,0-1.3Z" transform="translate(57.752 15.838) rotate(180)" fill="#2c11a5"/>
      <path id="camera-14" data-name="camera" d="M0,.578A.578.578,0,1,0,.578,0,.578.578,0,0,0,0,.578Z" transform="translate(52.18 8.885) rotate(180)" fill="#2c11a5"/>
    </g>
    <g id="Group_199" data-name="Group 199" transform="translate(1516.082 10667.869)">
      <g transform="matrix(1, 0, 0, 1, -1356.08, -1174.04)" filter="url(#Union_1-8)">
        <path id="Union_1-23" data-name="Union 1" d="M16,198.374A14.685,14.685,0,0,1,1.316,183.688V63.074A2.63,2.63,0,0,1,0,60.794V54.181A2.63,2.63,0,0,1,1.316,51.9V49.848A2.63,2.63,0,0,1,0,47.569V40.956a2.629,2.629,0,0,1,1.316-2.279v-6.1A2.63,2.63,0,0,1,0,30.3V28.542a2.63,2.63,0,0,1,1.316-2.28V14.685A14.685,14.685,0,0,1,16,0H85.3A14.685,14.685,0,0,1,99.986,14.685V38.677a2.629,2.629,0,0,1,1.316,2.279v6.613a2.63,2.63,0,0,1-1.316,2.279v133.84A14.685,14.685,0,0,1,85.3,198.374Z" transform="translate(1356.08 1174.04)" fill="#18076a"/>
      </g>
      <rect id="Screen_Shot_2021-02-08_at_19.22.16-8" data-name="Screen Shot 2021-02-08 at 19.22.16" width="85.373" height="151.331" transform="translate(7.965 21.405)" fill="#1f0c72"/>
      <g id="Ellipse_19-8" data-name="Ellipse 19" transform="translate(43.06 176.968)" fill="none" stroke="#2c11a5" stroke-width="2">
        <ellipse cx="7.591" cy="7.591" rx="7.591" ry="7.591" stroke="none"/>
        <ellipse cx="7.591" cy="7.591" rx="6.591" ry="6.591" fill="none"/>
      </g>
      <path id="camera-15" data-name="camera" d="M14.518,1.3a1.3,1.3,0,1,0,1.3-1.3A1.3,1.3,0,0,0,14.518,1.3ZM.65.65a.65.65,0,1,0,0,1.3H10.834a.65.65,0,0,0,0-1.3Z" transform="translate(57.752 15.838) rotate(180)" fill="#2c11a5"/>
      <path id="camera-16" data-name="camera" d="M0,.578A.578.578,0,1,0,.578,0,.578.578,0,0,0,0,.578Z" transform="translate(52.18 8.885) rotate(180)" fill="#2c11a5"/>
    </g>
    <g id="Group_192" data-name="Group 192" transform="translate(943.725 10226.503)">
      <g transform="matrix(1, 0, 0, 1, -783.72, -732.67)" filter="url(#Union_1-9)">
        <path id="Union_1-24" data-name="Union 1" d="M16,198.374A14.685,14.685,0,0,1,1.316,183.688V63.074A2.63,2.63,0,0,1,0,60.794V54.181A2.63,2.63,0,0,1,1.316,51.9V49.848A2.63,2.63,0,0,1,0,47.569V40.956a2.629,2.629,0,0,1,1.316-2.279v-6.1A2.63,2.63,0,0,1,0,30.3V28.542a2.63,2.63,0,0,1,1.316-2.28V14.685A14.685,14.685,0,0,1,16,0H85.3A14.685,14.685,0,0,1,99.986,14.685V38.677a2.629,2.629,0,0,1,1.316,2.279v6.613a2.63,2.63,0,0,1-1.316,2.279v133.84A14.685,14.685,0,0,1,85.3,198.374Z" transform="translate(783.72 732.67)" fill="#18076a"/>
      </g>
      <rect id="Screen_Shot_2021-02-08_at_19.22.16-9" data-name="Screen Shot 2021-02-08 at 19.22.16" width="85.373" height="151.331" transform="translate(7.965 21.405)" fill="#1f0c72"/>
      <g id="Ellipse_19-9" data-name="Ellipse 19" transform="translate(43.06 176.968)" fill="none" stroke="#2c11a5" stroke-width="2">
        <ellipse cx="7.591" cy="7.591" rx="7.591" ry="7.591" stroke="none"/>
        <ellipse cx="7.591" cy="7.591" rx="6.591" ry="6.591" fill="none"/>
      </g>
      <path id="camera-17" data-name="camera" d="M14.518,1.3a1.3,1.3,0,1,0,1.3-1.3A1.3,1.3,0,0,0,14.518,1.3ZM.65.65a.65.65,0,1,0,0,1.3H10.834a.65.65,0,0,0,0-1.3Z" transform="translate(57.752 15.838) rotate(180)" fill="#2c11a5"/>
      <path id="camera-18" data-name="camera" d="M0,.578A.578.578,0,1,0,.578,0,.578.578,0,0,0,0,.578Z" transform="translate(52.18 8.885) rotate(180)" fill="#2c11a5"/>
    </g>
    <g id="Group_193" data-name="Group 193" transform="translate(1134.074 10226.503)">
      <g transform="matrix(1, 0, 0, 1, -974.07, -732.67)" filter="url(#Union_1-10)">
        <path id="Union_1-25" data-name="Union 1" d="M16,198.374A14.685,14.685,0,0,1,1.316,183.688V63.074A2.63,2.63,0,0,1,0,60.794V54.181A2.63,2.63,0,0,1,1.316,51.9V49.848A2.63,2.63,0,0,1,0,47.569V40.956a2.629,2.629,0,0,1,1.316-2.279v-6.1A2.63,2.63,0,0,1,0,30.3V28.542a2.63,2.63,0,0,1,1.316-2.28V14.685A14.685,14.685,0,0,1,16,0H85.3A14.685,14.685,0,0,1,99.986,14.685V38.677a2.629,2.629,0,0,1,1.316,2.279v6.613a2.63,2.63,0,0,1-1.316,2.279v133.84A14.685,14.685,0,0,1,85.3,198.374Z" transform="translate(974.07 732.67)" fill="#18076a"/>
      </g>
      <rect id="Screen_Shot_2021-02-08_at_19.22.16-10" data-name="Screen Shot 2021-02-08 at 19.22.16" width="85.373" height="151.331" transform="translate(7.965 21.405)" fill="#1f0c72"/>
      <g id="Ellipse_19-10" data-name="Ellipse 19" transform="translate(43.06 176.968)" fill="none" stroke="#2c11a5" stroke-width="2">
        <ellipse cx="7.591" cy="7.591" rx="7.591" ry="7.591" stroke="none"/>
        <ellipse cx="7.591" cy="7.591" rx="6.591" ry="6.591" fill="none"/>
      </g>
      <path id="camera-19" data-name="camera" d="M14.518,1.3a1.3,1.3,0,1,0,1.3-1.3A1.3,1.3,0,0,0,14.518,1.3ZM.65.65a.65.65,0,1,0,0,1.3H10.834a.65.65,0,0,0,0-1.3Z" transform="translate(57.752 15.838) rotate(180)" fill="#2c11a5"/>
      <path id="camera-20" data-name="camera" d="M0,.578A.578.578,0,1,0,.578,0,.578.578,0,0,0,0,.578Z" transform="translate(52.18 8.885) rotate(180)" fill="#2c11a5"/>
    </g>
    <g id="Group_194" data-name="Group 194" transform="translate(1324.164 10228.317)">
      <g transform="matrix(1, 0, 0, 1, -1164.16, -734.49)" filter="url(#Union_1-11)">
        <path id="Union_1-26" data-name="Union 1" d="M16,198.374A14.685,14.685,0,0,1,1.316,183.688V63.074A2.63,2.63,0,0,1,0,60.794V54.181A2.63,2.63,0,0,1,1.316,51.9V49.848A2.63,2.63,0,0,1,0,47.569V40.956a2.629,2.629,0,0,1,1.316-2.279v-6.1A2.63,2.63,0,0,1,0,30.3V28.542a2.63,2.63,0,0,1,1.316-2.28V14.685A14.685,14.685,0,0,1,16,0H85.3A14.685,14.685,0,0,1,99.986,14.685V38.677a2.629,2.629,0,0,1,1.316,2.279v6.613a2.63,2.63,0,0,1-1.316,2.279v133.84A14.685,14.685,0,0,1,85.3,198.374Z" transform="translate(1164.16 734.49)" fill="#18076a"/>
      </g>
      <rect id="Screen_Shot_2021-02-08_at_19.22.16-11" data-name="Screen Shot 2021-02-08 at 19.22.16" width="85.373" height="151.331" transform="translate(7.965 21.405)" fill="#1f0c72"/>
      <g id="Ellipse_19-11" data-name="Ellipse 19" transform="translate(43.06 176.968)" fill="none" stroke="#2c11a5" stroke-width="2">
        <ellipse cx="7.591" cy="7.591" rx="7.591" ry="7.591" stroke="none"/>
        <ellipse cx="7.591" cy="7.591" rx="6.591" ry="6.591" fill="none"/>
      </g>
      <path id="camera-21" data-name="camera" d="M14.518,1.3a1.3,1.3,0,1,0,1.3-1.3A1.3,1.3,0,0,0,14.518,1.3ZM.65.65a.65.65,0,1,0,0,1.3H10.834a.65.65,0,0,0,0-1.3Z" transform="translate(57.752 15.838) rotate(180)" fill="#2c11a5"/>
      <path id="camera-22" data-name="camera" d="M0,.578A.578.578,0,1,0,.578,0,.578.578,0,0,0,0,.578Z" transform="translate(52.18 8.885) rotate(180)" fill="#2c11a5"/>
    </g>
    <g id="Group_196" data-name="Group 196" transform="translate(757.711 10666.094)">
      <g transform="matrix(1, 0, 0, 1, -597.71, -1172.26)" filter="url(#Union_1-12)">
        <path id="Union_1-27" data-name="Union 1" d="M16,198.374A14.685,14.685,0,0,1,1.316,183.688V63.074A2.63,2.63,0,0,1,0,60.794V54.181A2.63,2.63,0,0,1,1.316,51.9V49.848A2.63,2.63,0,0,1,0,47.569V40.956a2.629,2.629,0,0,1,1.316-2.279v-6.1A2.63,2.63,0,0,1,0,30.3V28.542a2.63,2.63,0,0,1,1.316-2.28V14.685A14.685,14.685,0,0,1,16,0H85.3A14.685,14.685,0,0,1,99.986,14.685V38.677a2.629,2.629,0,0,1,1.316,2.279v6.613a2.63,2.63,0,0,1-1.316,2.279v133.84A14.685,14.685,0,0,1,85.3,198.374Z" transform="translate(597.71 1172.26)" fill="#18076a"/>
      </g>
      <rect id="Screen_Shot_2021-02-08_at_19.22.16-12" data-name="Screen Shot 2021-02-08 at 19.22.16" width="85.373" height="151.331" transform="translate(7.965 21.405)" fill="#1f0c72"/>
      <g id="Ellipse_19-12" data-name="Ellipse 19" transform="translate(43.06 176.968)" fill="none" stroke="#2c11a5" stroke-width="2">
        <ellipse cx="7.591" cy="7.591" rx="7.591" ry="7.591" stroke="none"/>
        <ellipse cx="7.591" cy="7.591" rx="6.591" ry="6.591" fill="none"/>
      </g>
      <path id="camera-23" data-name="camera" d="M14.518,1.3a1.3,1.3,0,1,0,1.3-1.3A1.3,1.3,0,0,0,14.518,1.3ZM.65.65a.65.65,0,1,0,0,1.3H10.834a.65.65,0,0,0,0-1.3Z" transform="translate(57.752 15.838) rotate(180)" fill="#2c11a5"/>
      <path id="camera-24" data-name="camera" d="M0,.578A.578.578,0,1,0,.578,0,.578.578,0,0,0,0,.578Z" transform="translate(52.18 8.885) rotate(180)" fill="#2c11a5"/>
    </g>
    <g id="Group_207" data-name="Group 207" transform="translate(1134.074 9871.891)">
      <g transform="matrix(1, 0, 0, 1, -974.07, -378.06)" filter="url(#Union_1-13)">
        <path id="Union_1-28" data-name="Union 1" d="M16,198.374A14.685,14.685,0,0,1,1.316,183.688V63.074A2.63,2.63,0,0,1,0,60.794V54.181A2.63,2.63,0,0,1,1.316,51.9V49.848A2.63,2.63,0,0,1,0,47.569V40.956a2.629,2.629,0,0,1,1.316-2.279v-6.1A2.63,2.63,0,0,1,0,30.3V28.542a2.63,2.63,0,0,1,1.316-2.28V14.685A14.685,14.685,0,0,1,16,0H85.3A14.685,14.685,0,0,1,99.986,14.685V38.677a2.629,2.629,0,0,1,1.316,2.279v6.613a2.63,2.63,0,0,1-1.316,2.279v133.84A14.685,14.685,0,0,1,85.3,198.374Z" transform="translate(974.07 378.06)" fill="#18076a"/>
      </g>
      <rect id="Screen_Shot_2021-02-08_at_19.22.16-13" data-name="Screen Shot 2021-02-08 at 19.22.16" width="85.373" height="151.331" transform="translate(7.965 21.405)" fill="#1f0c72"/>
      <g id="Ellipse_19-13" data-name="Ellipse 19" transform="translate(43.06 176.968)" fill="none" stroke="#2c11a5" stroke-width="2">
        <ellipse cx="7.591" cy="7.591" rx="7.591" ry="7.591" stroke="none"/>
        <ellipse cx="7.591" cy="7.591" rx="6.591" ry="6.591" fill="none"/>
      </g>
      <path id="camera-25" data-name="camera" d="M14.518,1.3a1.3,1.3,0,1,0,1.3-1.3A1.3,1.3,0,0,0,14.518,1.3ZM.65.65a.65.65,0,1,0,0,1.3H10.834a.65.65,0,0,0,0-1.3Z" transform="translate(57.752 15.838) rotate(180)" fill="#2c11a5"/>
      <path id="camera-26" data-name="camera" d="M0,.578A.578.578,0,1,0,.578,0,.578.578,0,0,0,0,.578Z" transform="translate(52.18 8.885) rotate(180)" fill="#2c11a5"/>
    </g>
    <g id="Group_197" data-name="Group 197" transform="translate(943.725 10666.094)">
      <g transform="matrix(1, 0, 0, 1, -783.72, -1172.26)" filter="url(#Union_1-14)">
        <path id="Union_1-29" data-name="Union 1" d="M16,198.374A14.685,14.685,0,0,1,1.316,183.688V63.074A2.63,2.63,0,0,1,0,60.794V54.181A2.63,2.63,0,0,1,1.316,51.9V49.848A2.63,2.63,0,0,1,0,47.569V40.956a2.629,2.629,0,0,1,1.316-2.279v-6.1A2.63,2.63,0,0,1,0,30.3V28.542a2.63,2.63,0,0,1,1.316-2.28V14.685A14.685,14.685,0,0,1,16,0H85.3A14.685,14.685,0,0,1,99.986,14.685V38.677a2.629,2.629,0,0,1,1.316,2.279v6.613a2.63,2.63,0,0,1-1.316,2.279v133.84A14.685,14.685,0,0,1,85.3,198.374Z" transform="translate(783.72 1172.26)" fill="#18076a"/>
      </g>
      <rect id="Screen_Shot_2021-02-08_at_19.22.16-14" data-name="Screen Shot 2021-02-08 at 19.22.16" width="85.373" height="151.331" transform="translate(7.965 21.405)" fill="#1f0c72"/>
      <g id="Ellipse_19-14" data-name="Ellipse 19" transform="translate(43.06 176.968)" fill="none" stroke="#2c11a5" stroke-width="2">
        <ellipse cx="7.591" cy="7.591" rx="7.591" ry="7.591" stroke="none"/>
        <ellipse cx="7.591" cy="7.591" rx="6.591" ry="6.591" fill="none"/>
      </g>
      <path id="camera-27" data-name="camera" d="M14.518,1.3a1.3,1.3,0,1,0,1.3-1.3A1.3,1.3,0,0,0,14.518,1.3ZM.65.65a.65.65,0,1,0,0,1.3H10.834a.65.65,0,0,0,0-1.3Z" transform="translate(57.752 15.838) rotate(180)" fill="#2c11a5"/>
      <path id="camera-28" data-name="camera" d="M0,.578A.578.578,0,1,0,.578,0,.578.578,0,0,0,0,.578Z" transform="translate(52.18 8.885) rotate(180)" fill="#2c11a5"/>
    </g>
    <g id="Group_200" data-name="Group 200" transform="translate(1134.074 10666.094)">
      <g transform="matrix(1, 0, 0, 1, -974.07, -1172.26)" filter="url(#Union_1-15)">
        <path id="Union_1-30" data-name="Union 1" d="M16,198.374A14.685,14.685,0,0,1,1.316,183.688V63.074A2.63,2.63,0,0,1,0,60.794V54.181A2.63,2.63,0,0,1,1.316,51.9V49.848A2.63,2.63,0,0,1,0,47.569V40.956a2.629,2.629,0,0,1,1.316-2.279v-6.1A2.63,2.63,0,0,1,0,30.3V28.542a2.63,2.63,0,0,1,1.316-2.28V14.685A14.685,14.685,0,0,1,16,0H85.3A14.685,14.685,0,0,1,99.986,14.685V38.677a2.629,2.629,0,0,1,1.316,2.279v6.613a2.63,2.63,0,0,1-1.316,2.279v133.84A14.685,14.685,0,0,1,85.3,198.374Z" transform="translate(974.07 1172.26)" fill="#18076a"/>
      </g>
      <rect id="Screen_Shot_2021-02-08_at_19.22.16-15" data-name="Screen Shot 2021-02-08 at 19.22.16" width="85.373" height="151.331" transform="translate(7.965 21.405)" fill="#1f0c72"/>
      <g id="Ellipse_19-15" data-name="Ellipse 19" transform="translate(43.06 176.968)" fill="none" stroke="#2c11a5" stroke-width="2">
        <ellipse cx="7.591" cy="7.591" rx="7.591" ry="7.591" stroke="none"/>
        <ellipse cx="7.591" cy="7.591" rx="6.591" ry="6.591" fill="none"/>
      </g>
      <path id="camera-29" data-name="camera" d="M14.518,1.3a1.3,1.3,0,1,0,1.3-1.3A1.3,1.3,0,0,0,14.518,1.3ZM.65.65a.65.65,0,1,0,0,1.3H10.834a.65.65,0,0,0,0-1.3Z" transform="translate(57.752 15.838) rotate(180)" fill="#2c11a5"/>
      <path id="camera-30" data-name="camera" d="M0,.578A.578.578,0,1,0,.578,0,.578.578,0,0,0,0,.578Z" transform="translate(52.18 8.885) rotate(180)" fill="#2c11a5"/>
    </g>
    <rect id="Rectangle_169" data-name="Rectangle 169" width="149.692" height="61.446" transform="translate(330.903 9755.677)" fill="#eee"/>
    <text id="Sjekker_ut_Snapchat_stories_fra_MODUS" data-name="Sjekker ut Snapchat 
stories fra MODUS" transform="translate(346.591 9780.75)" fill="#101010" font-size="12" font-family="Poppins-Medium, Poppins" font-weight="500"><tspan x="0" y="0">Sjekker ut Snapchat </tspan><tspan x="0" y="18">stories fra </tspan><tspan y="18" font-family="Poppins-Bold, Poppins" font-weight="700">MODUS</tspan></text>
    <rect id="Rectangle_169-2" data-name="Rectangle 169" width="149.692" height="61.446" transform="translate(530.273 9755.678)" fill="#eee"/>
    <text id="Swiper_opp_for_å_besøke_MODUS" data-name="Swiper opp for å 
besøke MODUS" transform="translate(555.767 9780.604)" fill="#101010" font-size="12" font-family="Poppins-Medium, Poppins" font-weight="500"><tspan x="0" y="0">Swiper opp for å </tspan><tspan x="0" y="18">besøke </tspan><tspan y="18" font-family="Poppins-Bold, Poppins" font-weight="700">MODUS</tspan></text>
    <rect id="Rectangle_169-3" data-name="Rectangle 169" width="135.965" height="59.748" transform="translate(739.268 9757.376)" fill="#eee"/>
    <text id="Kommer_til_login_" data-name="Kommer til login 
" transform="translate(757.571 9781.273)" fill="#101010" font-size="12" font-family="Poppins-Medium, Poppins" font-weight="500"><tspan x="0" y="0">Kommer til login </tspan><tspan x="0" y="18"></tspan></text>
    <rect id="Rectangle_169-4" data-name="Rectangle 169" width="135.965" height="59.748" transform="translate(537.138 10087.914)" fill="#eee"/>
    <text id="Trykker_sneak_peak" data-name="Trykker sneak peak" transform="translate(548.904 10112.446)" fill="#101010" font-size="12" font-family="Poppins-Medium, Poppins" font-weight="500"><tspan x="0" y="0">Trykker</tspan><tspan y="0" xml:space="preserve" font-family="Poppins-Bold, Poppins" font-weight="700"> sneak peak</tspan></text>
    <rect id="Rectangle_169-5" data-name="Rectangle 169" width="135.965" height="59.748" transform="translate(337.767 10087.914)" fill="#eee"/>
    <text id="Leser_artikkel" data-name="Leser artikkel" transform="translate(349.532 10112.446)" fill="#101010" font-size="12" font-family="Poppins-Medium, Poppins" font-weight="500"><tspan x="0" y="0">Leser artikkel</tspan></text>
    <rect id="Rectangle_169-6" data-name="Rectangle 169" width="135.965" height="59.747" transform="translate(925.868 10087.914)" fill="#eee"/>
    <text id="Registrerer_profil" data-name="Registrerer profil" transform="translate(944.172 10113.349)" fill="#101010" font-size="12" font-family="Poppins-Medium, Poppins" font-weight="500"><tspan x="0" y="0">Registrerer profil</tspan></text>
    <rect id="Rectangle_169-7" data-name="Rectangle 169" width="144.481" height="90.207" transform="translate(730.826 10453.9)" fill="#eee"/>
    <text id="Nora_ser_forsiden_til_MODUS" data-name="Nora ser forsiden til MODUS" transform="translate(747.975 10464.39)" fill="#101010" font-size="12" font-family="Poppins-Medium, Poppins" font-weight="500"><tspan x="0" y="13">Nora ser</tspan><tspan y="13" xml:space="preserve" font-family="Poppins-Bold, Poppins" font-weight="700"> forsiden </tspan><tspan x="0" y="33">til MODUS</tspan></text>
    <rect id="Rectangle_169-8" data-name="Rectangle 169" width="168.649" height="89.881" transform="translate(915.292 10454.228)" fill="#eee"/>
    <text id="Sjekker_ut_MODUS_stories_for_rask_oppdatering_på_hennes_favoritt_temaer" data-name="Sjekker ut MODUS stories 
for rask oppdatering på 
hennes favoritt temaer" transform="translate(925.107 10477.39)" fill="#101010" font-size="12" font-family="Poppins-Medium, Poppins" font-weight="500"><tspan x="0" y="0">Sjekker ut </tspan><tspan y="0" font-family="Poppins-Bold, Poppins" font-weight="700">MODUS stories</tspan><tspan y="0"> </tspan><tspan x="0" y="18">for rask oppdatering på </tspan><tspan x="0" y="36">hennes favoritt temaer</tspan></text>
    <rect id="Rectangle_169-9" data-name="Rectangle 169" width="168.649" height="90.207" transform="translate(1110.088 10453.9)" fill="#eee"/>
    <text id="Justerer_deretter_Modus_slider_til_dypdykk_og_scroller_seg_til_det_hun_syntes_er_spennende" data-name="Justerer deretter Modus slider til dypdykk og scroller seg til det hun syntes er spennende" transform="translate(1121.2 10461.418)" fill="#101010" font-size="12" font-family="Poppins-Medium, Poppins" font-weight="500"><tspan x="0" y="13">Justerer deretter </tspan><tspan y="13" font-family="Poppins-Bold, Poppins" font-weight="700">Modus </tspan><tspan x="0" y="33" font-family="Poppins-Bold, Poppins" font-weight="700">slider</tspan><tspan y="33" xml:space="preserve"> til dypdykk og </tspan><tspan x="0" y="53">scroller seg til det hun </tspan><tspan x="0" y="73">syntes er spennende</tspan></text>
    <rect id="Rectangle_169-10" data-name="Rectangle 169" width="166.446" height="89.881" transform="translate(1294.883 10454.228)" fill="#eee"/>
    <text id="Velger_en_artikkel_hun_syntes_er_spennende_og_som_tar_15_min_å_lese" data-name="Velger en artikkel hun syntes er spennende og som tar 15 min å lese" transform="translate(1305.605 10471.418)" fill="#101010" font-size="12" font-family="Poppins-Medium, Poppins" font-weight="500"><tspan x="0" y="13">Velger en artikkel hun </tspan><tspan x="0" y="33">syntes er spennende og </tspan><tspan x="0" y="53">som tar 15 min å lese</tspan></text>
    <rect id="Rectangle_169-11" data-name="Rectangle 169" width="135.254" height="69.29" transform="translate(926.224 10891.365)" fill="#eee"/>
    <text id="Skriver_ß" data-name="Skriver ß" transform="translate(940.604 10906.399)" fill="#101010" font-size="12" font-family="Poppins-Medium, Poppins" font-weight="500"><tspan x="0" y="13">Skriver ß</tspan></text>
    <rect id="Rectangle_169-12" data-name="Rectangle 169" width="132.444" height="69.29" transform="translate(1118.504 10891.365)" fill="#eee"/>
    <text id="Senderr" transform="translate(1132.885 10906.399)" fill="#101010" font-size="12" font-family="Poppins-Medium, Poppins" font-weight="500"><tspan x="0" y="13">Senderr</tspan></text>
    <rect id="Rectangle_169-13" data-name="Rectangle 169" width="160.804" height="69.29" transform="translate(1486.331 10903.785)" fill="#eee"/>
    <text id="Går_til_UTROP_og_leser_videre_der" data-name="Går til UTROP og leser videre der" transform="translate(1500.712 10918.819)" fill="#101010" font-size="12" font-family="Poppins-Medium, Poppins" font-weight="500"><tspan x="0" y="13">Går til UTROP og leser </tspan><tspan x="0" y="33">videre der</tspan></text>
    <rect id="Rectangle_169-14" data-name="Rectangle 169" width="160.804" height="69.29" transform="translate(722.574 10891.365)" fill="#eee"/>
    <text id="Går_til_profilen_og_trykke_r" data-name="Går til profilen og trykke r" transform="translate(736.955 10903.132)" fill="#101010" font-size="12" font-family="Poppins-Medium, Poppins" font-weight="500"><tspan x="0" y="13">Går til profilen og </tspan><tspan x="0" y="33">trykke r</tspan></text>
    <rect id="Rectangle_169-15" data-name="Rectangle 169" width="160.804" height="59.747" transform="translate(1114.009 10087.914)" fill="#eee"/>
    <text id="Kommer_til_profilen_sin_og_trykker_på_hjem_ikon_" data-name="Kommer  til profilen sin og trykker på hjem ikon " transform="translate(1122.997 10099.287)" fill="#101010" font-size="12" font-family="Poppins-Medium, Poppins" font-weight="500"><tspan x="0" y="13" xml:space="preserve">Kommer  til profilen sin </tspan><tspan x="0" y="33">og trykker på hjem ikon </tspan></text>
    <g id="Group_160" data-name="Group 160" transform="translate(380.256 9493.829)">
      <g id="Ellipse_21" data-name="Ellipse 21" transform="translate(0 0)" fill="#fff551" stroke="#000" stroke-width="1">
        <ellipse cx="25.493" cy="25.493" rx="25.493" ry="25.493" stroke="none"/>
        <ellipse cx="25.493" cy="25.493" rx="24.993" ry="24.993" fill="none"/>
      </g>
      <path id="Icon_awesome-snapchat-ghost" data-name="Icon awesome-snapchat-ghost" d="M34.085,26.255c-.348.811-1.817,1.407-4.494,1.823a12.514,12.514,0,0,0-.434,1.6.773.773,0,0,1-.809.592h-.02c-.627,0-1.281-.288-2.592-.288a5.28,5.28,0,0,0-3.753,1.374,7.515,7.515,0,0,1-4.939,1.828c-2.111.156-3.872-1.128-4.862-1.828a5.274,5.274,0,0,0-3.753-1.373,25.2,25.2,0,0,0-2.592.315.792.792,0,0,1-.829-.6,12.359,12.359,0,0,0-.435-1.61C3.191,27.867.08,27.324,0,25.936A.709.709,0,0,1,.593,25.2c4.643-.764,6.734-5.531,6.821-5.734,0-.012.01-.023.016-.034a1.517,1.517,0,0,0,.164-1.251C7.257,17.384,5.8,17.1,5.189,16.857c-1.582-.625-1.8-1.343-1.709-1.835a1.717,1.717,0,0,1,2.2-1.031,3.818,3.818,0,0,0,1.571.42,1.362,1.362,0,0,0,.665-.145c-.136-2.4-.474-5.824.379-7.738a9.09,9.09,0,0,1,8.439-5.445l.675-.006a9.028,9.028,0,0,1,8.455,5.447c.853,1.912.517,5.324.38,7.74a1.307,1.307,0,0,0,.574.143,3.986,3.986,0,0,0,1.472-.417,1.806,1.806,0,0,1,1.366,0h0a1.386,1.386,0,0,1,1.04,1.192c.012.65-.569,1.212-1.727,1.669-.141.056-.313.11-.5.168-.654.207-1.641.521-1.909,1.152a1.515,1.515,0,0,0,.164,1.251c.006.011.011.023.016.034.087.2,2.176,4.968,6.821,5.734A.728.728,0,0,1,34.085,26.255Z" transform="translate(8.413 8.358)" fill="#fff" stroke="#000" stroke-width="1"/>
    </g>
    <g id="Group_198" data-name="Group 198" transform="translate(579.627 9493.829)">
      <g id="Ellipse_21-2" data-name="Ellipse 21" transform="translate(0 0)" fill="#fff551" stroke="#000" stroke-width="1">
        <ellipse cx="25.493" cy="25.493" rx="25.493" ry="25.493" stroke="none"/>
        <ellipse cx="25.493" cy="25.493" rx="24.993" ry="24.993" fill="none"/>
      </g>
      <path id="Icon_awesome-snapchat-ghost-2" data-name="Icon awesome-snapchat-ghost" d="M34.085,26.255c-.348.811-1.817,1.407-4.494,1.823a12.514,12.514,0,0,0-.434,1.6.773.773,0,0,1-.809.592h-.02c-.627,0-1.281-.288-2.592-.288a5.28,5.28,0,0,0-3.753,1.374,7.515,7.515,0,0,1-4.939,1.828c-2.111.156-3.872-1.128-4.862-1.828a5.274,5.274,0,0,0-3.753-1.373,25.2,25.2,0,0,0-2.592.315.792.792,0,0,1-.829-.6,12.359,12.359,0,0,0-.435-1.61C3.191,27.867.08,27.324,0,25.936A.709.709,0,0,1,.593,25.2c4.643-.764,6.734-5.531,6.821-5.734,0-.012.01-.023.016-.034a1.517,1.517,0,0,0,.164-1.251C7.257,17.384,5.8,17.1,5.189,16.857c-1.582-.625-1.8-1.343-1.709-1.835a1.717,1.717,0,0,1,2.2-1.031,3.818,3.818,0,0,0,1.571.42,1.362,1.362,0,0,0,.665-.145c-.136-2.4-.474-5.824.379-7.738a9.09,9.09,0,0,1,8.439-5.445l.675-.006a9.028,9.028,0,0,1,8.455,5.447c.853,1.912.517,5.324.38,7.74a1.307,1.307,0,0,0,.574.143,3.986,3.986,0,0,0,1.472-.417,1.806,1.806,0,0,1,1.366,0h0a1.386,1.386,0,0,1,1.04,1.192c.012.65-.569,1.212-1.727,1.669-.141.056-.313.11-.5.168-.654.207-1.641.521-1.909,1.152a1.515,1.515,0,0,0,.164,1.251c.006.011.011.023.016.034.087.2,2.176,4.968,6.821,5.734A.728.728,0,0,1,34.085,26.255Z" transform="translate(8.413 8.358)" fill="#fff" stroke="#000" stroke-width="1"/>
    </g>
    <rect id="Rectangle_171" data-name="Rectangle 171" width="88.246" height="88.246" transform="translate(805.941 9892.084) rotate(45)" fill="#ffefd8"/>
    <rect id="Rectangle_173" data-name="Rectangle 173" width="88.246" height="88.246" transform="translate(222.399 9913.983) rotate(45)" fill="#ffefd8"/>
    <text id="Eksisterende_bruker_" data-name="Eksisterende bruker?" transform="translate(752.324 9937.393)" fill="#101010" font-size="14" font-family="Poppins-Bold, Poppins" font-weight="700"><tspan x="-46.2" y="15">Eksisterende</tspan><tspan y="15" font-family="Poppins-Medium, Poppins" font-weight="500"> </tspan><tspan x="-26.425" y="37" font-family="Poppins-Medium, Poppins" font-weight="500">bruker?</tspan></text>
    <text id="Lese_flere_artikler_" data-name="Lese flere artikler?" transform="translate(183.498 9954.734)" fill="#101010" font-size="14" font-family="Poppins-Medium, Poppins" font-weight="500"><tspan x="-32.879" y="15">Lese flere </tspan><tspan x="-28.126" y="37">artikler?</tspan></text>
    <g id="Group_260" data-name="Group 260" transform="translate(1319.383 10706.092)">
      <rect id="Rectangle_172" data-name="Rectangle 172" width="78.368" height="78.368" transform="translate(55.415 0) rotate(45)" fill="#ffefd8"/>
      <text id="Skrive_flere_UTROP_" data-name="Skrive flere UTROP?" transform="translate(8.355 37.842)" fill="#101010" font-size="14" font-family="Poppins-Medium, Poppins" font-weight="500"><tspan x="-38.108" y="15">Skrive flere </tspan><tspan x="-26.915" y="37" font-family="Poppins-Bold, Poppins" font-weight="700">UTROP?</tspan></text>
    </g>
    <rect id="Rectangle_172-2" data-name="Rectangle 172" width="129.718" height="129.718" transform="translate(1561.155 10228.636) rotate(45)" fill="#ffefd8"/>
    <g id="Group_186" data-name="Group 186" transform="translate(789.601 10022)">
      <ellipse id="Ellipse_22" data-name="Ellipse 22" cx="16.342" cy="16.342" rx="16.342" ry="16.342" transform="translate(0 0)" fill="#95f2bc"/>
      <text id="Ja" transform="translate(10.342 19.842)" fill="#101010" font-size="10" font-family="Poppins-Medium, Poppins" font-weight="500"><tspan x="0" y="0">Ja</tspan></text>
    </g>
    <g id="Group_204" data-name="Group 204" transform="translate(206.057 10050.569)">
      <ellipse id="Ellipse_22-2" data-name="Ellipse 22" cx="16.342" cy="16.342" rx="16.342" ry="16.342" transform="translate(0)" fill="#95f2bc"/>
      <text id="Ja-2" data-name="Ja" transform="translate(10.342 19.842)" fill="#101010" font-size="10" font-family="Poppins-Medium, Poppins" font-weight="500"><tspan x="0" y="0">Ja</tspan></text>
    </g>
    <g id="Group_185" data-name="Group 185" transform="translate(703.39 9938.142)">
      <ellipse id="Ellipse_23" data-name="Ellipse 23" cx="16.342" cy="16.342" rx="16.342" ry="16.342" transform="translate(0 0)" fill="#fa88a7"/>
      <text id="Nei" transform="translate(8.342 19.842)" fill="#101010" font-size="10" font-family="Poppins-Medium, Poppins" font-weight="500"><tspan x="0" y="0">Nei</tspan></text>
    </g>
    <g id="Group_205" data-name="Group 205" transform="translate(206.057 9874.328)">
      <ellipse id="Ellipse_23-2" data-name="Ellipse 23" cx="16.342" cy="16.342" rx="16.342" ry="16.342" transform="translate(0)" fill="#fa88a7"/>
      <text id="Nei-2" data-name="Nei" transform="translate(8.341 19.842)" fill="#101010" font-size="10" font-family="Poppins-Medium, Poppins" font-weight="500"><tspan x="0" y="0">Nei</tspan></text>
    </g>
    <g id="Group_187" data-name="Group 187" transform="translate(875.307 9938.393)">
      <ellipse id="Ellipse_23-3" data-name="Ellipse 23" cx="16.342" cy="16.342" rx="16.342" ry="16.342" transform="translate(0)" fill="#fa88a7"/>
      <text id="Nei-3" data-name="Nei" transform="translate(8.342 19.842)" fill="#101010" font-size="10" font-family="Poppins-Medium, Poppins" font-weight="500"><tspan x="0" y="0">Nei</tspan></text>
    </g>
    <g id="Group_258" data-name="Group 258" transform="translate(1358.467 10820.631)">
      <ellipse id="Ellipse_23-4" data-name="Ellipse 23" cx="16.342" cy="16.342" rx="16.342" ry="16.342" fill="#fa88a7"/>
      <text id="Nei-4" data-name="Nei" transform="translate(8.342 19.842)" fill="#101010" font-size="10" font-family="Poppins-Medium, Poppins" font-weight="500"><tspan x="0" y="0">Nei</tspan></text>
    </g>
    <g id="Group_259" data-name="Group 259" transform="translate(1438.414 10745.165)">
      <ellipse id="Ellipse_23-5" data-name="Ellipse 23" cx="16.342" cy="16.342" rx="16.342" ry="16.342" fill="#fa88a7"/>
      <text id="Nei-5" data-name="Nei" transform="translate(8.341 19.842)" fill="#101010" font-size="10" font-family="Poppins-Medium, Poppins" font-weight="500"><tspan x="0" y="0">Nei</tspan></text>
    </g>
    <g id="Group_263" data-name="Group 263" transform="translate(1544.813 10190.322)">
      <ellipse id="Ellipse_23-6" data-name="Ellipse 23" cx="16.342" cy="16.342" rx="16.342" ry="16.342" fill="#fa88a7"/>
      <text id="Nei-6" data-name="Nei" transform="translate(8.341 19.842)" fill="#101010" font-size="10" font-family="Poppins-Medium, Poppins" font-weight="500"><tspan x="0" y="0">Nei</tspan></text>
    </g>
    <path id="Path_141" data-name="Path 141" d="M-7533.318-14798.166v142.043" transform="translate(8336.294 24868.428)" fill="none" stroke="#1f0c72" stroke-width="1"/>
    <path id="Path_142" data-name="Path 142" d="M-7528.78-15171.422v64.395" transform="translate(8334.723 24997.695)" fill="none" stroke="#1f0c72" stroke-width="1"/>
    <path id="Path_143" data-name="Path 143" d="M-7707.469-14974.9h-41.153" transform="translate(8408.012 24929.637)" fill="none" stroke="#1f0c72" stroke-width="1"/>
    <path id="Path_174" data-name="Path 174" d="M-8421.489-14760.5v219.478l509.655.083" transform="translate(8643.889 24855.383)" fill="none" stroke="#1f0c72" stroke-width="1"/>
    <path id="Path_175" data-name="Path 175" d="M-7433.321-14424.741h64.564" transform="translate(8301.662 24681.102)" fill="none" stroke="#1f0c72" stroke-width="1"/>
    <path id="Path_189" data-name="Path 189" d="M-7433.321-14424.741h64.564" transform="translate(8304.279 25185.422)" fill="none" stroke="#1f0c72" stroke-width="1"/>
    <path id="Path_195" data-name="Path 195" d="M-7433.321-14424.741h64.564" transform="translate(8490.522 25185.422)" fill="none" stroke="#1f0c72" stroke-width="1"/>
    <path id="Path_196" data-name="Path 196" d="M-7433.321-14424.741h64.564" transform="translate(8679.938 25185.422)" fill="none" stroke="#1f0c72" stroke-width="1"/>
    <path id="Path_197" data-name="Path 197" d="M-7433.321-14424.741h31.015" transform="translate(8912.046 25186.248)" fill="none" stroke="#1f0c72" stroke-width="1"/>
    <path id="Path_186" data-name="Path 186" d="M-7433.321-14424.741h64.564" transform="translate(8490.522 24739.102)" fill="none" stroke="#1f0c72" stroke-width="1"/>
    <path id="Path_187" data-name="Path 187" d="M-7433.321-14424.741h64.564" transform="translate(8679.774 24739.102)" fill="none" stroke="#707070" stroke-width="1"/>
    <path id="Path_188" data-name="Path 188" d="M-7433.321-14424.741h14.984" transform="translate(8873.263 24739.102)" fill="none" stroke="#1f0c72" stroke-width="1"/>
    <path id="Path_177" data-name="Path 177" d="M-6821.514-13963.78v-49.028h-365.933v40.656" transform="translate(8197.629 24633.479)" fill="none" stroke="#1f0c72" stroke-width="1"/>
    <g id="Group_257" data-name="Group 257" transform="translate(1359.773 10673.408)">
      <ellipse id="Ellipse_22-3" data-name="Ellipse 22" cx="16.342" cy="16.342" rx="16.342" ry="16.342" fill="#95f2bc"/>
      <text id="Ja-3" data-name="Ja" transform="translate(9.151 18.844)" fill="#101010" font-size="10" font-family="Poppins-Medium, Poppins" font-weight="500"><tspan x="0" y="0">Ja</tspan></text>
    </g>
    <g id="Group_262" data-name="Group 262" transform="translate(1544.813 10421.217)">
      <ellipse id="Ellipse_22-4" data-name="Ellipse 22" cx="16.342" cy="16.342" rx="16.342" ry="16.342" fill="#95f2bc"/>
      <text id="Ja-4" data-name="Ja" transform="translate(10.342 19.842)" fill="#101010" font-size="10" font-family="Poppins-Medium, Poppins" font-weight="500"><tspan x="0" y="0">Ja</tspan></text>
    </g>
    <path id="Path_179" data-name="Path 179" d="M-7042.622-13889.582v129.645h-692v-613.9h49.411" transform="translate(8417.431 24751.848)" fill="none" stroke="#1f0c72" stroke-width="1"/>
    <path id="Path_181" data-name="Path 181" d="M-8314.216-14940.785h53" transform="translate(8606.737 24917.82)" fill="none" stroke="#1f0c72" stroke-width="1"/>
    <path id="Path_182" data-name="Path 182" d="M-7372.666-14974.9h30.586" transform="translate(8280.656 24929.637)" fill="none" stroke="#1f0c72" stroke-width="1"/>
    <path id="Path_183" data-name="Path 183" d="M-7163.83-14975.285h85.587" transform="translate(8208.332 24929.77)" fill="none" stroke="#1f0c72" stroke-width="1"/>
    <path id="Path_191" data-name="Path 191" d="M-7163.83-14975.285h85.587" transform="translate(7625.243 24946.111)" fill="none" stroke="#1f0c72" stroke-width="1"/>
    <path id="Path_192" data-name="Path 192" d="M-7163.83-14975.285h85.587" transform="translate(7625.243 24623.023)" fill="none" stroke="#1f0c72" stroke-width="1"/>
    <path id="Path_193" data-name="Path 193" d="M-7163.83-14975.285h85.587" transform="translate(7824.426 24623.023)" fill="none" stroke="#1f0c72" stroke-width="1"/>
    <path id="Path_184" data-name="Path 184" d="M-7166.939-14975.284h151.413v120.347h-497.506v53.169" transform="translate(8329.149 25013.785)" fill="none" stroke="#4a51e6" stroke-width="1"/>
    <path id="Path_185" data-name="Path 185" d="M-8421.489-15415.922v147.594" transform="translate(8643.889 25124.578)" fill="none" stroke="#1f0c72" stroke-width="1"/>
    <ellipse id="Ellipse_24" data-name="Ellipse 24" cx="39.221" cy="39.221" rx="39.221" ry="39.221" transform="translate(183.178 9610.863)" fill="#cbd300"/>
    <path id="Path_190" data-name="Path 190" d="M-7251.468-14064.727v-80.083h759.089v-126.065" transform="translate(8053.535 24725.102)" fill="none" stroke="#1f0c72" stroke-width="1"/>
    <path id="Path_194" data-name="Path 194" d="M-8335.627-15452h69.552" transform="translate(8614.152 25094.865)" fill="none" stroke="#1f0c72" stroke-width="1"/>
    <text id="Artikkelen_skaper_engasjement_og_Nora_ønsker_å_skrive_et_UTROP" data-name="Artikkelen skaper 
engasjement og Nora ønsker å skrive et UTROP" transform="translate(1507.655 10281.859)" fill="#101010" font-size="12" font-family="Poppins-Medium, Poppins" font-weight="500"><tspan x="-51.48" y="13">Artikkelen skaper </tspan><tspan font-family="Poppins-Bold, Poppins" font-weight="700"><tspan x="-50.586" y="33">engasjement</tspan><tspan y="33" xml:space="preserve" font-family="Poppins-Medium, Poppins" font-weight="500"> og </tspan><tspan x="-41.592" y="53" font-family="Poppins-Medium, Poppins" font-weight="500">Nora ønsker å </tspan><tspan x="-47.328" y="73">skrive et UTROP</tspan></tspan></text>
    <path id="Path_199" data-name="Path 199" d="M-11140.319-13689.424v-34.784h731.473v11.62" transform="translate(11970.002 23901.727)" fill="none" stroke="#18076a" stroke-width="1"/>
    <path id="Icon_ionic-ios-arrow-down" data-name="Icon ionic-ios-arrow-down" d="M10.72,14.866l3.427-3.429a.645.645,0,0,1,.915,0,.653.653,0,0,1,0,.917l-3.883,3.885a.646.646,0,0,1-.893.019l-3.91-3.9a.648.648,0,0,1,.915-.917Z" transform="translate(792.074 10197.419)" fill="#18076a"/>
    <path id="Icon_ionic-ios-arrow-down-2" data-name="Icon ionic-ios-arrow-down" d="M10.72,14.866l3.427-3.429a.645.645,0,0,1,.915,0,.653.653,0,0,1,0,.917l-3.883,3.885a.646.646,0,0,1-.893.019l-3.91-3.9a.648.648,0,0,1,.915-.917Z" transform="translate(795.223 9875.656)" fill="#18076a"/>
    <path id="Icon_ionic-ios-arrow-down-3" data-name="Icon ionic-ios-arrow-down" d="M10.72,12.809l3.427,3.429a.645.645,0,0,0,.915,0,.653.653,0,0,0,0-.917l-3.883-3.885a.646.646,0,0,0-.893-.019l-3.91,3.9a.648.648,0,0,0,.915.917Z" transform="translate(211.68 9696.065)" fill="#18076a"/>
    <path id="Icon_ionic-ios-arrow-down-4" data-name="Icon ionic-ios-arrow-down" d="M10.72,14.866l3.427-3.429a.645.645,0,0,1,.915,0,.653.653,0,0,1,0,.917l-3.883,3.885a.646.646,0,0,1-.893.019l-3.91-3.9a.648.648,0,0,1,.915-.917Z" transform="translate(675.817 9944.016) rotate(90)" fill="#18076a"/>
    <path id="Icon_ionic-ios-arrow-down-5" data-name="Icon ionic-ios-arrow-down" d="M4.533,1.562,7.96,4.991a.645.645,0,0,0,.915,0,.653.653,0,0,0,0-.917L4.992.189A.646.646,0,0,0,4.1.17l-3.91,3.9a.648.648,0,0,0,.915.917Z" transform="translate(939.731 9950.203) rotate(90)" fill="#18076a"/>
    <path id="Icon_ionic-ios-arrow-down-6" data-name="Icon ionic-ios-arrow-down" d="M4.533,1.562,7.96,4.991a.645.645,0,0,0,.915,0,.653.653,0,0,0,0-.917L4.992.189A.646.646,0,0,0,4.1.17l-3.91,3.9a.648.648,0,0,0,.915.917Z" transform="translate(1130.089 9949.953) rotate(90)" fill="#18076a"/>
    <path id="Icon_ionic-ios-arrow-down-7" data-name="Icon ionic-ios-arrow-down" d="M10.72,14.866l3.427-3.429a.645.645,0,0,1,.915,0,.653.653,0,0,1,0,.917l-3.883,3.885a.646.646,0,0,1-.893.019l-3.91-3.9a.648.648,0,0,1,.915-.917Z" transform="translate(477.841 9960.107) rotate(90)" fill="#18076a"/>
    <path id="Icon_ionic-ios-arrow-down-8" data-name="Icon ionic-ios-arrow-down" d="M10.72,14.866l3.427-3.429a.645.645,0,0,1,.915,0,.653.653,0,0,1,0,.917l-3.883,3.885a.646.646,0,0,1-.893.019l-3.91-3.9a.648.648,0,0,1,.915-.917Z" transform="translate(308.949 9966.316) rotate(90)" fill="#18076a"/>
    <path id="Icon_ionic-ios-arrow-down-9" data-name="Icon ionic-ios-arrow-down" d="M4.533,1.562,7.96,4.991a.645.645,0,0,0,.915,0,.653.653,0,0,0,0-.917L4.992.189A.646.646,0,0,0,4.1.17l-3.91,3.9a.648.648,0,0,0,.915.917Z" transform="translate(733.177 10309.913) rotate(90)" fill="#18076a"/>
    <path id="Icon_ionic-ios-arrow-down-10" data-name="Icon ionic-ios-arrow-down" d="M10.72,14.866l3.427-3.429a.645.645,0,0,1,.915,0,.653.653,0,0,1,0,.917l-3.883,3.885a.646.646,0,0,1-.893.019l-3.91-3.9a.648.648,0,0,1,.915-.917Z" transform="translate(730.768 9658.457) rotate(-90)" fill="#18076a"/>
    <path id="Icon_ionic-ios-arrow-down-11" data-name="Icon ionic-ios-arrow-down" d="M10.72,14.866l3.427-3.429a.645.645,0,0,1,.915,0,.653.653,0,0,1,0,.917l-3.883,3.885a.646.646,0,0,1-.893.019l-3.91-3.9a.648.648,0,0,1,.915-.917Z" transform="translate(530.572 9658.115) rotate(-90)" fill="#18076a"/>
    <path id="Icon_ionic-ios-arrow-down-12" data-name="Icon ionic-ios-arrow-down" d="M10.72,14.866l3.427-3.429a.645.645,0,0,1,.915,0,.653.653,0,0,1,0,.917l-3.883,3.885a.646.646,0,0,1-.893.019l-3.91-3.9a.648.648,0,0,1,.915-.917Z" transform="translate(332.754 9653.584) rotate(-90)" fill="#18076a"/>
    <path id="Icon_ionic-ios-arrow-down-13" data-name="Icon ionic-ios-arrow-down" d="M10.72,14.866l3.427-3.429a.645.645,0,0,1,.915,0,.653.653,0,0,1,0,.917l-3.883,3.885a.646.646,0,0,1-.893.019l-3.91-3.9a.648.648,0,0,1,.915-.917Z" transform="translate(805.398 10197.419)" fill="#18076a"/>
    <path id="Icon_ionic-ios-arrow-down-14" data-name="Icon ionic-ios-arrow-down" d="M10.72,14.866l3.427-3.429a.645.645,0,0,1,.915,0,.653.653,0,0,1,0,.917l-3.883,3.885a.646.646,0,0,1-.893.019l-3.91-3.9a.648.648,0,0,1,.915-.917Z" transform="translate(818.964 10197.419)" fill="#18076a"/>
    <path id="Icon_ionic-ios-arrow-down-15" data-name="Icon ionic-ios-arrow-down" d="M10.72,14.866l3.427-3.429a.645.645,0,0,1,.915,0,.653.653,0,0,1,0,.917l-3.883,3.885a.646.646,0,0,1-.893.019l-3.91-3.9a.648.648,0,0,1,.915-.917Z" transform="translate(919.068 10267.079) rotate(-90)" fill="#18076a"/>
    <path id="Icon_ionic-ios-arrow-down-16" data-name="Icon ionic-ios-arrow-down" d="M10.72,14.866l3.427-3.429a.645.645,0,0,1,.915,0,.653.653,0,0,1,0,.917l-3.883,3.885a.646.646,0,0,1-.893.019l-3.91-3.9a.648.648,0,0,1,.915-.917Z" transform="translate(1106.569 10325.079) rotate(-90)" fill="#18076a"/>
    <g id="Group_264" data-name="Group 264" transform="translate(-365 49)">
      <circle id="Ellipse_25" data-name="Ellipse 25" cx="16.5" cy="16.5" r="16.5" transform="translate(1510 9973)" fill="#c0c2eb" opacity="0.51"/>
      <circle id="Ellipse_26" data-name="Ellipse 26" cx="7.5" cy="7.5" r="7.5" transform="translate(1519 9982)" fill="#4a51e6"/>
    </g>
    <path id="Icon_awesome-hand-pointer" data-name="Icon awesome-hand-pointer" d="M31.425,20.857l.075,2.768a2.811,2.811,0,0,1-.075.644l-2.25,9.563A2.813,2.813,0,0,1,26.438,36H11.813a2.813,2.813,0,0,1-2.275-1.158l-9-12.375a2.812,2.812,0,1,1,4.549-3.308l2.225,3.06V2.813a2.813,2.813,0,0,1,5.625,0V16.875H13.5V14.063a2.812,2.812,0,0,1,2.813-2.812c1.553,0,2.813,1.259,3.375,3.938,0-1.553,1.266-1.928,2.819-1.928s3.128,1.51,3.368,3.615c0-1.553,2.589-1.907,4.114-.773S31.425,19.3,31.425,20.857Z" transform="translate(1151.111 10037)" fill="#f5bd3e"/>
  </g>
</svg>
