<?xml version="1.0" encoding="utf-8"?>
<!-- Generator: Adobe Illustrator 25.2.1, SVG Export Plug-In . SVG Version: 6.00 Build 0)  -->
<svg version="1.1" id="Layer_1" xmlns="http://www.w3.org/2000/svg" xmlns:xlink="http://www.w3.org/1999/xlink" x="0px" y="0px"
	 viewBox="0 0 262.1 344.1" style="enable-background:new 0 0 262.1 344.1;" xml:space="preserve">
<style type="text/css">
	.st0{fill:#F8F9FF;fill-opacity:0.4;}
	.st1{fill:#E4A4A4;}
	.st2{fill:#CA6363;}
	.st3{fill:#F6BBBB;}
</style>
<path d="M5.7,342.2c-0.1-3.7-0.3-7.5-0.5-11.2s-0.3-7.7-0.4-11.5s-0.2-7.6-0.2-11.4s-0.3-7.5-0.5-11.2s-0.2-7.7-0.4-11.5
	s-0.1-7.5-0.2-11.2c-0.1-5.5-0.4-10.9-0.7-16.4c0-0.1,0-0.2,0-0.3l0,0c0-0.1,0-0.2,0-0.3c0-0.2,0-0.4,0-0.6c0-0.1,0-0.2,0-0.3
	s0-0.5,0-0.7s0-0.4,0-0.6s0-0.2,0-0.3s0-0.2,0-0.3c0,0,0-0.1,0-0.1l0,0c-0.2-3.6-0.6-7.3-0.7-11s-0.2-7.5-0.4-11.3
	c-0.1-4.1-0.3-8.2-0.4-12.3c-0.3-7.6-0.5-15.1-0.6-22.7c-0.1-7.9-0.4-15.8-0.5-23.7S0,157.7,0,149.9c0-7.5,0-15,0-22.4
	c0-8.1,0-16.1,0-24.2c0-3.5,0.1-7,0.1-10.5c0-4.4,0.1-8.7,0.1-13.1c0-3.7,0-7.3,0-11c0-4.1,0.1-8.2,0.1-12.4
	c0.1-7.6,0.3-15.2,0.4-22.8c0-4.2,0.1-8.5,0.1-12.7c0-2.1,0-4.1,0.1-6.2c0.9-0.1,1.8-0.3,2.7-0.4c0.6-0.1,1.2-0.2,1.8-0.3
	c0,1.5,0,3.1,0,4.6c0,0,0,0.1,0,0.1c0,1.5,0,3,0,4.5c0,2.8,0,5.5-0.1,8.3c-0.1,8.4-0.2,16.8-0.4,24c-0.2,8.2-0.2,16.4-0.2,23.4
	c0,3.7,0,7.4,0,11c0,1.1,0,2.3,0,3.5v1.4c0,2.2-0.1,4.3-0.1,6.6v6.9c0,6.9,0,13.8,0,20.7v0.3c0,6.3,0,12.7,0,19
	c0,9.1,0,16.6,0.1,23.5c0,4,0.2,8,0.3,12v0.1c0.2,4.8,0.2,8.1,0.3,11.2c0.1,7.5,0.2,15,0.4,23.3c0.1,3.2,0.2,6.6,0.3,11.1
	c0.1,1.7,0.1,3.4,0.1,5.1v0.6c0,1.8,0.1,3.7,0.2,5.5c0.1,2,0.2,4.1,0.3,6.1l0.2,3.4l0.1,1.4l0.1,2.1c0,0.1,0,0.2,0,0.3v0.2
	c0,0.1,0,0.2,0,0.2l0.1,0.6c0,0.3,0.1,0.7,0.1,1v0.2c0,0.2,0,0.4,0,0.6c0,0.1,0,0.3,0,0.4c0,0.3,0,0.5,0,0.8l0.1,1.1
	c0,0.7,0.1,1.3,0.1,2c0.1,2,0.2,4.1,0.3,6.1c0.2,3.5,0.2,7,0.2,9.6v1.4c0,2.5,0.1,5.1,0.2,7.5v0.3v0.7v0.1l0.1,3
	c0.1,3.1,0.2,6.2,0.4,9.2v0.6v0.5c0.1,3.1,0.4,7.8,0.4,12.2v1.7v0.4v1c0,2.7,0.1,5.5,0.2,8.3c0.1,2,0.2,3.9,0.2,6v1v0.1v1v0.8
	c0,1,0.1,2,0.1,3s0.1,2.3,0.1,3.5v0.2v0.1v0.2c0,0,0,0,0,0.1c0.1,1.5,0.1,3,0.2,4.6L6,344.2H5.8C5.8,343.4,5.8,342.8,5.7,342.2z"/>
<path d="M0.9,14.6c0.9-0.1,1.8-0.3,2.7-0.4c3-0.4,6-1,9-1.5s5.9-1.1,8.9-1.4c3.6-0.4,7.2-0.6,10.8-0.8s7-0.4,10.5-0.6l2.7-0.2
	c0.3,0,0.6,0,0.8-0.1l1.3-0.1h-0.3l0.7,0c3-0.2,6-0.4,9-0.6c3.2-0.1,6.4-0.3,9.6-0.4C72.4,8.1,78.2,7.4,84.1,7
	c5.7-0.4,11.3-0.5,17-0.9h0.2l0.8-0.1h0.2l0,0h0.7l0,0c5.8-0.4,11.5-0.9,17.3-1.1c2.7-0.1,5.5-0.1,8.2-0.3c2.9-0.1,5.8-0.3,8.6-0.5
	h0.2l0.9-0.1h0.3l0.8-0.1h0.2c0.9,0,1.7-0.1,2.5-0.2l0,0c4.4-0.3,8.8-0.4,13.2-0.5c2.2,0,4.5,0,6.7-0.1s4.4-0.2,6.6-0.3
	c6.1-0.5,12.3-0.8,18.4-1c3-0.1,6-0.1,8.9-0.2s6.2-0.4,9.3-0.5c6.1-0.2,12.3-0.2,18.4-0.2c3,0,6.1-0.1,9.1-0.2s6-0.4,9-0.5
	c4.5-0.2,9-0.2,13.4-0.2c0,0.1,0,0.2,0,0.2c0.1,1.4,0.1,2.9,0.2,4.3h-0.7c-1.2,0-2.5,0-3.7,0l0,0l0,0h-0.2c-1.7,0-3.4,0-5.2,0.1
	c-3,0-6.1,0.2-8.8,0.4h-0.5c-2.6,0.2-5.7,0.3-8.9,0.4c-2.1,0-4.1,0-6.2,0h-2.9c-5.6,0-12.1,0.1-18.7,0.5c-2.3,0.2-4.5,0.3-6.7,0.3
	c-1.8,0.1-3.5,0.1-5.3,0.1h-1.5c-4.6,0.1-9.4,0.4-13.5,0.7c-4.7,0.3-9.8,0.7-15,0.7c-6,0-10.9,0.2-15.4,0.5l-1.2,0.1h-0.6H140h-0.1
	h-0.1c-0.3,0-0.6,0.1-1,0.1l-0.4,0.1h-0.2h-0.6h-0.3l-1.8,0.1h-0.6L130,9.1c-2.9,0.2-6,0.2-8.7,0.3h-0.7c-2.1,0.1-4.1,0.2-7.2,0.3
	l-4.1,0.3l-1,0.1c-1,0.1-2,0.1-3,0.2c-0.7,0-1.3,0.1-2,0.1h-0.1h-0.4c-0.1,0-0.2,0-0.3,0h-0.1h-0.1h-0.2c-0.2,0-0.4,0-0.7,0h-0.2
	h-0.1c-3.1,0.2-6.2,0.4-9.3,0.5c-2.8,0.1-5.9,0.3-10,0.6c-2.9,0.2-5.3,0.4-7.5,0.6l-1.9,0.2h-0.2c-1.8,0.2-3.7,0.4-5.7,0.5
	s-4.2,0.2-6.3,0.3h-0.2h-0.7h-0.1c-2.8,0.1-5.6,0.3-8.4,0.4l-2.2,0.1h-0.3c0-0.1-0.1-0.1-0.1-0.1c0,0-0.1,0-0.1,0.2l0,0L48,14h-0.6
	H47h-0.6h-0.2H46h-0.2h-0.1h-0.2h-0.1H45c-3,0.2-5.9,0.4-8.8,0.6C34.8,14.9,33.4,15,32,15h-0.9l-4.4,0.2c-2.6,0.2-5,0.5-7.1,0.7
	c-2.3,0.3-4.6,0.7-6.7,1.1h-0.2l-0.3,0l-2.2,0.4c-1.8,0.3-3.4,0.6-4.9,0.8l0,0c-1.5,0.2-2.9,0.4-4.4,0.7C0.8,17.6,0.9,16.1,0.9,14.6
	z"/>
<path d="M257.7,342.3c-0.1-1.5-0.1-3-0.2-4.6l0,0v-0.1l-0.2-4.2v-0.2c-0.1-1.4-0.1-2.8-0.2-4.1v-0.8v-0.9v-0.7V326v-0.7
	c-0.1-1.5-0.1-2.9-0.2-4.4c-0.2-4-0.4-8-0.5-12.2l-0.1-3.1l-0.1-1.2v-0.6V303v-0.8c-0.1-1.8-0.2-3.6-0.2-5.4
	c-0.2-4.1-0.4-8.2-0.4-12.2c0-2.3-0.1-4.6-0.1-6.9c0-1.8,0-3.6-0.1-5.4c0-2.4-0.1-4.7-0.2-7.1v-0.2v-1.2c0-1.2-0.1-2.4-0.1-3.5
	c-0.1-2.2-0.1-4.5-0.2-6.7c-0.1-1.4-0.1-2.9-0.2-4.3l-0.1-1.5c-0.2-4.2-0.4-8.3-0.6-12.5c-0.1-3-0.3-5.9-0.4-8.9l-0.1-3.2
	c-0.2-3.4-0.3-6.9-0.3-9.6l-0.1-2.8c-0.1-4-0.3-8-0.5-12.6s-0.3-8.7-0.4-12.6c-0.1-4.1-0.2-8.3-0.3-12.4c-0.1-2.1-0.1-4.3-0.1-6.4
	v-0.9c0-1.7-0.1-3.5-0.1-5.2l-0.1-3.7v-1.4v-0.2V154c-0.1-1.9-0.1-3.8-0.1-5.7c-0.1-4.2-0.2-8.4-0.3-12.6c-0.1-4.6-0.1-8.9-0.1-12.8
	v-12.2c0-2.2,0-4.4,0-6.6c0-6.6,0-12.9-0.1-18.5c0-1.9,0-3.8,0-5.7v-6.8c0-2.1,0-4.3,0-6.4v-1.3c0-1.7,0-3.4,0-5.2
	c0-7.9,0.1-16.5,0.2-25.3c0.1-2.4,0.1-4.7,0.1-7.1c0-2.7,0-5.3,0-7.8c0-3.2,0-6.4,0-9.4c0-1.7-0.1-3.4-0.1-5.1c0-0.3,0-0.6,0-0.9
	l0,0l0,0l0,0l0,0c-0.1-1.5-0.1-3-0.2-4.6c1.5,0,2.9,0,4.4,0.1c0,0.1,0,0.2,0,0.2c0.2,4.3,0.3,8.6,0.4,12.9
	c0.1,8.1-0.1,16.3-0.2,24.5c-0.1,16.7-0.3,33.4-0.2,50.2c0,8.3,0,16.7,0,25c0,4.1,0,8.3,0,12.5s0.1,8.6,0.1,12.9
	c0.1,8.3,0.4,16.6,0.6,24.9c0.1,4.1,0.1,8.3,0.2,12.4s0.2,8.4,0.3,12.6c0.2,8.3,0.7,16.7,0.9,25c0.1,4.1,0.2,8.3,0.4,12.4
	c0.2,4,0.3,7.9,0.5,11.9c0.2,4.2,0.4,8.3,0.6,12.5s0.3,8.5,0.4,12.7s0.2,8.3,0.2,12.4s0,8.1,0.1,12.1c0,2,0.1,4,0.2,6
	s0.2,4.2,0.2,6.3c0.2,3.9,0.4,7.9,0.5,11.8c0.1,4.1,0.4,8.2,0.6,12.4c0.2,4,0.2,8,0.5,12c0.1,2.2,0.2,4.4,0.2,6.7H258L257.7,342.3z"
	/>
<path d="M5.7,342.2c0-0.9-0.1-1.8-0.1-2.6l4.4-0.1l0,0l0,0l0,0h4.4h2.2c2.3,0,4.6,0,6.9-0.1h0.1h1.6c2.2,0,4.7-0.1,7.1-0.3l2.7-0.3
	l0.8-0.1h0.2c1.9-0.3,3.9-0.5,5.9-0.6c2.8-0.2,5.9-0.4,9.7-0.4c3.1,0,6.3,0,9.6,0.2l3.6,0.2h0.7h0.3c1.8,0.1,3.7,0.2,5.5,0.3h1.1
	c3.1,0,6.2-0.1,9.3-0.2h0.3h0.6c1.7-0.1,3.4-0.1,5.2-0.2c1.5,0,3-0.1,4.4-0.1c1.3,0,2.6,0,3.8,0.1c1.8,0,3.5,0.1,5.3,0.2l2.3,0.1
	h0.8c1.5,0,3,0,4.6,0h15.1h1.3h3.8c1.4,0,3.1,0.1,5.2,0.2c1.1,0.1,2.1,0.2,3.1,0.3l1.4,0.2c1.6,0.1,3.1,0.2,5,0.3c1.5,0,3,0,4.4,0
	h7.9c2.7,0,5.4,0,8.1-0.1c1.4,0,2.9,0,4.3,0c1.9,0,3.8,0,5.7,0.1c2.4,0,4.8,0.1,7.3,0.1h2.8c3.7,0,7-0.1,10.3-0.4l3.1-0.2
	c1.8-0.1,4.6-0.4,7.1-0.4h2c1.6,0,3.2,0,4.8,0.1c1.2,0,2.4,0.1,3.6,0.1h0.4c1.2,0,2.5,0,3.8-0.1h1.5c1.1,0,2.1,0,3.2,0h1.1h1.6
	c1.1,0,2.2,0,3.3,0c1.8,0,3.4,0,4.9-0.1l1.1-0.1c2.7-0.2,6-0.4,9.2-0.4c1.7,0,3.4,0,5.1,0h1.4h3.2h2.1h0.2l0,0c1.5,0,3,0,4.4,0
	c0.1,1.5,0.1,3,0.2,4.6h-0.8c-3.3,0-6.6,0-9.9-0.1s-6.4-0.1-9.6,0s-6.7,0.5-10,0.6c-1.6,0-3.1,0-4.7,0c-1.9,0-3.7,0-5.6,0
	c-3.4,0.1-6.7,0.1-10,0c-1.6,0-3.2-0.1-4.8-0.1s-3.4,0.1-5.2,0.2c-3.5,0.3-6.9,0.6-10.4,0.7s-7,0.2-10.5,0.1s-6.9-0.1-10.3-0.1
	c-3.3,0-6.6,0.1-9.9,0.1c-2.3,0-4.6,0-7,0c-2.6,0-5.1,0.1-7.7,0s-5.2-0.2-7.8-0.5s-5-0.4-7.5-0.5c-2.7,0-5.4,0-8.1,0h-8.6
	c-2.7,0-5.4,0-8.1,0s-5.6-0.2-8.3-0.3c-3.1-0.1-6.2-0.1-9.3,0s-6.4,0.2-9.6,0.3c-1.6,0-3.1,0.1-4.7,0.1s-3.4-0.1-5.1-0.1
	s-3.5-0.2-5.2-0.4s-3.3-0.2-4.9-0.3c-5.7-0.2-11.4-0.1-17.1,0.4c-3.4,0.4-6.7,0.9-10.1,1.2c-1.6,0.1-3.3,0.1-5,0.2l-4.7,0.1H11.3
	c-1.6,0-3.3,0.1-4.9,0.1H5.8C5.8,343.4,5.8,342.8,5.7,342.2z"/>
<path d="M253.3,164.6c0-0.3,0.2-0.5,0.5-0.5s0.5,0.2,0.5,0.5s-0.2,0.5-0.5,0.5S253.3,164.9,253.3,164.6z"/>
<path class="st0" d="M10.1,339.5l-0.1-0.4v-0.2c-0.1-1.2-0.1-2.4-0.1-3.5s-0.1-2-0.1-3v-0.8v-1v-0.1v-1c-0.1-2-0.2-4-0.2-6
	c-0.1-2.8-0.1-5.6-0.2-8.3v-1v-0.4v-1.7c-0.3-4.3-0.5-9-0.6-12.1v-0.5V299c-0.1-3-0.3-6.1-0.4-9.2l-0.1-3v-0.1V286v-0.2
	c-0.1-2.5-0.1-5-0.2-7.5v-1.4c0-2.6-0.1-6.1-0.2-9.6c-0.1-2-0.2-4.1-0.3-6.1c0-0.7-0.1-1.3-0.1-2L7.2,258c0-0.3,0-0.6,0-0.8
	c0-0.1,0-0.3,0-0.4c0-0.2,0-0.4,0-0.6v-0.2c0-0.3,0-0.7-0.1-1L7,254.3c0-0.1,0-0.2,0-0.3v-0.2c0-0.1,0-0.2,0-0.3l-0.1-2.1l-0.1-1.4
	l-0.2-3.4c-0.1-2-0.2-4.1-0.3-6.1C6.1,238.8,6,237,6,235.1v-0.6c0-1.7-0.1-3.4-0.1-5.1c-0.2-4.5-0.3-7.9-0.3-11.1
	c-0.2-8.4-0.3-15.8-0.4-23.3c0-3.1-0.1-6.4-0.3-11.2v-0.1c-0.1-3.9-0.2-8-0.3-12c-0.1-6.9-0.1-14.4-0.1-23.5c0-6.3,0-12.7,0-19V129
	c0-6.9,0-13.8,0-20.7v-6.9c0-2.3,0-4.4,0.1-6.6v-1.5c0-1.2,0-2.3,0-3.5c0-3.7,0-7.4,0-11c0-7,0-15.3,0.2-23.4
	c0.1-7.2,0.3-15.6,0.4-24c0-2.8,0.1-5.5,0.1-8.3c0-1.5,0-3,0-4.5l0.1-0.1c1.5-0.2,3.2-0.5,4.9-0.8l2.2-0.4l0.3,0h0.2
	c2.1-0.4,4.4-0.8,6.7-1.1c2.1-0.3,4.5-0.5,7.1-0.7l4.4-0.2L32,15c1.4-0.1,2.8-0.1,4.2-0.2c2.9-0.2,5.9-0.4,8.8-0.6h0.3h0.1h0.2h0.1
	h0.2h0.2h0.2h0.6h0.4L48,14h0.4c0-0.1,0-0.2,0.1-0.2c0.1,0,0.1,0.1,0.1,0.1h0.3l2.2-0.1c2.8-0.2,5.6-0.3,8.4-0.4h0.1h0.7h0.2
	c2.1-0.1,4.2-0.2,6.3-0.3s3.9-0.3,5.7-0.5h0.2l1.9-0.2c2.3-0.2,4.7-0.4,7.5-0.6c4.1-0.3,7.1-0.4,10-0.6c3.1-0.1,6.2-0.3,9.3-0.5h0.1
	h0.2c0.3,0,0.5,0,0.7,0h0.2h0.1h0.1c0.1,0,0.2,0,0.3,0h0.4h0.1c0.7,0,1.3-0.1,2-0.1c1-0.1,2-0.2,3-0.2l1-0.1l4.1-0.3
	c3-0.2,5.1-0.3,7.2-0.3h0.7c2.7-0.1,5.8-0.1,8.7-0.3l4.8-0.3h0.6l1.8-0.1h0.3h0.6h0.2l0.4-0.1c0.4,0,0.7,0,1-0.1h0.1h0.1h0.5h0.6
	l1.2-0.1c4.5-0.3,9.4-0.4,15.4-0.5c5.2-0.1,10.3-0.4,15-0.7c4.1-0.3,8.9-0.6,13.5-0.7h1.5c1.8,0,3.5-0.1,5.3-0.1
	c2.1-0.1,4.4-0.2,6.7-0.3c6.6-0.4,13.1-0.5,18.7-0.5h2.9c2.1,0,4.1,0,6.2,0c3.2,0,6.2-0.2,8.9-0.4h0.5c2.7-0.2,5.8-0.4,8.8-0.4
	c1.7,0,3.5-0.1,5.2-0.1h0.2l0.1,0.1c0.1,2,0.1,4,0.2,6c0,3.1,0,6.2,0,9.4c0,2.5,0,5.1,0,7.8c0,2.4-0.1,4.7-0.1,7.1
	c-0.1,8.8-0.2,17.4-0.2,25.3c0,1.7,0,3.4,0,5.2v1.3c0,2.2,0,4.3,0,6.4v6.8c0,1.9,0,3.8,0,5.7c0,5.6,0.1,11.9,0.1,18.5
	c0,2.2,0,4.4,0,6.6v12.2c0,3.9,0,8.2,0.1,12.8c0.1,4.2,0.2,8.4,0.3,12.6c0,1.9,0.1,3.8,0.1,5.7v1.3v0.2v1.4l0.1,3.7
	c0,1.7,0.1,3.5,0.1,5.2v0.9c0,2.1,0,4.3,0.1,6.4c0.1,4.1,0.2,8.3,0.3,12.4c0,3.9,0.1,8.1,0.4,12.6s0.4,8.6,0.5,12.6l0.1,2.8
	c0.1,2.7,0.2,6.2,0.3,9.6l0.1,3.2c0.1,3,0.2,6,0.4,8.9c0.2,4.2,0.4,8.3,0.6,12.5l0.1,1.5c0.1,1.4,0.2,2.9,0.2,4.3
	c0.1,2.2,0.1,4.5,0.2,6.7c0,1.2,0,2.4,0.1,3.5v1.2v0.2c0.1,2.4,0.1,4.8,0.2,7.1c0,1.8,0,3.6,0.1,5.4c0,2.3,0,4.6,0.1,6.9
	c0,4,0.2,8.1,0.4,12.2c0.1,1.8,0.1,3.6,0.2,5.4v0.8v0.8v0.6l0.1,1.2l0.2,3.1c0.2,4.3,0.3,8.2,0.5,12.2c0.1,1.5,0.1,2.9,0.2,4.4v0.7
	v0.7v0.7v0.9v0.8c0,1.4,0.1,2.7,0.2,4.1v0.2l0.2,4.2v0.1l0,0H257h-1.8h-3.2h-1.3c-1.7,0-3.4,0-5.1,0c-3.2,0-6.5,0.2-9.2,0.4
	l-1.1,0.1c-1.6,0.1-3.1,0.1-4.9,0.1c-1.1,0-2.2,0-3.3,0h-1.6h-1.1c-1,0-2.1,0-3.2,0h-1.5c-1.2,0-2.5,0.1-3.8,0.1h-0.4
	c-1.2,0-2.4,0-3.6-0.1c-1.7,0-3.2-0.1-4.8-0.1h-2c-2.5,0.1-5.3,0.3-7.1,0.4l-3.1,0.2c-3.3,0.2-6.6,0.3-10.3,0.4h-2.8
	c-2.4,0-4.9,0-7.3-0.1c-1.9,0-3.8-0.1-5.7-0.1c-1.4,0-2.9,0-4.3,0c-2.7,0-5.4,0.1-8.1,0.1h-7.9c-1.5,0-3,0-4.4,0
	c-1.9-0.1-3.4-0.2-5-0.3l-1.4-0.1c-1-0.1-2.1-0.2-3.1-0.3c-2.2-0.1-3.8-0.2-5.2-0.2h-3.8h-1.3h-15.1c-1.5,0-3,0-4.6,0h-0.8l-2.3-0.1
	c-1.8-0.1-3.6-0.2-5.3-0.2c-1.3,0-2.6-0.1-3.8-0.1c-1.5,0-2.9,0-4.4,0.1c-1.7,0-3.4,0.1-5.2,0.2h-0.6h-0.3c-3,0.1-6.2,0.2-9.3,0.2
	h-1.1c-1.8-0.1-3.7-0.2-5.5-0.3h-0.3h-0.7l-3.6-0.2c-3.3-0.2-6.6-0.2-9.6-0.2c-3.7,0-6.9,0.1-9.6,0.4c-2,0.2-4,0.4-5.8,0.7H36
	l-0.8,0.1l-2.7,0.3c-2.5,0.2-5,0.3-7.1,0.3h-1.6h-0.1c-2.3,0-4.6,0.1-6.9,0.1h-2.3h-4.4L10.1,339.5z"/>
<path d="M37.4,73.4c-0.2-1.4-0.3-2.8-0.5-4.2s-0.3-2.9-0.5-4.3s-0.4-3-0.6-4.6c-0.1-0.7-0.2-1.5-0.3-2.2s-0.1-1.2-0.2-1.8
	c0-0.6,0-1.3,0.1-1.9c0-0.9,0.8-1.6,1.7-1.5s1.6,0.8,1.5,1.7c0,0.6-0.1,1.1-0.1,1.7c0.1,1.5,0.3,3,0.5,4.5s0.3,2.7,0.5,4.1
	s0.4,2.9,0.5,4.4s0.3,2.6,0.5,3.9c0.1,0.9-0.6,1.7-1.4,1.7c0,0,0,0,0,0H39C38.2,74.8,37.5,74.2,37.4,73.4z"/>
<path d="M37.5,63.9c-0.2-0.9,0.3-1.7,1.2-1.9c0.9-0.2,1.7-0.4,2.6-0.7c1.3-0.4,2.7-1,4-1.5c0.4-0.2,0.8-0.4,1.2-0.7l0.7-0.4l0.3-0.3
	c0.1-0.2,0.3-0.3,0.4-0.5s0.3-0.4,0.4-0.7l0.1-0.2c0-0.1,0.1-0.2,0.1-0.3c0-0.1,0-0.2,0-0.3v-0.2c0-0.1,0-0.1,0-0.2v-0.1
	c0,0,0-0.1,0-0.1c-0.1-0.1-0.1-0.2-0.2-0.3c0,0.1,0.1,0.1,0.1,0.2c-0.1-0.1-0.1-0.2-0.2-0.3h0h0l-0.1-0.1l0,0.1l-0.1-0.1
	c0,0,0.1,0.1,0.1,0.1l0.1,0.1l-0.2-0.2L48,55l-0.5-0.3c-0.2-0.1-0.4-0.2-0.6-0.2s-0.7-0.2-1-0.3c-0.9-0.2-1.9-0.3-2.8-0.5
	c-0.7-0.1-1.3-0.1-1.9-0.1s-1.2,0-1.8,0l-1.3,0.1c-0.4,0-0.8,0.1-1.2,0.2l-1.2,0.3c-0.4,0.1-0.7,0.2-1.1,0.3
	c-1.9,0.7-3.8,1.5-5.7,2.3c-0.8,0.3-1.8-0.1-2.1-0.9c0,0,0,0,0,0C26.6,55,27,54,27.8,53.7c1.6-0.7,3.2-1.5,4.9-2
	c0.8-0.3,1.7-0.6,2.5-0.8c0.4-0.1,0.9-0.2,1.3-0.3s0.9-0.2,1.3-0.2s1-0.1,1.5-0.1h1.4c0.9,0,1.7,0.1,2.6,0.2
	c0.9,0.1,1.7,0.2,2.5,0.4c1.3,0.2,2.6,0.7,3.7,1.4c1.2,0.7,2,2,2.2,3.4c0.1,1.4-0.3,2.8-1.1,3.9c-0.4,0.6-0.9,1.2-1.5,1.7
	c-0.6,0.5-1.3,0.9-1.9,1.2c-2.5,1.2-5.1,2.1-7.8,2.7c-0.1,0-0.2,0-0.4,0C38.4,65.1,37.7,64.6,37.5,63.9z"/>
<path d="M46.2,73c-0.3-0.6-0.6-1.1-0.9-1.7c-0.9-1.4-1.9-2.8-3-4.2c-0.3-0.4-0.7-0.7-1-1.1s-0.5-0.5-0.8-0.7
	c-0.7-0.5-1.5-0.9-2.2-1.4c-0.8-0.5-1-1.4-0.6-2.2s1.4-1,2.2-0.6c0,0,0,0,0.1,0c1.1,0.6,2.2,1.3,3.2,2.1c1,0.9,1.8,1.8,2.6,2.9
	c1.3,1.6,2.4,3.3,3.4,5.1c0.4,0.8,0.1,1.7-0.6,2.2c-0.2,0.1-0.5,0.2-0.8,0.2C47.1,73.9,46.5,73.5,46.2,73z"/>
<path d="M51.3,71.6c-0.8-0.7-1.3-1.7-1.5-2.7c-0.2-1.1,0-2.2,0.4-3.1c0.5-1,1.1-1.8,2-2.5c0.8-0.6,1.6-1,2.6-1.2
	c0.9-0.2,1.8-0.2,2.7-0.1c0.8,0.1,1.5,0.5,2,1.1c0.5,0.7,0.5,1.6,0,2.3c-1,1.3-2.4,2.2-4,2.6c-0.7,0.1-1.4,0.2-2.1,0.3
	c-0.1,0-0.3,0-0.5,0l0,0c0,0.1,0,0.1,0,0.2c0,0.1,0,0.1,0.1,0.2l0.1,0.2c0,0.1,0.1,0.1,0.2,0.2l0.2,0.2c0.1,0.1,0.2,0.2,0.3,0.3
	l0.4,0.2l0.4,0.2l0.6,0.2l0.8,0.1c0.3,0,0.5,0,0.8,0c0.4,0,0.7,0,1.1-0.1s0.5-0.1,0.7-0.2c0.4-0.1,0.8-0.3,1.2-0.5
	c0.8-0.3,1.7,0.1,2.1,0.9c0.3,0.8-0.1,1.7-0.9,2.1c-0.6,0.3-1.3,0.5-2,0.7c-0.8,0.2-1.6,0.2-2.4,0.2C54.6,73.7,52.8,73,51.3,71.6z"
	/>
<path d="M67.9,72.9c-1.9-0.3-3.6-1.6-4.4-3.4c-0.5-1.2-0.8-2.4-0.9-3.6c-0.1-1.4,0-2.8,0.2-4.2c0.2-0.9,1-1.5,1.9-1.3
	c0.9,0.2,1.5,1,1.3,1.9c-0.1,0.5-0.1,1-0.2,1.4c-0.1,0.4,0,1,0,1.5s0.1,0.9,0.1,1.3c0,0.3,0.1,0.6,0.2,0.8s0.2,0.6,0.4,0.9
	c0,0.1,0.1,0.2,0.1,0.3c0.1,0.1,0.1,0.2,0.2,0.2c0.1,0.1,0.1,0.2,0.2,0.2c0.1,0.1,0.2,0.2,0.3,0.3l0.3,0.2l0.3,0.1l0.3,0.1
	c0.2,0,0.4,0.1,0.6,0.1s0.4,0,0.7,0h0.3H70H70h0.1l0.2-0.1l0.1-0.1C71,69,72,69,72.6,69.6c0.6,0.6,0.6,1.7-0.1,2.3
	c-0.4,0.3-0.8,0.6-1.2,0.8c-0.4,0.2-0.9,0.3-1.4,0.3c-0.2,0-0.4,0-0.6,0C68.8,73,68.4,73,67.9,72.9z"/>
<path d="M75.9,74.1c-1.1-0.3-2.1-0.8-2.9-1.5c-0.8-0.8-1.4-1.7-1.7-2.8c-0.2-0.9-0.4-1.7-0.6-2.6c-0.3-1.8-0.4-3.7-0.5-5.5
	c-0.1-0.9,0.6-1.7,1.4-1.7c0.9-0.1,1.7,0.6,1.7,1.4c0.1,1.8,0.2,3.5,0.5,5.2c0.1,0.8,0.3,1.6,0.5,2.3c0.1,0.2,0.2,0.4,0.2,0.6
	s0.1,0.2,0.2,0.3c0.1,0.1,0.1,0.2,0.2,0.2l0.2,0.2l0.3,0.2c0.2,0.1,0.3,0.2,0.5,0.3l-0.2-0.1c0.1,0.1,0.2,0.1,0.4,0.2l0.7,0.2
	c0.8,0.3,1.3,1.2,1,2c-0.2,0.7-0.8,1.1-1.5,1.1C76.2,74.2,76,74.2,75.9,74.1z"/>
<path d="M85.4,75.6c-0.9,0-1.6-0.8-1.5-1.7c0-0.1,0-0.2,0-0.2c0-0.8-0.1-1.5-0.2-2.3s-0.2-1.7-0.2-2.5c-0.2-1.7-0.4-3.4-0.6-5
	s-0.4-3.4-0.7-5.1s-0.5-3.2-0.7-4.8c-0.1-0.9-0.2-1.8-0.3-2.8c-0.1-0.9,0.6-1.7,1.4-1.8c0.9-0.1,1.7,0.6,1.8,1.4
	c0.3,3.5,0.9,7,1.3,10.4c0.4,3.3,0.8,6.5,1.1,9.8c0.1,0.5,0.1,1,0.2,1.6c0.1,0.5,0.1,1,0.1,1.4C87,74.9,86.3,75.6,85.4,75.6
	L85.4,75.6z"/>
<path d="M84.8,64.7c-2,0-3.9,0-5.9-0.1c-0.9,0-1.6-0.8-1.5-1.7c0-0.9,0.8-1.6,1.7-1.5c1.6,0,3.3,0.1,4.9,0.1s3,0,4.4,0l0,0l2.3-0.1
	c0.9-0.1,1.7,0.6,1.8,1.4c0.1,0.9-0.6,1.6-1.5,1.7c-1.9,0.1-3.9,0.2-5.8,0.2H84.8z"/>
<path d="M96,73.6c-1-0.2-2-0.6-2.8-1.3c-0.7-0.5-1.2-1.2-1.6-2c-0.4-0.8-0.7-1.8-0.7-2.7c0-1.9,0.6-3.7,1.7-5.2
	c1-1.7,2.6-2.8,4.5-3.2c0.8-0.1,1.6,0,2.3,0.4c0.8,0.4,1.3,1.1,1.4,2c0.1,0.8-0.1,1.6-0.6,2.2c-0.5,0.7-1.2,1.3-2,1.7
	c-0.6,0.3-1.2,0.6-1.8,0.9c-0.5,0.2-1.1,0.4-1.7,0.5c-0.2,0.1-0.5,0.1-0.7,0c0,0.2,0,0.3,0,0.4c0,0.2,0,0.3,0.1,0.5
	c0,0.2,0.1,0.3,0.1,0.5s0.1,0.3,0.2,0.5c0.1,0.1,0.1,0.2,0.2,0.3c0.1,0.1,0.2,0.3,0.3,0.4l0.2,0.2c0.1,0.1,0.2,0.2,0.3,0.2h-0.1h0.1
	l0.2,0.2l0.3,0.2l0.7,0.2c0.3,0.1,0.6,0.1,1,0.2c0.3,0,0.7,0,1,0c0.3,0,0.6,0,0.9-0.1c0.2,0,0.5-0.1,0.7-0.2
	c0.4-0.1,0.8-0.3,1.2-0.5l0,0l0,0l0,0l0.2-0.1c0.8-0.4,1.8-0.1,2.2,0.6c0.4,0.8,0.1,1.8-0.6,2.2l0,0c-0.5,0.2-1,0.5-1.6,0.7
	c-0.9,0.3-1.8,0.5-2.8,0.6h-0.5C97.5,73.8,96.8,73.7,96,73.6z"/>
<path d="M106.4,71c-0.4-0.2-0.7-0.5-0.8-0.9c-0.1-0.2-0.1-0.4-0.2-0.6c-0.1-0.5-0.2-1-0.2-1.4c-0.1-0.9-0.3-1.8-0.4-2.7
	c-0.3-2-0.5-4-0.9-6c-0.1-0.9,0.5-1.7,1.4-1.8s1.7,0.5,1.8,1.4c0.7-0.7,1.6-1.2,2.6-1.4c0.8-0.2,1.6-0.3,2.4-0.3c0.6,0,1.2,0,1.9,0
	c0.9,0,1.6,0.8,1.5,1.7c0,0.9-0.8,1.6-1.7,1.5h-1.3c-0.6,0-1.2,0.1-1.8,0.2c-0.2,0-0.4,0.1-0.6,0.1l-0.4,0.2l-0.2,0.1l-0.2,0.2
	l-0.2,0.2l-0.2,0.2c-0.1,0.1-0.2,0.3-0.3,0.5l0.1-0.2c-0.1,0.1-0.1,0.2-0.2,0.3c-0.1,0.2-0.2,0.5-0.2,0.7c0,0.2-0.1,0.5-0.1,0.7
	c0,0.4-0.1,0.9-0.1,1.3c0,0.8,0.1,1.7,0.2,2.5c0,0.4,0.1,0.9,0.2,1.3c0.1,0.6,0,1.1-0.1,1.7c-0.3,0.6-0.8,0.9-1.5,0.9
	C106.8,71.2,106.6,71.1,106.4,71z"/>
<path d="M116.9,72.9c-0.8-0.4-1.2-1.3-0.8-2.1c0.4-0.8,1.3-1.1,2.1-0.8l0.3,0.2l1.2,0.4c0.4,0.1,0.8,0.2,1.3,0.2h0.9
	c0.3,0,0.7-0.1,1-0.1l0.7-0.1l0.6-0.2l0.2-0.1l-0.1,0.1l0,0c0.1,0,0.2-0.1,0.2-0.2l0.2-0.2l0.1-0.1v-0.1c0,0,0-0.1,0-0.1
	c0-0.1,0.1-0.2,0.1-0.2c0-0.1,0.1-0.3,0.1-0.4c0-0.1,0-0.3,0-0.4s0-0.4-0.1-0.6s-0.1-0.5-0.2-0.7s-0.1-0.3-0.2-0.5s-0.1-0.2-0.1-0.3
	l-0.1-0.2l-0.3-0.3l-0.2-0.2l-0.3-0.2l-0.3-0.1l-0.4-0.1c-0.4-0.1-0.8-0.1-1.2-0.2h0.2c-1-0.1-2-0.2-3-0.3c-0.5-0.1-0.9-0.2-1.4-0.4
	c-0.5-0.3-0.9-0.6-1.2-1.1c-0.3-0.5-0.5-1.1-0.5-1.7c0-0.6,0.2-1.3,0.5-1.8c0.9-1.7,2.5-2.9,4.3-3.3c0.9-0.2,1.8-0.1,2.7,0.1
	c0.8,0.2,1.6,0.5,2.4,0.9c0.8,0.4,1.2,1.3,0.8,2.1c-0.4,0.8-1.3,1.1-2.1,0.8l-0.9-0.4c-0.2-0.1-0.5-0.2-0.8-0.2
	c-0.3-0.1-0.6-0.1-0.9-0.2h-0.3l-0.3,0.1l-0.4,0.2l-0.4,0.2l-0.3,0.2l-0.2,0.2l-0.3,0.3l-0.2,0.3l-0.1,0.2c0,0,0,0.1,0,0.1h0.1
	l0.3,0.1c0.4,0.1,0.8,0.1,1.2,0.2h-0.2c1.7,0,3.3,0.3,4.9,1c0.7,0.4,1.3,0.9,1.8,1.6c1.4,2.1,1.6,4.7,0.5,7
	c-0.4,0.7-0.9,1.2-1.6,1.6c-0.4,0.2-0.9,0.4-1.4,0.6c-0.9,0.3-1.9,0.4-2.8,0.4h-0.1C120,74,118.4,73.6,116.9,72.9z"/>
<path d="M147.7,70.7c-0.2-2.8-0.5-5.6-0.8-8.4s-0.6-5.4-0.9-8c-0.1-0.8-0.3-1.7-0.4-2.5s-0.4-1.8-0.7-2.6c-0.2-0.9,0.3-1.7,1.2-1.9
	c0.9-0.2,1.7,0.3,1.9,1.2l0,0c0.2,0.9,0.5,1.8,0.6,2.6s0.3,1.7,0.5,2.6c0.3,1.7,0.5,3.4,0.6,5.2c0.4,3.5,0.7,6.9,1,10.4
	c0,0.4,0.1,0.8,0.1,1.2c0.1,0.9-0.6,1.7-1.4,1.8h-0.1C148.5,72.2,147.8,71.5,147.7,70.7z"/>
<path d="M156.8,69.4c-0.8-1.1-1.6-2.2-2.5-3.3c-0.3-0.4-0.7-0.8-1.1-1.2s-0.8-0.9-1.3-1.3s-0.9-0.8-1.4-1.2
	c-0.2-0.2-0.4-0.3-0.7-0.4s-0.6-0.3-1-0.4h-0.1c-0.4,0-0.9-0.2-1.2-0.4c-0.7-0.6-0.8-1.6-0.2-2.3c0.3-0.3,0.7-0.5,1.1-0.6
	c0.2,0,0.5,0,0.7,0l0.4,0c0.5-0.1,0.9-0.2,1.4-0.3c0.3-0.1,0.5-0.2,0.8-0.3s0.6-0.3,0.8-0.4l0.7-0.5c0.1-0.1,0.3-0.3,0.4-0.4
	s0.3-0.3,0.4-0.5l0.4-0.7c0.1-0.2,0.2-0.5,0.3-0.7s0.1-0.5,0.2-0.7c0.1-0.4,0.2-0.8,0.2-1.2c0-0.3,0-0.5,0-0.8c0-0.1,0-0.2,0-0.3
	c0-0.2-0.1-0.3-0.1-0.5c0-0.1-0.1-0.2-0.1-0.2c-0.1-0.1-0.1-0.3-0.2-0.4s-0.2-0.2-0.3-0.4l-0.4-0.4c-0.2-0.2-0.4-0.3-0.6-0.5
	c-0.2-0.1-0.4-0.3-0.6-0.4s-0.5-0.2-0.8-0.3c-0.3-0.1-0.6-0.2-0.8-0.3c-0.4-0.1-0.8-0.2-1.1-0.2c-0.3,0-0.7,0-1,0s-0.7,0-1,0.1
	s-0.6,0.1-0.9,0.2s-0.6,0.2-0.9,0.3s-0.6,0.3-0.9,0.5s-0.6,0.4-0.9,0.6s-0.5,0.4-0.7,0.6c-0.5,0.5-0.9,1.1-1.4,1.7
	c-0.6,0.6-1.6,0.6-2.3,0c-0.6-0.5-0.6-1.4-0.2-2c0.7-0.9,1.4-1.7,2.2-2.5c1.5-1.4,3.4-2.3,5.4-2.6c2.1-0.3,4.2,0,6.1,0.8
	c1.8,0.8,3.3,2.2,4.1,4c0.6,1.7,0.6,3.6,0.1,5.3c-0.5,1.8-1.6,3.4-3.1,4.6c-0.5,0.4-1.2,0.8-1.8,1.1c0.7,0.6,1.4,1.3,2.1,2
	c1.4,1.6,2.8,3.3,4,5c0.5,0.7,0.4,1.7-0.4,2.2c-0.3,0.2-0.6,0.3-0.9,0.3C157.6,70.1,157.1,69.8,156.8,69.4z"/>
<path d="M164.8,72.5c-1.3-0.4-2.4-1-3.4-1.9c-0.3-0.3-0.6-0.6-0.9-1c-0.3-0.4-0.5-0.9-0.6-1.3c-0.2-0.4-0.3-0.9-0.4-1.4
	c0-0.5,0-0.9,0.1-1.4c0.2-0.8,0.6-1.6,1.1-2.3c0.3-0.4,0.6-0.7,1-0.9c0.4-0.3,0.8-0.5,1.3-0.7c0.9-0.4,1.8-0.5,2.7-0.5
	c0.5,0,0.9,0.1,1.3,0.2c0.4,0.1,0.8,0.4,1.1,0.7c0.6,0.6,0.9,1.5,0.6,2.3c-0.3,0.8-0.8,1.5-1.6,2c-0.8,0.5-1.7,0.8-2.7,0.9
	c-0.5,0.1-1,0.1-1.5,0.1c0,0.1,0,0.1,0.1,0.2l0.1,0.2c0,0.1,0.1,0.1,0.1,0.2l0.3,0.3c0.1,0.1,0.2,0.2,0.4,0.3s0.4,0.3,0.6,0.4
	s0.5,0.3,0.8,0.4l0.4,0.1h-0.2l0.5,0.1h0.5c0.2,0,0.4,0,0.7-0.1c0.2-0.1,0.5-0.1,0.7-0.2c0.4-0.1,0.8-0.3,1.2-0.5s1-0.6,1.5-0.9
	c0.8-0.4,1.8-0.1,2.2,0.6c0.4,0.8,0.1,1.8-0.6,2.2c-0.7,0.4-1.5,0.8-2.2,1.2c-1.1,0.5-2.3,0.8-3.4,0.8
	C165.9,72.7,165.3,72.6,164.8,72.5z"/>
<path d="M177.1,81.2c-0.3-0.3-0.5-0.7-0.6-1.1c-0.8-4.7-1.3-9.4-2-14.1c-0.1-0.5-0.2-1-0.3-1.4s-0.3-1-0.4-1.5
	c0-0.1-0.1-0.2-0.1-0.3c-0.2-0.4-0.2-0.8,0-1.2c0.2-0.4,0.5-0.7,0.9-0.8c0.8-0.3,1.7,0.1,2.1,0.9c0.2,0.8,0.5,1.5,0.7,2.3
	c0.2,0.8,0.3,1.5,0.4,2.3c0.2,1.5,0.4,3,0.6,4.4c0.4,3.1,0.8,6.1,1.3,9.1c0.1,0.9-0.6,1.7-1.4,1.8h-0.1
	C177.7,81.6,177.4,81.5,177.1,81.2z"/>
<path d="M177.2,70.5c-0.9,0-1.6-0.8-1.5-1.7c0-0.9,0.8-1.6,1.7-1.5c0.3,0,0.7,0,1,0c0.3,0,0.5,0,0.8-0.1l0.6-0.1
	c0.2-0.1,0.4-0.1,0.5-0.2c0.1-0.1,0.2-0.1,0.4-0.2c0.1-0.1,0.3-0.2,0.4-0.3l0.2-0.2c0.1-0.1,0.2-0.2,0.3-0.4l0.2-0.3
	c0.1-0.1,0.1-0.3,0.2-0.4c0-0.1,0.1-0.2,0.1-0.2c0-0.1,0-0.2,0.1-0.3c0-0.1,0-0.2,0-0.3c0-0.2,0-0.4-0.1-0.6c0,0.1,0,0.1,0,0.2
	c0-0.2-0.1-0.4-0.2-0.6c0,0.1,0.1,0.1,0.1,0.2l-0.1-0.4l-0.2-0.5c-0.1-0.1-0.2-0.2-0.2-0.3l-0.2-0.2c-0.1-0.1-0.3-0.2-0.4-0.3
	l-0.2-0.2l-0.4-0.2l-0.5-0.2c-0.2,0-0.4-0.1-0.6-0.1h-0.5h-0.6l-0.5,0.1l-0.5,0.2l-0.5,0.3c-0.2,0.1-0.4,0.2-0.5,0.4
	c-0.5,0.4-1,0.9-1.4,1.4c-0.6,0.6-1.7,0.6-2.3-0.1c-0.6-0.7-0.6-1.7,0.1-2.3c0.6-0.6,1.2-1.2,1.9-1.7c1-0.8,2.2-1.3,3.4-1.4
	c1.3-0.2,2.6,0,3.8,0.4c1.2,0.5,2.2,1.3,3,2.4c0.8,1.1,1.2,2.5,1.1,3.9c-0.1,1.2-0.6,2.4-1.4,3.3c-0.8,1-1.9,1.7-3.2,2
	c-0.8,0.2-1.7,0.3-2.5,0.3C177.7,70.5,177.5,70.5,177.2,70.5z"/>
<path d="M191.6,71.2c-0.9,0-1.7-0.2-2.6-0.5c-0.8-0.4-1.6-1-2.1-1.7c-0.6-0.8-1-1.8-1.1-2.8c-0.1-1,0-2.1,0.4-3
	c0.4-0.8,0.9-1.6,1.6-2.1c0.7-0.7,1.6-1.1,2.5-1.5c0.4-0.1,0.8-0.2,1.2-0.2c0.4-0.5,1.1-0.7,1.7-0.5c0.6,0.2,1.1,0.5,1.7,0.8
	c0.4,0.1,0.8,0.3,1,0.7c1.3,1,2.1,2.4,2.4,3.9c0.3,1.7-0.2,3.5-1.4,4.8c-0.7,0.7-1.6,1.2-2.5,1.6C193.5,70.9,192.6,71.1,191.6,71.2
	L191.6,71.2z M189.3,66.8c0.1,0.1,0.1,0.2,0.2,0.3l0.2,0.2c0.1,0.1,0.2,0.1,0.2,0.2l0.3,0.2l0.3,0.1l0.3,0.1c0.2,0,0.4,0.1,0.5,0.1
	h0.4h0.5l0.7-0.2c0.3-0.1,0.6-0.2,0.8-0.3s0.4-0.2,0.5-0.3c0.1-0.1,0.2-0.1,0.3-0.2l0.2-0.2l-0.1,0.1l0.1-0.1l0,0l0,0l0.2-0.2
	l0.1-0.2c0-0.1,0.1-0.2,0.1-0.2c0,0.1-0.1,0.1-0.1,0.2c0-0.1,0.1-0.2,0.1-0.3s0-0.2,0.1-0.4s0-0.4,0-0.6s0-0.3,0-0.4s0-0.2-0.1-0.2
	S195,64.1,195,64c-0.1-0.2-0.2-0.3-0.2-0.4l0.1,0.2c-0.1-0.1-0.2-0.2-0.3-0.3l-0.3-0.3c-0.1-0.1-0.3-0.2-0.4-0.4l-0.1,0l-1-0.2h-0.6
	l-0.5,0l-0.2,0.1l-0.5,0.2l-0.5,0.3c-0.2,0.1-0.3,0.2-0.5,0.4l-0.2,0.2c-0.1,0.1-0.2,0.3-0.4,0.4l-0.1,0.2l0,0l0,0l0,0
	c-0.1,0.1-0.1,0.2-0.1,0.3c-0.1,0.2-0.1,0.3-0.1,0.5c0-0.1,0-0.1,0-0.2c0,0.2-0.1,0.4-0.1,0.6c0-0.1,0-0.2,0-0.2c0,0.1,0,0.3,0,0.4
	V66c0,0.2,0.1,0.3,0.1,0.5l0,0l0,0l0,0C189.2,66.5,189.2,66.7,189.3,66.8z"/>
<path d="M200.1,67.4c-0.2-0.6-0.3-1.2-0.2-1.8c0-0.1,0-0.2,0-0.3c-0.1-0.3-0.1-0.7-0.1-1c-0.1-0.6-0.2-1.2-0.4-1.7
	c-0.1-0.2-0.1-0.4-0.2-0.6c-0.1-0.2-0.2-0.3-0.3-0.4l0.1,0.2c-0.1-0.2-0.3-0.4-0.4-0.6l-0.2-0.2c-0.6-0.6-0.6-1.7,0.1-2.3
	c0.6-0.6,1.7-0.6,2.3,0.1l0.2,0.3c0.4-0.9,1.1-1.6,2-2.1c1.7-0.6,3.6-0.8,5.4-0.5c0.9,0,1.6,0.8,1.5,1.7c0,0.9-0.8,1.6-1.7,1.5
	c-0.7,0-1.4,0-2.1,0c-0.4,0-0.7,0-1.1,0.1c-0.2,0-0.4,0.1-0.6,0.1l-0.2,0.1l-0.1,0.1H204l0,0c0,0,0,0,0,0.1l-0.1,0.1l-0.1,0.2
	c-0.1,0.2-0.2,0.5-0.2,0.8c-0.1,0.7-0.3,1.3-0.4,2s-0.1,1.4-0.1,2.1c0,0,0,0.1,0,0.1c0.1,0.6,0.1,1.2,0.1,1.8
	c-0.1,0.7-0.7,1.3-1.4,1.3h-0.2C200.9,68.4,200.3,68,200.1,67.4z"/>
<path d="M212.6,68.2c-0.9,0-1.6-0.8-1.6-1.7c0-2.2-0.1-4.4-0.1-6.6l0,0c-0.1-6.5-0.7-12.9-1.6-19.3c-0.1-0.8-0.3-1.6-0.5-2.3
	c-0.2-0.9,0.4-1.8,1.2-2c0.9-0.2,1.8,0.4,1.9,1.2c0.7,3.4,1.1,6.9,1.4,10.4c0.1,1.8,0.3,3.6,0.4,5.3s0.2,3.6,0.2,5.5
	c0.1,2.6,0.1,5.3,0.2,7.9C214.2,67.6,213.5,68.2,212.6,68.2L212.6,68.2z"/>
<path d="M206.5,53.4c-0.2-0.9,0.3-1.7,1.2-1.9c1.3-0.2,2.5-0.4,3.8-0.5c1.1-0.1,2.2-0.1,3.4-0.2h-0.2l2.8-0.1c0.9,0,1.6,0.8,1.6,1.7
	c0,0,0,0,0,0c0,0.4-0.2,0.8-0.5,1.1c-0.3,0.3-0.7,0.4-1.2,0.4h-1.5h0.2h-1.4h0.2c-1.8,0.1-3.6,0.2-5.4,0.4l-1.1,0.2
	c-0.1,0-0.2,0-0.3,0C207.3,54.6,206.7,54.1,206.5,53.4z"/>
<path d="M120.6,101.3c-0.2-0.7,0.3-1.3,0.9-1.5c1.4-0.4,2.8-0.7,4.2-0.9c1.3-0.2,2.6-0.3,3.9-0.4c2.6-0.3,5.2-0.5,7.9-0.8
	c1.9-0.2,3.8-0.3,5.6-0.4s3.8-0.2,5.7-0.2h-0.2h0.4h0.7h1.4l0,0h1.5h-0.1c0.1,0,0.2,0,0.3,0h0.6h0.2c2.6-0.1,5.1-0.1,7.7-0.1
	s5.4-0.1,8.1-0.1h3.1c1.7,0,3.4,0,5,0c1.3,0,2.6,0,4,0h3.9c1.9,0,3.8,0,5.6,0.1c1.7,0.1,3.4,0.1,5.1,0s3.7-0.2,5.5-0.3s3.8,0,5.7,0
	c0.7,0,1.3,0.5,1.3,1.2c0,0.7-0.5,1.3-1.2,1.3c-0.1,0-0.1,0-0.2,0c-1.9,0-3.7-0.1-5.5,0c-1.3,0.1-2.5,0.2-3.8,0.2s-2.8,0.1-4.2,0.1
	s-2.5,0-3.8-0.1s-2.7-0.1-4.1-0.1h-3c-1.7,0-3.4,0-5.1,0c-1.3,0-2.7,0-4,0H170c-2.7,0-5.4,0.1-8.1,0.1s-5.3,0.1-7.9,0.1h-1.3
	l-2.7,0.1h-0.1c-0.2,0-0.3,0-0.5,0l0,0h-0.4l0,0c-2.7,0.1-5.4,0.2-8,0.3s-5.3,0.4-8,0.7s-5,0.4-7.6,0.8c-1.1,0.2-2.2,0.5-3.2,0.8
	c-0.1,0-0.2,0-0.3,0C121.3,102.3,120.8,101.9,120.6,101.3z"/>
<path d="M119.8,111.5c-0.1-0.7,0.4-1.3,1.1-1.4c1.4-0.1,2.9-0.3,4.3-0.5l3.8-0.6c2.7-0.4,5.3-0.8,8-1.1s5.3-0.4,7.9-0.6
	c2.8-0.1,5.6-0.3,8.5-0.4c2.7-0.2,5.3-0.3,8-0.3c2.7,0,5.4-0.1,8.2-0.2h1.4h-0.2l1.5-0.1h1.4c2.7-0.1,5.4-0.2,8.2-0.2s5.4,0,8.1,0.1
	c1.3,0.1,2.7,0.2,4,0.2s2.6,0.1,3.9,0.2s2.7,0.1,4,0.2s2.7,0.2,4,0.3s2.8,0.1,4.1,0.1c0.7,0,1.2,0.6,1.2,1.3c0,0.7-0.6,1.2-1.3,1.2
	c-1.3,0-2.5,0-3.8,0s-2.8-0.2-4.2-0.3s-2.6-0.1-3.8-0.2s-2.7-0.1-4.1-0.2s-2.5-0.1-3.7-0.2s-2.4-0.1-3.7-0.1c-2.5,0-5,0-7.4,0h0.2
	c-1.8,0.1-3.6,0.2-5.5,0.2h-1.1c-0.1,0-0.3,0-0.4,0h0.2c-2.4,0.1-4.8,0.1-7.3,0.2s-4.7,0-7,0.1l0,0c-2.8,0.1-5.5,0.3-8.3,0.4
	s-5.2,0.2-7.9,0.4c-1.4,0.1-2.7,0.2-4.1,0.3s-2.7,0.3-4.1,0.5c-2.7,0.3-5.3,0.8-8,1.2c-1.6,0.3-3.2,0.4-4.8,0.6H121
	C120.3,112.7,119.8,112.1,119.8,111.5z"/>
<path d="M119.9,127.2c-0.1-0.7,0.3-1.3,0.9-1.5c1.1-0.4,2.3-0.7,3.4-0.9c1.2-0.2,2.5-0.4,3.8-0.5c2.4-0.3,4.7-0.2,7.1-0.3
	c2.1-0.1,4.2-0.2,6.2-0.3h-0.2h1.4l0,0c1.3,0,2.6-0.1,3.9-0.1l0,0c2.8-0.1,5.5-0.3,8.3-0.4c1.3-0.1,2.7-0.1,4-0.2s2.6-0.2,3.9-0.3
	c2.6-0.2,5.2-0.3,7.8-0.5s5.5-0.4,8.2-0.5c0.8,0,1.5,0,2.3,0h1.3h3.8c2.4-0.1,4.8-0.2,7.2-0.3s4.8,0,7.3-0.1h-0.1
	c1.4-0.1,2.9-0.2,4.3-0.2c0.7-0.1,1.3,0.4,1.4,1.1c0.1,0.7-0.4,1.3-1.1,1.4c-2.2,0.1-4.4,0.2-6.6,0.3H195c-1.2,0-2.3,0-3.5,0.1h0.2
	c-2.3,0.1-4.6,0.2-7,0.2h-2.9c-1.3,0-2.6,0-3.9,0c-2.7,0.1-5.3,0.3-8,0.5c-1.3,0.1-2.7,0.2-4,0.2s-2.7,0.2-4,0.3
	c-2.7,0.2-5.3,0.3-8,0.4s-5.5,0.3-8.2,0.4l-2.9,0.1h-0.1h-1.3h0.2c-1.7,0.1-3.4,0.2-5.1,0.2s-3.6,0.1-5.4,0.1
	c-1.9,0.1-3.7,0.3-5.6,0.6c-0.6,0.1-1.2,0.2-1.8,0.4c-0.7,0.2-1.5,0.4-2.2,0.6c-0.1,0-0.2,0-0.3,0
	C120.6,128.1,120.1,127.7,119.9,127.2z"/>
<path d="M118.6,140.6c-0.1-0.7,0.4-1.3,1.1-1.4c2.7-0.3,5.4-0.5,8.1-0.9c2.7-0.4,5.3-0.6,8-0.9c1.3-0.1,2.6-0.3,3.9-0.5
	s2.8-0.3,4.1-0.4c2.7-0.3,5.4-0.5,8.1-0.7c2.7-0.2,5.4-0.4,8.1-0.6s5.4-0.4,8.1-0.6s5.5-0.3,8.2-0.3s5.4,0,8.2,0s5.2,0,7.9,0
	s5.3,0.2,8,0.2c1.1,0,2.3,0,3.4,0.1c1.1,0.1,2.2,0.1,3.3,0.2c2.1,0.1,4.2,0.4,6.3,0.3c0.3,0,0.6,0,0.8-0.1c0.7-0.1,1.3,0.4,1.4,1.1
	s-0.4,1.3-1.1,1.4l0,0c-1.3,0.1-2.6,0.1-3.9,0c-1.3-0.1-2.7-0.2-4-0.2s-2.5-0.1-3.8-0.2l-4.1-0.1c-1.3,0-2.6-0.1-3.9-0.1l-4.1-0.1
	c-1.4,0-2.8,0-4.3,0c-1.2,0-2.4,0-3.7,0c-2.6,0-5.2-0.1-7.8,0l0,0c-2.6,0.1-5.3,0.2-7.9,0.4s-5.5,0.4-8.3,0.6s-5.5,0.4-8.2,0.6
	s-5.4,0.5-8.1,0.8s-5.3,0.7-8,1l-4,0.4c-1.3,0.1-2.7,0.3-4,0.5c-1,0.1-2.1,0.2-3.1,0.3l-3.6,0.3h-0.1
	C119.2,141.7,118.7,141.2,118.6,140.6z"/>
<path d="M62.5,149.1c-2.2,0-4.5,0-6.8-0.1s-4.5-0.4-6.8-0.6h0.2l-1.5-0.2h0.2c-1.3-0.1-2.7-0.3-4-0.6c-1.4-0.3-2.8-0.7-4.1-1.3
	c-0.6-0.3-1.2-0.7-1.7-1.2c-0.4-0.5-0.6-1-0.7-1.6c-0.1-0.6-0.1-1.3-0.2-1.9c-0.1-1.3-0.2-2.6-0.2-3.9c0-1.8,0-3.5-0.1-5.3
	c0,0.1,0,0.1,0,0.2c0-1.3-0.1-2.6-0.1-3.9s-0.1-2.7,0-4.1s0.2-2.7,0.2-4s0.2-2.7,0.2-4c0.1-2.6,0.2-5.2,0.2-7.8c0-1.3,0-2.6,0.1-3.9
	c0.1-1.4,0.2-2.8,0.4-4.2c0.1-0.7,0.7-1.2,1.4-1.1c0.7,0.1,1.2,0.7,1.1,1.4c0,0,0,0.1,0,0.1c-0.1,0.7-0.2,1.3-0.3,2
	c0-0.1,0-0.1,0-0.2c-0.2,2.7-0.2,5.3-0.3,8s-0.1,5.6-0.3,8.3c-0.1,1.7-0.2,3.4-0.3,5.1s0,3.3,0,5l0,0c0,1.4,0.1,2.8,0.1,4.2
	s0,2.8,0,4.2c0,0.9,0.1,1.8,0.1,2.7s0.1,1.7,0.2,2.6c0,0.1,0.1,0.3,0.1,0.4c0,0,0,0,0,0.1l0,0l0.1,0.1l0.3,0.2l0.4,0.2
	c0.3,0.2,0.6,0.3,0.9,0.4c0.8,0.3,1.5,0.5,2.3,0.7c1.2,0.3,2.5,0.4,3.8,0.6l0,0h0.2l0.8,0.1h0.4h0.3h-0.1l1.5,0.2l1.5,0.2
	c1.1,0.1,2.5,0.2,3.8,0.3c0.7,0,1.3,0,2,0.1l0,0c0.6,0,1.2,0,1.8,0c2,0,4,0,6.1,0l0,0c0.6,0,1.2,0,1.9,0h0.8
	c1.5-0.1,2.9-0.1,4.4-0.2H73c0.2,0,0.4,0,0.6-0.1c1.5-0.1,3-0.3,4.5-0.5l0.8-0.1l0,0h0.1l0,0c0.8-0.1,1.5-0.2,2.3-0.3l0,0
	c1.3-0.2,2.6-0.3,3.9-0.4h0.2l0.8-0.1l2.3-0.2h0.4l0,0c0.9-0.1,1.8-0.1,2.8-0.2c0.7-0.1,1.3,0.4,1.4,1.1c0.1,0.7-0.4,1.3-1.1,1.4
	l0,0c-1,0.1-2,0.1-3,0.2l-3.3,0.3c-2.1,0.2-4.1,0.4-6.2,0.8l0,0l-1,0.2h0.1c-2.7,0.4-5.4,0.6-8.1,0.7c-2.3,0.1-4.6,0.2-6.9,0.2
	L62.5,149.1z"/>
<path d="M45.3,147c-0.2-1.3-0.3-2.7-0.5-4s-0.4-2.6-0.5-3.9l-0.2-2l-0.1-0.9c-0.1-0.6,0-1.1,0.3-1.6c0.2-0.3,0.5-0.5,0.8-0.7
	c0.3-0.1,0.6-0.2,0.9-0.3c0.4-0.1,0.7-0.2,1.1-0.2c0.7-0.1,1.3-0.1,2-0.1c1.3,0,2.6,0.1,3.8,0.2s2.5,0.1,3.8,0.2
	c0.6,0,1.2,0.3,1.7,0.7c0.4,0.5,0.7,1.2,0.8,1.8c0.2,0.7,0.3,1.3,0.4,2c0.2,1.3,0.3,2.6,0.5,3.9s0.3,2.7,0.5,4.1l0,0
	c0.3,0.6,0.1,1.4-0.5,1.7c-0.6,0.3-1.4,0.1-1.7-0.5c-0.1-0.3-0.2-0.5-0.3-0.8l0,0c0-0.1,0-0.2,0-0.3V146v-0.2c0-0.3-0.1-0.6-0.1-0.9
	c-0.1-0.5-0.1-1.1-0.2-1.6l0-0.5c-0.2-1.6-0.3-3.1-0.5-4.6c-0.1-0.6-0.2-1.2-0.4-1.7c0-0.2-0.1-0.3-0.2-0.5c-0.6,0-1.2-0.1-1.8-0.1
	h-0.2l-1.7,0h-0.2c-1-0.1-2-0.1-3-0.1H49h0.1c-0.7,0-1.2,0.1-1.8,0.1c-0.3,0.1-0.6,0.1-0.9,0.2c0,0.4,0.1,0.8,0.1,1.1v0.3l0.1,0.7
	c0.1,1,0.2,1.9,0.3,2.9c0.1,0.6,0.2,1.2,0.3,1.8v0.3l0.1,0.5c0.1,0.6,0.2,1.1,0.2,1.6v0.2l0,0c0,0.4,0.1,0.7,0.1,1.1
	c0.1,0.7-0.4,1.3-1.1,1.4h-0.1C45.8,148.1,45.3,147.6,45.3,147z"/>
<path d="M64.3,149.1c-0.7-0.1-1.1-0.8-1-1.4c0-0.2,0.1-0.4,0.1-0.7s0-0.5,0-0.8c-0.1-2.5-0.4-5-0.8-7.5l0,0l0,0l0,0
	c-0.1-0.5-0.2-1-0.2-1.5l0,0l0,0c-0.2-1.2-0.5-2.5-0.7-3.7s-0.3-2.3-0.5-3.5s-0.1-2.3-0.2-3.4c-0.1-0.8-0.1-1.6-0.2-2.5
	c-0.1-0.3,0-0.7,0.1-1c0.2-0.4,0.5-0.6,0.8-0.8c0.5-0.2,1-0.4,1.5-0.6c1-0.4,2.1-0.7,3.2-0.9c1.1-0.2,2.3-0.4,3.4-0.5
	c0.4-0.1,0.9-0.1,1.3,0c0.6,0.2,1.1,0.7,1.4,1.4c0.3,0.9,0.6,1.8,0.7,2.7c0.2,1.3,0.4,2.6,0.6,3.8s0.3,2.7,0.5,4.1s0.4,2.6,0.6,3.9
	s0.3,2.6,0.5,3.9c0.2,1.7,0.5,3.4,0.6,5.1c0.1,0.7-0.4,1.3-1.1,1.4c-0.4,0-0.8-0.1-1.1-0.4l0,0c-0.2-0.2-0.3-0.4-0.3-0.7
	c-0.1-1-0.2-2-0.3-3l-0.1-0.6c-0.2-1.3-0.3-2.6-0.5-3.9c-0.1-0.8-0.2-1.6-0.3-2.4l-0.1-0.4c0-0.3-0.1-0.6-0.1-0.9
	c-0.2-1.3-0.3-2.7-0.5-4s-0.4-2.8-0.6-4.5c-0.1-0.9-0.3-1.7-0.5-2.5c0-0.1-0.1-0.3-0.2-0.4l-0.9,0.1h-0.2c-0.5,0.1-0.9,0.1-1.4,0.2
	h-0.1c-0.8,0.1-1.5,0.3-2.3,0.6l-0.5,0.2H65l-0.3,0.1c-0.4,0.1-0.8,0.3-1.2,0.4c0,0.5,0.1,1,0.1,1.6s0.1,1.2,0.1,1.7v0.2
	c0,0.8,0.1,1.6,0.2,2.4s0.2,1.7,0.3,2.5c0.1,0.8,0.3,1.6,0.4,2.4s0.3,1.7,0.4,2.6v0.1c0.1,0.8,0.2,1.5,0.4,2.3v0.1
	c0.1,0.7,0.2,1.5,0.2,2.2v0.4c0.1,0.8,0.2,1.7,0.2,2.6c0,0.3,0,0.7,0.1,1v0.1l0,0v0.2c0,0.5-0.1,0.9-0.2,1.4c-0.1,0.6-0.6,1-1.2,1
	L64.3,149.1z"/>
<path d="M78.9,144.9c-0.2-1.3-0.3-2.6-0.5-3.8s-0.3-2.4-0.4-3.7c-0.2-2.5-0.5-5.1-0.7-7.6c0-0.6-0.1-1.2-0.1-1.9s-0.1-1.3-0.1-2
	c-0.1-1.2-0.1-2.4-0.2-3.6c-0.2-2.1-0.4-4.1-0.7-6.2c-0.1-0.9-0.3-1.7-0.3-2.6c-0.1-0.4,0.1-0.8,0.3-1.2c0.3-0.3,0.7-0.5,1.2-0.6
	c0.5,0,1,0,1.5,0c1.1,0,2.1-0.2,3.2-0.3c0.6-0.1,1.2-0.1,1.8-0.2s1.3,0,2,0s1.2,0,1.9,0c0.3,0,0.6,0,0.8,0c0.6,0,1.2,0.4,1.5,1
	c0.3,0.8,0.5,1.7,0.5,2.5c0,0.7,0.1,1.3,0.1,2c0.1,1.3,0.2,2.6,0.3,3.9s0.1,2.7,0.2,4.1s0.1,2.5,0.2,3.8c0,1.3,0.1,2.7,0.2,4.1
	c0.3,4.2,0.6,8.4,0.7,12.6c0,0.5,0,1,0.1,1.4c-0.1,0-0.1,0-0.2,0l-2.3,0.1c0-0.2,0-0.4,0-0.7c0-0.6,0-1.3,0-1.9l0,0v-0.5l-0.1-1.5
	c0-0.7-0.1-1.5-0.1-2.2c0-1-0.1-2-0.2-3.1v-0.8l-0.1-1.3l-0.3-2.6c-0.1-1.4-0.1-2.7-0.2-4c0-0.9-0.1-1.7-0.1-2.6l-0.1-1l-0.1-1.1
	c0-0.9-0.1-1.8-0.1-2.6l-0.1-1.4c0-0.7-0.1-1.4-0.1-2v-0.8c0-0.8-0.1-1.7-0.2-2.7c0-0.1,0-0.1-0.1-0.2h-2.5h-1h-0.2
	c-1,0.1-2,0.2-3,0.3l-0.4,0.1c-0.4,0-0.8,0.1-1.2,0.1c-0.3,0-0.6,0-0.9,0h-0.1h-0.2c0.1,0.5,0.2,1.1,0.2,1.6v0.2l0.1,0.4
	c0.2,1.2,0.3,2.4,0.4,3.6c0.2,2,0.3,4,0.4,6l0.1,1.5c0.1,1.3,0.2,2.7,0.3,3.9c0.1,1.1,0.2,2.1,0.3,3.2v0.5l0.2,1.9l0.2,1.9
	c0.1,0.8,0.2,1.5,0.3,2.3c0.1,0.5,0.1,0.9,0.2,1.4c0.1,0.9,0.2,1.7,0.3,2.6l0,0c0.1,0.8,0.2,1.6,0.3,2.5c-0.8,0.1-1.5,0.2-2.3,0.3
	h-0.2C79.2,147,79,146,78.9,144.9z"/>
<path d="M89.8,146.9c-0.4-0.1-0.7-0.2-1-0.5c-0.4-0.4-0.5-1.1-0.2-1.6c0.1-0.2,0.2-0.3,0.3-0.4l0,0c0.2-0.1,0.4-0.2,0.7-0.2
	c0.2,0,0.5,0.1,0.7,0.2c0,0,0,0,0.1,0h0.1c0.7,0,1.5,0,2.2,0c1.7-0.1,3.5-0.3,5.2-0.4c0.9-0.1,1.8-0.1,2.6-0.2
	c0.5,0,1.1-0.1,1.6-0.2c0.7-0.1,1.3,0.4,1.4,1.1c0.1,0.7-0.4,1.3-1.1,1.4c-0.7,0.1-1.5,0.2-2.2,0.2c-1.1,0.1-2.3,0.1-3.4,0.3
	s-2.2,0.2-3.3,0.3c-0.7,0-1.3,0-1.9,0C91,147,90.4,147,89.8,146.9z"/>
<path d="M39.9,175.2c-0.7,0-1.3-0.5-1.3-1.2c-0.1-0.7,0.4-1.3,1.1-1.4c0,0,0,0,0,0c0.6,0,1.2-0.1,1.8-0.1h-0.2
	c1.6-0.1,3.2,0,4.8-0.1l0,0c1.8-0.1,3.6-0.2,5.3-0.4s3.7-0.3,5.5-0.4s3.7-0.2,5.5-0.3c1.8-0.1,3.5-0.3,5.2-0.4
	c1.6-0.1,3.2-0.1,4.8-0.2s3.2-0.2,4.8-0.3c3-0.2,6-0.2,9-0.3l0,0c3.6-0.1,7.2-0.6,10.8-0.9c1.8-0.2,3.7-0.3,5.6-0.5s3.8-0.5,5.7-0.7
	s3.7-0.3,5.5-0.5s3.5-0.4,5.3-0.5s3.7-0.3,5.5-0.4s3.7-0.1,5.5-0.2s3.7-0.3,5.5-0.4s3.9-0.2,5.8-0.3c3.6-0.2,7.2-0.7,10.9-1
	c1.8-0.1,3.6-0.2,5.4-0.4s3.8-0.4,5.6-0.6s3.6-0.3,5.4-0.4s3.5-0.1,5.3-0.3c2.1-0.2,4.2-0.6,6.3-0.8c1.3-0.1,2.7-0.1,4-0.1
	c0.7,0,1.4,0,2.2,0l2.6-0.1l0,0h0.4h-0.2c2.3-0.1,4.5-0.1,6.8,0s4.3,0.3,6.4,0.2c1.4-0.1,2.8-0.1,4.2-0.3s2.6-0.2,3.9-0.4h0.2
	c0.7-0.2,1.3,0.3,1.5,0.9c0.2,0.7-0.3,1.3-0.9,1.5c-0.8,0.1-1.6,0.2-2.4,0.3l-2.4,0.2c-1.8,0.1-3.6,0.3-5.4,0.3s-3.5-0.2-5.3-0.3
	s-3.6-0.1-5.4-0.1h-1h-0.3c-1.2,0-2.3,0.1-3.5,0.1h-3.4c-0.9,0-1.8,0.1-2.6,0.1s-1.8,0.2-2.7,0.3c-1.8,0.2-3.6,0.5-5.4,0.6
	s-3.7,0.1-5.5,0.3s-3.5,0.3-5.3,0.5s-3.6,0.4-5.5,0.5s-3.7,0.2-5.6,0.4s-3.5,0.4-5.2,0.5c-1.9,0.2-3.8,0.3-5.8,0.4s-3.8,0.2-5.7,0.3
	s-3.6,0.2-5.5,0.3s-3.7,0.1-5.5,0.2s-3.7,0.3-5.5,0.5s-3.5,0.3-5.3,0.4s-3.8,0.4-5.7,0.6s-3.7,0.5-5.6,0.6s-3.7,0.3-5.6,0.5
	c-2.2,0.2-4.4,0.4-6.6,0.6s-4.3,0.1-6.5,0.1h-0.1c-1.7,0.1-3.4,0.2-5.1,0.3c-1.9,0.1-3.8,0.2-5.7,0.3s-3.5,0.2-5.3,0.3
	s-3.7,0.3-5.6,0.4c-1.5,0.1-3,0.1-4.6,0.2s-2.9,0.2-4.4,0.4s-2.9,0.2-4.3,0.3s-2.8,0-4.2,0.1h0.2h-0.8h0l-1.6,0.1L39.9,175.2z"/>
<path d="M41.3,192.4c-0.2-0.6,0.1-1.4,0.7-1.6l0.8-0.4c0.5-0.2,0.9-0.3,1.4-0.5c0.5-0.1,1-0.2,1.4-0.2c0.9-0.1,1.8-0.2,2.7-0.3
	c1.7-0.2,3.4-0.4,5.1-0.5c1.9-0.2,3.8-0.3,5.8-0.4s3.7-0.3,5.5-0.4c2.5-0.2,5-0.4,7.5-0.5s4.9-0.3,7.3-0.4h-0.2l1.9-0.1h-0.2
	c3.2-0.1,6.4,0,9.5,0s6.4,0,9.6-0.1h-0.2c3.7-0.1,7.4-0.3,11.1-0.5s7.5-0.4,11.3-0.6s7.3-0.4,11-0.6s7.5-0.6,11.3-0.8
	s7.3-0.4,10.9-0.6s7.2-0.4,10.8-0.5c2.2-0.1,4.5-0.1,6.7,0l3.4,0.1c1.1,0,2.3,0,3.5,0c1.8-0.1,3.6-0.2,5.4-0.3s3.6-0.2,5.3-0.3
	s3.6-0.3,5.4-0.4c0.9-0.1,1.7-0.1,2.6-0.2s1.8-0.1,2.7-0.2c1.8-0.1,3.7-0.2,5.5-0.3s3.6-0.3,5.4-0.5c0.2-0.1,0.5-0.1,0.7-0.1h0.1
	l0,0l0.1-0.1c0.6-0.3,1.4-0.1,1.7,0.5c0.3,0.5,0.2,1.1-0.2,1.5c-0.3,0.2-0.6,0.4-1,0.5c-0.3,0.1-0.5,0.1-0.8,0.2
	c-0.4,0.1-0.9,0.1-1.3,0.2c-0.8,0.1-1.6,0.2-2.4,0.2c-1.7,0.2-3.4,0.3-5.1,0.4c-1.7,0.1-3.5,0.2-5.2,0.3s-3.6,0.3-5.4,0.4
	s-3.6,0.2-5.3,0.3s-3.6,0.2-5.4,0.3s-3.7,0.1-5.6,0.1c-0.9,0-1.8-0.1-2.6-0.1h-2.8c-1.6,0-3.3,0-4.9,0c-3.6,0.1-7.1,0.3-10.6,0.5
	s-7.3,0.4-11,0.6c-1.8,0.1-3.7,0.2-5.5,0.4l-5.8,0.4c-3.6,0.3-7.3,0.4-10.9,0.7s-7.5,0.4-11.3,0.6s-7.5,0.4-11.2,0.5
	s-7.3,0.1-10.9,0.1c-2.7,0-5.4,0-8.1,0h0h-1.8h0.2c-1.8,0.1-3.6,0.2-5.4,0.3s-3.7,0.2-5.6,0.3s-3.9,0.3-5.8,0.4
	c-1.8,0.1-3.5,0.2-5.3,0.4c-2.1,0.1-4.2,0.3-6.3,0.6c-1.9,0.2-3.8,0.4-5.7,0.7c-0.4,0.1-0.8,0.2-1.2,0.3s-1,0.4-1.4,0.6
	c-0.1,0.1-0.3,0.1-0.4,0.1C42,193.2,41.5,192.9,41.3,192.4z"/>
<path d="M42.6,213.6c-0.9,0-1.7-0.1-2.6-0.2c-0.7,0-1.2-0.6-1.2-1.3c0-0.7,0.6-1.2,1.3-1.2c3.5,0.3,7,0.4,10.6,0.3
	c3.4,0,6.8-0.1,10.2-0.2l0,0c3.9-0.1,7.8-0.3,11.6-0.5c3.7-0.2,7.3-0.4,11-0.7c1.9-0.1,3.8-0.2,5.7-0.4s3.7-0.3,5.6-0.4
	c3.8-0.2,7.5-0.4,11.3-0.6c3.4-0.2,6.9-0.2,10.3-0.4h-0.2c3.2-0.1,6.3-0.2,9.4-0.3c3-0.1,5.9-0.1,8.9-0.2h0.3h0.7h0.4h0.5h0.4
	l2.7-0.1h0.1c1.9,0,3.7-0.1,5.6-0.2s3.7-0.2,5.6-0.4c3.8-0.3,7.6-0.4,11.3-0.7c2.5-0.2,5-0.3,7.5-0.4h-0.2l3-0.1h-0.1l2.8-0.1h0.8
	c0.2,0,0.4,0,0.6,0h0.3h0.5h0.5c3.7-0.1,7.3,0.1,11,0.2c1.9,0.1,3.7,0.1,5.6,0.2s4,0.1,5.9,0.2c1.2,0.1,2.3,0.1,3.5,0.1
	s2.5,0.1,3.8,0.2c2.4,0.1,4.8,0.4,7.1,0.3c0.7,0,1.2,0.6,1.2,1.3c0,0.7-0.6,1.2-1.3,1.2c-1.8,0-3.5-0.1-5.3-0.2s-3.7-0.2-5.6-0.3
	s-3.6-0.1-5.4-0.2c-2-0.1-3.9-0.1-5.9-0.2c-2.4-0.1-4.8-0.2-7.1-0.2s-4.9-0.1-7.4-0.1h-0.1h-0.3h-0.4c-0.2,0-0.4,0-0.6,0h-0.4
	c-0.2,0-0.3,0-0.5,0h-0.4l-3,0.1l0,0l-2.9,0.1h0.2c-1.8,0.1-3.7,0.1-5.5,0.3c-2,0.1-4,0.3-6,0.4l-5.7,0.3c-1.7,0.1-3.4,0.3-5.2,0.4
	c-2.6,0.1-5.1,0.2-7.7,0.3l0,0l-2.8,0.1h-0.4h-0.8h-0.2h-0.6h-0.3c-3.9,0.1-7.8,0.1-11.6,0.2h0.2l-6.3,0.2c-2.1,0.1-4.1,0.1-6.2,0.2
	h0.2c-3.7,0.1-7.4,0.3-11.1,0.5c-1.9,0.1-3.8,0.2-5.7,0.3s-3.7,0.3-5.6,0.4c-3.8,0.3-7.6,0.5-11.4,0.8s-7.7,0.4-11.6,0.6
	s-7.7,0.3-11.5,0.3c-1.7,0-3.3,0.1-5,0.1C46.7,213.7,44.6,213.7,42.6,213.6z"/>
<path d="M193.8,295.1c-1.4-0.1-2.8-0.2-4.2-0.5c-1.3-0.2-2.6-0.6-3.9-1c-0.7-0.2-1.4-0.5-2-0.8s-1.2-0.5-1.7-0.7
	c-1.3-0.6-2.5-1.2-3.7-1.9c-2.4-1.3-4.6-2.9-6.6-4.7c-0.5-0.4-1-0.9-1.4-1.3s-1-1.1-1.5-1.6s-0.8-1-1.2-1.5s-0.9-1.2-1.3-1.8
	c-1.6-2.2-3-4.5-4.3-6.9c-1.2-2.5-1.9-5.2-2-8c-0.1-1.4,0-2.8,0.1-4.2c0.1-1.3,0.3-2.7,0.5-4c0.5-2.7,1.3-5.3,2.3-7.8
	c0.5-1.3,1-2.5,1.6-3.7s1.3-2.4,2-3.6c1.5-2.6,3.3-4.9,5.4-7c1.4-1.3,2.9-2.3,4.5-3.2c1.3-0.7,2.6-1.2,4-1.6
	c1.3-0.4,2.7-0.7,4.1-0.9c0.9-0.1,1.7-0.3,2.6-0.4c0.9-0.1,1.7-0.1,2.6-0.1c1.7,0.1,3.4,0.3,5.1,0.6c0.7,0.1,1.1,0.8,1,1.4
	c-0.1,0.5-0.5,0.9-1,1v-0.1c-0.1,0-0.2,0-0.2,0c-0.1,0-0.1,0-0.2,0h-0.2l-0.3-0.1c-0.9-0.1-1.9-0.3-2.9-0.4h-0.4H190h-0.4h-1.1
	c-0.7,0-1.3,0.1-2,0.2L185,231l-0.4,0.1c-0.7,0.1-1.5,0.3-2.2,0.5s-1.5,0.4-2.2,0.6s-1.3,0.5-2.1,0.8c-0.8,0.4-1.6,0.8-2.4,1.3
	c-0.6,0.4-1.1,0.8-1.6,1.2c-0.5,0.4-1,0.9-1.6,1.4l-0.4,0.5l-0.5,0.5c-0.2,0.2-0.4,0.4-0.6,0.8l-0.3,0.4c-0.7,0.9-1.3,1.8-1.8,2.6
	s-1.1,1.8-1.7,2.9c-0.4,0.8-0.8,1.5-1.1,2.3s-0.6,1.3-0.9,2.1l-0.1,0.3c-0.3,0.9-0.7,1.8-1,2.6s-0.6,1.9-0.9,2.9s-0.4,1.6-0.5,2.3
	s-0.2,1.4-0.3,2v0.3c-0.1,0.8-0.1,1.6-0.2,2.3c0,0.4,0,0.9,0,1.4c0,0.3,0,0.5,0,0.8v0.3c0,0.4,0.1,0.9,0.1,1.3s0.1,1,0.2,1.6
	s0.3,1.2,0.4,1.8s0.4,1.1,0.6,1.7c0.3,0.6,0.6,1.2,0.9,1.8c0.4,0.7,0.8,1.4,1.2,2c1.5,2.3,3,4.5,4.7,6.7l0.1,0.1l0.5,0.6v0l0,0
	l0.5,0.5c0.4,0.4,0.8,0.8,1.2,1.2l0.1,0l0,0c1.1,1,2.2,1.8,3.2,2.6l0.4,0.2c0.5,0.3,0.9,0.6,1.4,0.9l0.1,0.1l0.2,0.1l1.7,1
	c0.7,0.4,1.5,0.8,2.2,1.1c0.6,0.3,1.2,0.5,1.9,0.8l0.4,0.2c0.7,0.3,1.4,0.5,2.1,0.8c0.7,0.2,1.3,0.4,2,0.6l0.1,0.1
	c0.5,0.1,1,0.2,1.5,0.3l1.7,0.2c1.6,0.1,3.1,0.3,4.7,0.4c1.4,0.1,2.6,0.1,3.7,0.1h1.3c0.5,0,1-0.1,1.6-0.1s0.9-0.1,1.4-0.2
	s1.1-0.2,1.6-0.4l0.2,0l0.3-0.1l0,0l0,0l0,0c0.7-0.2,1.4-0.5,2.1-0.7c0.4-0.1,0.9-0.3,1.3-0.5l0.1-0.1h0.1l0.3-0.1
	c0.9-0.4,1.7-0.9,2.4-1.3c0.7-0.4,1.3-0.9,1.9-1.3l0.6-0.5c0.9-0.7,1.6-1.5,2.3-2.2c1-1.1,2-2.4,3-3.7c0.7-0.9,1.3-1.9,1.8-2.9
	c0.4-0.7,0.7-1.4,1.1-2.2c0.4-1,0.7-2,1-3c0-0.2,0-0.4,0-0.6c0-0.1,0.1-0.1,0.1-0.2c0.4-0.6,1.1-0.8,1.7-0.4
	c0.3,0.2,0.5,0.4,0.5,0.8c0.1,0.3,0.1,0.6,0,0.8c0,0.2-0.1,0.4-0.1,0.5s-0.1,0.6-0.2,0.8c-0.2,0.6-0.4,1.1-0.6,1.7
	c-0.5,1.2-1,2.4-1.7,3.5c-0.7,1.1-1.4,2.2-2.2,3.2c-0.8,1.1-1.7,2.1-2.5,3.1c-0.8,0.9-1.7,1.8-2.7,2.6l0.1-0.1
	c-0.6,0.5-1.1,0.9-1.7,1.3s-1.2,0.8-1.8,1.1c-1.2,0.7-2.4,1.2-3.7,1.7c-0.6,0.2-1.2,0.5-1.8,0.6s-1.3,0.4-2,0.6s-1.5,0.3-2.2,0.4
	s-1.3,0.1-2,0.2s-1.3,0-1.9,0C197.8,295.4,195.8,295.3,193.8,295.1z"/>
<path d="M192.9,263.1c-0.7,0-1.2-0.6-1.2-1.3c0-0.2,0-0.3,0-0.5v0c0-0.3,0-0.7,0-1c0-1.2,0.1-2.3,0.3-3.5c0.1-0.5,0.1-1,0.2-1.5
	l0.1-0.5l0.1-0.6c0.1-1,0.2-1.6,0.2-2.2c0-0.1,0-0.3,0.1-0.4l0,0v0.1l0,0l0,0l0.2-1.8l0.2-1.6v-0.3c0.1-1.2,0.2-2.5,0.4-3.8
	c0.2-1.9,0.5-3.9,0.7-5.7v-0.2l0.2-1.6c0.2-1.6,0.2-2.9,0.2-4c0-0.5-0.1-0.9-0.2-1.4l-0.1-0.6c-0.1-0.7,0.4-1.3,1.1-1.4
	c0.2,0,0.5,0,0.7,0.1l0,0c0.4,0.2,0.6,0.6,0.7,1c0.1,0.9,0.2,1.9,0.2,2.8c0,0.2,0,0.4,0,0.7c0,1-0.1,2.1-0.3,3.2
	c-0.1,0.7-0.2,1.5-0.3,2.3c-0.1,1.1-0.3,2.2-0.4,3.4l-0.1,1v-0.1l-0.2,2.2l-0.2,2.5l-0.2,2.5c-0.1,1.3-0.2,2.4-0.4,3.5
	c-0.1,0.4-0.1,0.8-0.2,1.1v0.3c-0.1,0.5-0.2,1.1-0.2,1.6l-0.1,0.4l0,0v-0.1c-0.1,1-0.2,2-0.2,3l0,0c0,0.4,0,0.9,0,1.3
	C194.1,262.6,193.5,263.1,192.9,263.1L192.9,263.1z"/>
<path d="M224.5,272.8L224.5,272.8l-1-0.5l-0.2-0.1c-0.6-0.3-1.3-0.7-2-0.9c-2.1-0.8-4.2-1.4-6.2-1.9l-1.4-0.4l-3.9-1.1
	c-0.9-0.3-1.8-0.5-2.7-0.7l-0.2-0.1l-0.7-0.2c-1.5-0.4-3.1-0.8-4.6-1.2c-1.3-0.4-2.7-0.7-4-1l-1.3-0.3h0.1l-0.3-0.1
	c-0.5-0.1-1-0.2-1.4-0.3l-0.7-0.1l0,0l-1.1-0.1l0,0h-0.4c-0.7-0.1-1.1-0.8-1-1.5c0.1-0.7,0.8-1.1,1.4-1c1.4,0.2,2.8,0.4,4.2,0.7
	c1.3,0.3,2.6,0.7,3.9,1c2.6,0.7,5.2,1.4,7.9,2.1c1.3,0.3,2.5,0.7,3.8,1.1l4,1.1c2.6,0.6,5.1,1.5,7.5,2.6c0.5,0.2,0.9,0.5,1.4,0.7
	c0.6,0.3,0.9,1,0.6,1.7c-0.2,0.4-0.7,0.7-1.1,0.7C224.9,273,224.7,272.9,224.5,272.8z"/>
<path d="M52.5,242.3l-2.3-0.1c-0.7,0-1.3-0.1-1.9-0.2c-1-0.1-2-0.3-2.9-0.6c-0.7-0.2-1-0.9-0.8-1.6c0.2-0.7,0.9-1,1.6-0.8l0.9,0.3
	c0.5,0.1,1,0.2,1.5,0.3s1.2,0.2,1.8,0.2l2.3,0.1c0.5,0,0.9,0,1.4,0h2.4c2.9-0.1,5.8-0.1,8.7-0.1c2.5,0,4.9-0.1,7.4-0.1h-0.2
	c2.8-0.1,5.7-0.2,8.5-0.4c2.6-0.2,5.2-0.4,7.7-0.6c2.9-0.1,5.8-0.2,8.7-0.3h0h1.3l0,0c1.3,0,2.6-0.1,3.9-0.1s2.7,0.1,4.1,0.1
	c2.6,0.1,5.2,0,7.8,0c2.3,0,4.5,0,6.8-0.1l0,0c5.4-0.2,10.7-0.9,16-1.3c1.3-0.1,2.7-0.1,4-0.1c0.7,0,1.2,0.6,1.2,1.3
	c0,0.7-0.6,1.2-1.3,1.2c-0.7,0-1.4,0-2.1,0l0,0c-2.7,0.1-5.4,0.4-8.1,0.7s-5.4,0.5-8.1,0.6s-5.3,0.1-8,0.2s-5.3,0.1-7.9,0
	c-1.4,0-2.7-0.1-4.1-0.1s-2.7,0-4.1,0l0,0h-1.3h0.2c-2.7,0.1-5.4,0.2-8.1,0.3s-5.3,0.4-8,0.6c-2.8,0.2-5.7,0.3-8.5,0.4
	c-2.6,0.1-5.2,0.1-7.7,0.1c-2.9,0-5.8,0.1-8.7,0.1h-3C53,242.4,52.7,242.4,52.5,242.3z"/>
<path d="M45.4,255.2c-0.1-0.7,0.4-1.3,1.1-1.4c1.4-0.2,2.8-0.3,4.2-0.4s2.7-0.1,4-0.1c2.7,0,5.5-0.1,8.2,0l8.4,0.1
	c2.8,0,5.7,0.1,8.5,0.1c4.5,0.1,8.9,0,13.4-0.1h0.1c1.4-0.1,2.8-0.1,4.2-0.2l3.9-0.3c2.6-0.1,5.3-0.2,7.9-0.2s5.4-0.1,8.2,0.1
	c1.4,0.1,2.8,0.1,4.2,0.2s2.7,0.2,4,0.2c0.9,0,1.9,0,2.8,0c2-0.1,3.9-0.2,5.9-0.4l2.9-0.3c1-0.1,2-0.1,3-0.3
	c0.7-0.1,1.3,0.4,1.4,1.1s-0.4,1.3-1.1,1.4l0,0c-1.3,0.1-2.6,0.2-3.9,0.3s-2.7,0.2-4.1,0.4s-2.8,0.2-4.1,0.2s-2.9,0-4.3-0.1
	c-2.6-0.1-5.2-0.3-7.9-0.4s-5.4,0-8.1,0l-3.3,0.1c-2.7,0.1-5.5,0.3-8.2,0.5S91,256,88.3,256s-5.6,0-8.3,0c-1.2,0-2.4,0-3.7-0.1
	l-4.6-0.1c-2.7,0-5.3,0-8,0s-5.5,0-8.3,0l-4.7,0.1l0,0c-0.6,0-1.2,0-1.7,0.1c-0.8,0.1-1.5,0.2-2.3,0.2h-0.1
	C46,256.3,45.5,255.8,45.4,255.2z"/>
<path d="M107.5,272.2c-1.3,0-2.6-0.1-3.8-0.1s-2.6-0.2-3.9-0.3s-2.6-0.3-3.9-0.4s-2.8-0.3-4.3-0.5c-2.6-0.2-5.2-0.4-7.8-0.5
	c-2.8-0.1-5.6-0.2-8.3-0.1h-1.6c-2.7,0.1-5.3,0.2-7.9,0.3c-2.8,0.1-5.6,0.2-8.4,0.4c-1.7,0.1-3.3,0.2-4.9,0.2s-3.3,0-4.9-0.1
	c-0.7,0-1.2-0.6-1.2-1.3c0-0.7,0.6-1.2,1.3-1.2c1.1,0,2.2,0.1,3.2,0.1s2,0,3,0c2.7-0.1,5.4-0.3,8.1-0.5s5.7-0.2,8.5-0.4
	c1.3,0,2.5-0.1,3.8-0.1c1.5,0,3.1,0,4.6,0c1.3,0,2.5,0.1,3.8,0.1s2.7,0.1,4,0.1c2,0.1,4.1,0.3,6.1,0.5s4,0.5,6,0.7
	c1,0.1,2,0.2,3,0.3c1.2,0.1,2.4,0.1,3.6,0.2c2.1,0.1,4.2,0,6.4,0l0,0c2.8-0.1,5.6-0.3,8.4-0.4c2.6-0.2,5.2-0.2,7.8-0.2
	c1.1,0,2.2,0,3.3,0c2.1-0.1,4.2-0.2,6.3-0.4s4.3-0.1,6.4-0.1c0.7,0,1.2,0.6,1.2,1.3c0,0,0,0,0,0c0,0.7-0.6,1.2-1.3,1.2
	c-1.3,0-2.6,0-4,0h0.2c-2.7,0.1-5.4,0.4-8,0.5c-1.6,0.1-3.1,0-4.7,0c-1,0-2.1,0-3.2,0c-1.3,0-2.6,0.1-3.8,0.2s-2.8,0.2-4.2,0.2
	c-2.8,0.1-5.7,0.2-8.5,0.3L107.5,272.2z"/>
<path d="M87.3,291.8c-1.3-0.1-2.5-0.3-3.8-0.4h0.2l-1.7-0.2h0.2c-1.7-0.2-3.4-0.4-5.1-0.6s-3.4-0.5-5.1-0.6H72h-0.2h-0.2l-0.6-0.1
	h0.2h-0.4h0.2l-0.6-0.1h0.2h-0.3h0.2h-0.2c-0.8-0.1-1.6-0.1-2.4-0.2c-1,0-2-0.1-3-0.1c-1.7,0-3.4,0-5.1,0c-0.8,0-1.7,0.1-2.5,0.1
	c-0.5,0-0.9,0-1.4,0.1l-1.5,0.2c-0.7,0.1-1.5,0.3-2.2,0.5c-0.7,0.1-1.3-0.3-1.5-1c-0.1-0.6,0.3-1.3,0.9-1.4c0.7-0.2,1.5-0.3,2.2-0.5
	s1.2-0.2,1.9-0.2c1.4-0.1,2.8-0.2,4.2-0.2s3,0,4.4,0c1.4,0,2.7,0.1,4,0.2c0.8,0,1.6,0.1,2.3,0.2h-0.2h0.2h-0.2h0.3h-0.2h0.3h-0.2
	l0.6,0.1h-0.2l0.4,0h-0.2l0.6,0.1h-0.2h0.3h-0.1c1.4,0.1,2.8,0.4,4.2,0.5s3,0.4,4.5,0.5h-0.2l1.6,0.2l0,0l3.2,0.3h-0.2
	c2.6,0.3,5.3,0.5,7.9,0.7c1.4,0.1,2.7,0.2,4.1,0.2s2.7,0.1,4,0.1c3.4,0,6.8,0,10.2-0.1h-0.2c2.7-0.1,5.4-0.3,8-0.5s5.3-0.2,8-0.4
	c2.7-0.2,5.3-0.4,8-0.5c1.3,0,2.7,0,4-0.1h3.9h0.9H144c1.5,0,3-0.1,4.5-0.3c0.7,0,1.4-0.1,2.1-0.1s1.5-0.1,2.3-0.1
	c0.7,0,1.2,0.6,1.2,1.3c0,0.7-0.6,1.2-1.3,1.2h-0.3c-1.2,0-2.4,0.1-3.6,0.2s-2.6,0.2-3.9,0.3c-2.7,0.1-5.3,0-8,0.1h-1.6h-0.1
	c-2.6,0.1-5.2,0.3-7.8,0.5s-5.3,0.2-8,0.4s-5.4,0.4-8.1,0.5s-5.3,0.1-7.9,0.1h-0.9C97.5,292.6,92.3,292.2,87.3,291.8z"/>
<path d="M174.9,288.2c0.4-0.7,0.8-1.5,1.1-2.2l0,0l0.4,0.2c0.5,0.3,0.9,0.6,1.4,0.9l0.1,0.1l0.2,0.1c-0.4,0.7-0.8,1.4-1.1,2.2
	C176.2,289.2,175.6,288.7,174.9,288.2z"/>
<path d="M191.4,262.2c0-0.2,0.1-0.4,0.3-0.6v-0.3v-0.1c0-0.3,0-0.7,0-1l0,0c0.3,0,0.6,0,0.8,0.2c0.6,0.4,0.8,1.1,0.4,1.7
	c-0.3,0.5-0.6,0.9-1,1.4C191.5,263.2,191.3,262.7,191.4,262.2z"/>
<path d="M171.1,283.7c-0.6-0.4-0.7-1.2-0.3-1.7c0.1-0.1,0.2-0.3,0.3-0.4l0,0l0,0c0.1-0.1,0.2-0.2,0.3-0.3c0.3-0.4,0.6-0.7,1-1.1
	c0.5-0.5,1-0.9,1.7-1.5l0.8-0.6c0.4-0.4,0.8-0.7,1.2-1.1s0.8-0.8,1.3-1.1l0.4-0.4l0.1-0.1c0.7-0.5,1.4-1.1,2-1.7s1.1-1.2,1.6-1.8
	l0.6-0.7c0.4-0.5,0.8-0.9,1.2-1.3l0.2-0.3l1-1.1c0.7-0.8,1.5-1.7,2.4-2.5l0.3-0.2c0.8-0.7,1.6-1.4,2.3-2.1s1.4-1.5,2.2-2.4v-0.1
	l0.4-0.4c0.4-0.5,1.2-0.7,1.8-0.2c0.5,0.4,0.7,1.2,0.2,1.8c0,0-0.1,0.1-0.1,0.1c-0.4,0.4-0.7,0.9-1.1,1.3l0,0
	c-0.3,0.4-0.7,0.7-1,1.1l0,0l-0.7,0.7c-0.6,0.5-1.1,1.1-1.7,1.6l-0.3,0.3l-1,1c-1.6,1.6-3.2,3.4-4.6,5l-0.1,0.2l-0.2,0.2l-0.4,0.4
	c-0.8,1-1.8,1.9-2.8,2.7c-0.5,0.4-0.9,0.8-1.4,1.1c-0.3,0.2-0.6,0.5-0.8,0.7l-0.6,0.5l-1.2,1l-0.2,0.1c-0.8,0.7-1.6,1.3-2.2,2
	c-0.2,0.2-0.3,0.3-0.5,0.5l-0.1,0.2l-0.1,0.2l0,0c-0.2,0.3-0.6,0.5-1,0.5C171.5,283.9,171.3,283.9,171.1,283.7z"/>
<path class="st1" d="M81.4,145.2c-0.1-0.9-0.2-1.7-0.3-2.6c-0.1-0.5-0.1-0.9-0.2-1.4c-0.1-0.8-0.2-1.5-0.3-2.3l-0.2-1.9l-0.2-1.9
	v-0.5c-0.1-1.1-0.2-2.2-0.3-3.2c-0.1-1.2-0.2-2.5-0.3-3.9l-0.1-1.5c-0.1-2-0.2-4-0.4-6c-0.1-1.2-0.3-2.5-0.4-3.6l-0.1-0.4v-0.2
	c-0.1-0.5-0.2-1.1-0.2-1.6h0.2h0.1c0.3,0,0.6,0,0.9,0c0.4,0,0.8-0.1,1.2-0.1l0.4-0.1c1-0.1,2-0.3,3-0.3h0.2h1h2.5
	c0,0.1,0,0.1,0.1,0.2c0.1,0.9,0.2,1.9,0.2,2.7v0.8c0.1,0.7,0.1,1.3,0.1,2l0.1,1.4c0,0.9,0.1,1.8,0.1,2.6l0.1,1.1l0.1,1
	c0,0.9,0.1,1.7,0.1,2.6c0,1.3,0.1,2.6,0.2,4l0.2,2.7l0.1,1.3v0.8c0.1,1.1,0.1,2.1,0.2,3.1c0,0.7,0.1,1.5,0.1,2.2l0.1,1.5v0.5
	c-0.2,0-0.5,0.1-0.7,0.2h-0.4l-2.3,0.2l-0.8,0.1h-0.2C84,144.9,82.7,145,81.4,145.2L81.4,145.2z"/>
<path class="st1" d="M65.9,146.6L65.9,146.6c0-0.4,0-0.8-0.1-1.1c-0.1-0.9-0.1-1.7-0.2-2.6v-0.4c-0.1-0.8-0.1-1.5-0.2-2.2v-0.1
	c-0.1-0.8-0.2-1.5-0.4-2.3v-0.1c-0.1-0.9-0.3-1.7-0.4-2.6s-0.3-1.6-0.4-2.4s-0.2-1.6-0.3-2.5s-0.1-1.6-0.2-2.3v-0.2
	c0-0.6-0.1-1.2-0.1-1.7s-0.1-1.1-0.1-1.6c0.4-0.2,0.8-0.3,1.2-0.4l0.3-0.1l-0.2,0.1c0.9-0.3,1.9-0.6,2.9-0.7h0.1
	c0.5-0.1,0.9-0.1,1.4-0.2h0.2l0.9-0.1c0.1,0.1,0.1,0.2,0.2,0.4c0.2,0.8,0.4,1.7,0.5,2.5c0.3,1.7,0.5,3.2,0.6,4.5s0.3,2.7,0.5,4
	c0,0.3,0.1,0.6,0.1,0.9l0.1,0.4c0.1,0.9,0.2,1.6,0.3,2.4c0.1,1.3,0.3,2.6,0.5,3.9l0.1,0.6c0.1,1,0.2,2,0.3,3c0,0.3,0.1,0.5,0.3,0.7
	c-0.2,0-0.5,0.1-0.7,0.1H73c-1.5,0.1-2.9,0.1-4.4,0.2h-0.8C67.2,146.5,66.5,146.5,65.9,146.6L65.9,146.6z"/>
<path class="st1" d="M56,146.5c-1.3-0.1-2.7-0.2-3.8-0.3l-1.5-0.2l-1.5-0.2h0.2h-0.8l-0.8-0.1h-0.2v-0.2c-0.1-0.6-0.1-1.1-0.2-1.6
	l-0.1-0.5v-0.3c-0.1-0.6-0.2-1.2-0.3-1.8c-0.1-1-0.2-1.9-0.3-2.9l-0.1-0.7v-0.3c0-0.4-0.1-0.7-0.1-1.1c0.3-0.1,0.6-0.2,0.9-0.2
	c0.5-0.1,1.1-0.1,1.8-0.1h-0.2h0.2c1.2,0,2.3,0.1,3.5,0.1H53l1.7,0.1h0.2c0.6,0,1.2,0,1.8,0.1c0.1,0.2,0.1,0.3,0.2,0.5
	c0.2,0.5,0.2,1.1,0.4,1.7c0.2,1.5,0.4,3,0.5,4.6l0,0.5c0,0.5,0.1,1.1,0.2,1.6c0,0.3,0.1,0.6,0.1,0.9v0.2v0.1c0,0.1,0,0.2,0,0.3l0,0
	C57.3,146.5,56.7,146.5,56,146.5z"/>
<path class="st1" d="M192.8,263.7l1.1,0.1c-0.6,0.3-1.2,0.6-1.8,0.8h-0.1l-0.2,0.1C192.2,264.4,192.5,264,192.8,263.7z"/>
<path class="st2" d="M196.5,292.8c-1.6-0.1-3.1-0.2-4.7-0.4l-1.7-0.2c-0.5-0.1-1-0.2-1.5-0.3l-0.1-0.1c-0.7-0.2-1.3-0.4-2-0.6
	c-0.7-0.2-1.4-0.5-2.1-0.8l-0.4-0.2c-0.7-0.3-1.3-0.5-1.9-0.8c-0.7-0.4-1.5-0.7-2.2-1.1l-1.7-1l-0.2-0.1l-0.1-0.1
	c-0.5-0.3-0.9-0.6-1.4-0.9L176,286c-1.1-0.8-2.1-1.6-3.2-2.6l0.1-0.2l0.1-0.2c0.1-0.2,0.3-0.4,0.5-0.5c0.7-0.7,1.4-1.3,2.2-2
	l0.2-0.1l1.2-1l0.6-0.5c0.3-0.2,0.5-0.5,0.8-0.7c0.4-0.4,0.9-0.8,1.4-1.1c1-0.8,1.9-1.7,2.8-2.7l0.4-0.4l0.2-0.2l0.1-0.2
	c1.4-1.6,3-3.4,4.6-5l1-1l0.3-0.3c0.6-0.5,1.1-1.1,1.7-1.6l0.7-0.7c0.1,0,0.2,0,0.3-0.1h0.1c0.6-0.2,1.3-0.5,1.9-0.9l0.7,0.1
	c0.5,0.1,1,0.2,1.4,0.3l0.3,0.1h-0.2c1.8,0.4,3.5,0.9,5.3,1.4c1.5,0.4,3.1,0.8,4.6,1.2l0.7,0.2l0.2,0.1c0.9,0.2,1.8,0.5,2.7,0.7
	l3.9,1.1l1.4,0.4c2,0.6,4.2,1.2,6.2,1.9c0.7,0.3,1.4,0.6,2,0.9l0.2,0.1l1,0.5c-0.1,0.3-0.1,0.6-0.1,0.9c-0.3,1-0.6,2-1,3
	c-0.3,0.7-0.7,1.5-1.1,2.2c-0.5,1-1.2,2-1.8,2.9c-1,1.3-2,2.5-3,3.7c-0.7,0.7-1.4,1.5-2.3,2.2l-0.6,0.5c-0.6,0.5-1.3,0.9-1.9,1.3
	c-0.7,0.4-1.6,0.9-2.4,1.3l-0.3,0.1h-0.1l-0.1,0.1c-0.4,0.2-0.9,0.4-1.3,0.5c-0.7,0.2-1.4,0.5-2.1,0.7l0.1-0.1
	c-0.7,0.2-1.4,0.4-2.1,0.5c-0.5,0.1-1,0.1-1.4,0.2s-1,0.1-1.6,0.1h-1.3C199.1,292.9,197.9,292.9,196.5,292.8z"/>
<path class="st3" d="M171,281.6l-0.5-0.6l-0.1-0.1c-1.7-2.1-3.3-4.4-4.7-6.7c-0.4-0.7-0.8-1.3-1.2-2c-0.3-0.6-0.6-1.2-0.9-1.8
	c-0.2-0.6-0.4-1.1-0.6-1.7s-0.3-1.2-0.4-1.8s-0.1-1-0.2-1.6s-0.1-0.9-0.1-1.3v-0.3c0-0.3,0-0.5,0-0.8c0-0.5,0-0.9,0-1.4
	c0.1-0.8,0.1-1.6,0.2-2.3v-0.3c0.1-0.7,0.2-1.4,0.3-2s0.3-1.5,0.5-2.4s0.6-1.9,0.9-2.9s0.6-1.8,1-2.6l0.1-0.3
	c0.3-0.8,0.6-1.5,0.9-2.1s0.8-1.5,1.1-2.3c0.6-1.1,1.1-2,1.7-2.9s1.1-1.7,1.8-2.6l0.3-0.4c0.2-0.3,0.4-0.5,0.6-0.8l0.5-0.5l0.4-0.5
	c0.6-0.6,1.1-1,1.6-1.4c0.5-0.4,1.1-0.8,1.6-1.2c0.8-0.5,1.6-0.9,2.4-1.3c0.7-0.3,1.4-0.6,2.1-0.8s1.5-0.4,2.2-0.6s1.5-0.3,2.2-0.5
	l0.4-0.1l1.5-0.2c0.7-0.1,1.3-0.1,2-0.2h1.1h0.4h0.4h0.4c1,0.1,2,0.3,2.9,0.4l0.3,0.1h0.2c0.1,0,0.1,0,0.2,0c0.1,0,0.2,0,0.2,0
	c0.1,0.5,0.1,0.9,0.2,1.4c0,1.1-0.1,2.4-0.2,4l-0.2,1.6v0.2c-0.2,1.8-0.5,3.8-0.7,5.7c-0.1,1.2-0.2,2.5-0.4,3.8v0.3l-0.2,1.6
	l-0.2,1.8l-0.1-0.2c0,0.9-0.1,1.8-0.2,2.7l-0.1,0.6l-0.1,0.5c-0.1,0.5-0.2,1-0.2,1.5c-0.2,1.2-0.2,2.3-0.3,3.5c0,0.3,0,0.7,0,1
	c-0.8,0.9-1.5,1.7-2.2,2.4s-1.5,1.4-2.3,2.1l-0.3,0.2c-0.9,0.8-1.7,1.7-2.4,2.5l-1,1.1l-0.2,0.3c-0.4,0.4-0.8,0.9-1.2,1.3l-0.6,0.7
	c-0.5,0.6-1,1.2-1.6,1.8s-1.3,1.2-2,1.7l-0.1,0.1l-0.4,0.4c-0.4,0.4-0.9,0.7-1.3,1.1s-0.8,0.8-1.2,1.1l-0.8,0.6
	c-0.7,0.6-1.2,1-1.7,1.5c-0.4,0.3-0.7,0.7-1,1.1c-0.1,0.1-0.2,0.2-0.3,0.3l0,0L171,281.6z"/>
</svg>
