<?xml version="1.0" encoding="utf-8"?>
<!-- Generator: Adobe Illustrator 25.2.1, SVG Export Plug-In . SVG Version: 6.00 Build 0)  -->
<svg version="1.1" id="Layer_1" xmlns="http://www.w3.org/2000/svg" xmlns:xlink="http://www.w3.org/1999/xlink" x="0px" y="0px"
	 viewBox="0 0 840 320" style="enable-background:new 0 0 840 320;" xml:space="preserve">
<style type="text/css">
	.st0{fill:#EEEEEE;}
	.st1{fill:#212121;}
	.st2{font-family:'Poppins-Regular';}
	.st3{font-size:18px;}
	.st4{font-family:'Poppins-Bold';}
	.st5{font-size:45px;}
</style>
<rect id="Rectangle_151" class="st0" width="840" height="320"/>
<text transform="matrix(1 0 0 1 44.039 173.0814)" class="st1 st2 st3">Leser ikke eller </text>
<text transform="matrix(1 0 0 1 56.471 198.0814)" class="st1 st2 st3">sjekker ikke </text>
<text transform="matrix(1 0 0 1 31.319 223.0814)" class="st1 st2 st3">Aftenposten i dag</text>
<text transform="matrix(1 0 0 1 66.4637 122.4976)" class="st1 st4 st5">60%</text>
<text transform="matrix(1 0 0 1 232.2334 173.0817)" class="st1 st2 st3">Sier at Aftenposten </text>
<text transform="matrix(1 0 0 1 234.2574 198.0817)" class="st1 st2 st3">ikke er en populær </text>
<text transform="matrix(1 0 0 1 227.2894 223.0817)" class="st1 st2 st3">kilde til informasjon i </text>
<text transform="matrix(1 0 0 1 236.8815 248.0817)" class="st1 st2 st3">sin omgangskrets</text>
<text transform="matrix(1 0 0 1 274.3419 122.4974)" class="st1 st4 st5">90%</text>
<text transform="matrix(1 0 0 1 486.8549 173.0814)" class="st1 st2 st3">Mener at </text>
<text transform="matrix(1 0 0 1 463.239 198.0814)" class="st1 st2 st3">Aftenposten er </text>
<text transform="matrix(1 0 0 1 444.399 223.0814)" class="st1 st2 st3">kjedelig og utdatert</text>
<text transform="matrix(1 0 0 1 481.3319 122.4971)" class="st1 st4 st5">20%</text>
<text transform="matrix(1 0 0 1 657.3923 173.0814)" class="st1 st2 st3">Er ikke villig til å </text>
<text transform="matrix(1 0 0 1 645.5283 198.0814)" class="st1 st2 st3">betale for nyheter</text>
<text transform="matrix(1 0 0 1 667.7037 122.4966)" class="st1 st4 st5">100%</text>
</svg>
