<?xml version="1.0" encoding="utf-8"?>
<!-- Generator: Adobe Illustrator 25.2.1, SVG Export Plug-In . SVG Version: 6.00 Build 0)  -->
<svg version="1.1" xmlns="http://www.w3.org/2000/svg" xmlns:xlink="http://www.w3.org/1999/xlink" x="0px" y="0px"
	 viewBox="0 0 916.3 383.6" style="enable-background:new 0 0 916.3 383.6;" xml:space="preserve">
<style type="text/css">
	.st0{fill:#EEEEEE;}
	.st1{fill:#212121;}
	.st2{font-family:'Poppins-Bold';}
	.st3{font-size:46px;}
	.st4{fill:none;}
	.st5{font-family:'Poppins-Regular';}
	.st6{font-size:20px;}
</style>
<g id="Layer_1">
	<rect id="Rectangle_151" class="st0" width="916.3" height="383.6"/>
	<text transform="matrix(1 0 0 1 61.2082 115.5276)" class="st1 st2 st3">68%</text>
	<text transform="matrix(1 0 0 1 277.4785 114.8833)" class="st1 st2 st3">90%</text>
	<text transform="matrix(1 0 0 1 509.0402 114.8831)" class="st1 st2 st3">20%</text>
	<text transform="matrix(1 0 0 1 660.5159 114.883)" class="st1 st2 st3">30-200kr</text>
	<rect x="20.6" y="158.6" class="st4" width="176.8" height="139.8"/>
	<text transform="matrix(1 0 0 1 44.3489 173.3798)"><tspan x="0" y="0" class="st5 st6">Syntes det er </tspan><tspan x="-7.1" y="27" class="st5 st6">viktig at barna </tspan><tspan x="3.3" y="54" class="st5 st6">har en trygg </tspan><tspan x="8.1" y="81" class="st5 st6">plattform å </tspan><tspan x="-11.4" y="108" class="st5 st6">uttrykke seg på</tspan></text>
	<rect x="218.2" y="158.6" class="st4" width="212.8" height="182.9"/>
	<text transform="matrix(1 0 0 1 237.8564 173.3798)"><tspan x="0" y="0" class="st5 st6">Tror at barna ville </tspan><tspan x="-19.1" y="27" class="st5 st6">hatt større utbytte av </tspan><tspan x="-9.3" y="54" class="st5 st6">en nyhetsplattform </tspan><tspan x="17" y="81" class="st5 st6">med en yngre </tspan><tspan x="-9.6" y="108" class="st5 st6">tilnærming enn det </tspan><tspan x="-12.9" y="135" class="st5 st6">som eksisterer i dag</tspan></text>
	<rect x="456.8" y="158.6" class="st4" width="187.3" height="128.2"/>
	<text transform="matrix(1 0 0 1 462.4891 173.3798)"><tspan x="0" y="0" class="st5 st6">Er villig til å betale </tspan><tspan x="-0.9" y="27" class="st5 st6">for en slik tjeneste </tspan><tspan x="3.1" y="54" class="st5 st6">på vegne av sine </tspan><tspan x="64.2" y="81" class="st5 st6">barn</tspan></text>
	<rect x="664.1" y="158.6" class="st4" width="208.5" height="162.4"/>
	<text transform="matrix(1 0 0 1 680.3473 173.3798)"><tspan x="0" y="0" class="st5 st6">Er villig til å betale </tspan><tspan x="-12.1" y="27" class="st5 st6">30-200kr i måneden  </tspan><tspan x="-0.9" y="54" class="st5 st6">for en slik tjeneste </tspan><tspan x="3.1" y="81" class="st5 st6">på vegne av sine </tspan><tspan x="64.2" y="108" class="st5 st6">barn</tspan></text>
</g>
<g id="Layer_2">
</g>
</svg>
