<svg xmlns:xlink="http://www.w3.org/1999/xlink" version="1.1" class="highcharts-root" style="font-family:&quot;Open Sans Regular&quot;, &quot;Arial&quot;, &quot;DejaVu Sans&quot;, sans-serif;font-size:13px;" xmlns="http://www.w3.org/2000/svg" width="600" height="400" viewBox="0 0 600 400"><desc>Created with Highcharts 6.0.7</desc><defs><clipPath id="highcharts-lmuaigb-16"><rect x="0" y="0" width="535" height="252" fill="none"></rect></clipPath></defs><rect fill="#ffffff" class="highcharts-background" x="0" y="0" width="600" height="400" rx="0" ry="0"></rect><rect fill="none" class="highcharts-plot-background" x="55" y="87" width="535" height="252"></rect><g class="highcharts-grid highcharts-xaxis-grid "><path fill="none" stroke="#e6e6e6" stroke-width="1" class="highcharts-grid-line" d="M 68.5 87 L 68.5 339" opacity="1"></path><path fill="none" stroke="#e6e6e6" stroke-width="1" class="highcharts-grid-line" d="M 96.5 87 L 96.5 339" opacity="1"></path><path fill="none" stroke="#e6e6e6" stroke-width="1" class="highcharts-grid-line" d="M 124.5 87 L 124.5 339" opacity="1"></path><path fill="none" stroke="#e6e6e6" stroke-width="1" class="highcharts-grid-line" d="M 153.5 87 L 153.5 339" opacity="1"></path><path fill="none" stroke="#e6e6e6" stroke-width="1" class="highcharts-grid-line" d="M 181.5 87 L 181.5 339" opacity="1"></path><path fill="none" stroke="#e6e6e6" stroke-width="1" class="highcharts-grid-line" d="M 209.5 87 L 209.5 339" opacity="1"></path><path fill="none" stroke="#e6e6e6" stroke-width="1" class="highcharts-grid-line" d="M 237.5 87 L 237.5 339" opacity="1"></path><path fill="none" stroke="#e6e6e6" stroke-width="1" class="highcharts-grid-line" d="M 265.5 87 L 265.5 339" opacity="1"></path><path fill="none" stroke="#e6e6e6" stroke-width="1" class="highcharts-grid-line" d="M 293.5 87 L 293.5 339" opacity="1"></path><path fill="none" stroke="#e6e6e6" stroke-width="1" class="highcharts-grid-line" d="M 322.5 87 L 322.5 339" opacity="1"></path><path fill="none" stroke="#e6e6e6" stroke-width="1" class="highcharts-grid-line" d="M 350.5 87 L 350.5 339" opacity="1"></path><path fill="none" stroke="#e6e6e6" stroke-width="1" class="highcharts-grid-line" d="M 378.5 87 L 378.5 339" opacity="1"></path><path fill="none" stroke="#e6e6e6" stroke-width="1" class="highcharts-grid-line" d="M 406.5 87 L 406.5 339" opacity="1"></path><path fill="none" stroke="#e6e6e6" stroke-width="1" class="highcharts-grid-line" d="M 434.5 87 L 434.5 339" opacity="1"></path><path fill="none" stroke="#e6e6e6" stroke-width="1" class="highcharts-grid-line" d="M 462.5 87 L 462.5 339" opacity="1"></path><path fill="none" stroke="#e6e6e6" stroke-width="1" class="highcharts-grid-line" d="M 490.5 87 L 490.5 339" opacity="1"></path><path fill="none" stroke="#e6e6e6" stroke-width="1" class="highcharts-grid-line" d="M 519.5 87 L 519.5 339" opacity="1"></path><path fill="none" stroke="#e6e6e6" stroke-width="1" class="highcharts-grid-line" d="M 547.5 87 L 547.5 339" opacity="1"></path><path fill="none" stroke="#e6e6e6" stroke-width="1" class="highcharts-grid-line" d="M 575.5 87 L 575.5 339" opacity="1"></path></g><g class="highcharts-grid highcharts-yaxis-grid "><path fill="none" stroke="#e6e6e6" stroke-width="1" class="highcharts-grid-line" d="M 55 339.5 L 590 339.5" opacity="1"></path><path fill="none" stroke="#e6e6e6" stroke-width="1" class="highcharts-grid-line" d="M 55 289.5 L 590 289.5" opacity="1"></path><path fill="none" stroke="#e6e6e6" stroke-width="1" class="highcharts-grid-line" d="M 55 238.5 L 590 238.5" opacity="1"></path><path fill="none" stroke="#e6e6e6" stroke-width="1" class="highcharts-grid-line" d="M 55 188.5 L 590 188.5" opacity="1"></path><path fill="none" stroke="#e6e6e6" stroke-width="1" class="highcharts-grid-line" d="M 55 137.5 L 590 137.5" opacity="1"></path><path fill="none" stroke="#e6e6e6" stroke-width="1" class="highcharts-grid-line" d="M 55 86.5 L 590 86.5" opacity="1"></path></g><rect fill="none" class="highcharts-plot-border" x="55" y="87" width="535" height="252"></rect><g class="highcharts-axis highcharts-xaxis "><path fill="none" class="highcharts-tick" stroke="#ccd6eb" stroke-width="1" d="M 68.5 339 L 68.5 349" opacity="1"></path><path fill="none" class="highcharts-tick" stroke="#ccd6eb" stroke-width="1" d="M 96.5 339 L 96.5 349" opacity="1"></path><path fill="none" class="highcharts-tick" stroke="#ccd6eb" stroke-width="1" d="M 124.5 339 L 124.5 349" opacity="1"></path><path fill="none" class="highcharts-tick" stroke="#ccd6eb" stroke-width="1" d="M 153.5 339 L 153.5 349" opacity="1"></path><path fill="none" class="highcharts-tick" stroke="#ccd6eb" stroke-width="1" d="M 181.5 339 L 181.5 349" opacity="1"></path><path fill="none" class="highcharts-tick" stroke="#ccd6eb" stroke-width="1" d="M 209.5 339 L 209.5 349" opacity="1"></path><path fill="none" class="highcharts-tick" stroke="#ccd6eb" stroke-width="1" d="M 237.5 339 L 237.5 349" opacity="1"></path><path fill="none" class="highcharts-tick" stroke="#ccd6eb" stroke-width="1" d="M 265.5 339 L 265.5 349" opacity="1"></path><path fill="none" class="highcharts-tick" stroke="#ccd6eb" stroke-width="1" d="M 293.5 339 L 293.5 349" opacity="1"></path><path fill="none" class="highcharts-tick" stroke="#ccd6eb" stroke-width="1" d="M 322.5 339 L 322.5 349" opacity="1"></path><path fill="none" class="highcharts-tick" stroke="#ccd6eb" stroke-width="1" d="M 350.5 339 L 350.5 349" opacity="1"></path><path fill="none" class="highcharts-tick" stroke="#ccd6eb" stroke-width="1" d="M 378.5 339 L 378.5 349" opacity="1"></path><path fill="none" class="highcharts-tick" stroke="#ccd6eb" stroke-width="1" d="M 406.5 339 L 406.5 349" opacity="1"></path><path fill="none" class="highcharts-tick" stroke="#ccd6eb" stroke-width="1" d="M 434.5 339 L 434.5 349" opacity="1"></path><path fill="none" class="highcharts-tick" stroke="#ccd6eb" stroke-width="1" d="M 462.5 339 L 462.5 349" opacity="1"></path><path fill="none" class="highcharts-tick" stroke="#ccd6eb" stroke-width="1" d="M 490.5 339 L 490.5 349" opacity="1"></path><path fill="none" class="highcharts-tick" stroke="#ccd6eb" stroke-width="1" d="M 519.5 339 L 519.5 349" opacity="1"></path><path fill="none" class="highcharts-tick" stroke="#ccd6eb" stroke-width="1" d="M 547.5 339 L 547.5 349" opacity="1"></path><path fill="none" class="highcharts-tick" stroke="#ccd6eb" stroke-width="1" d="M 575.5 339 L 575.5 349" opacity="1"></path><path fill="none" class="highcharts-axis-line" stroke="#ccd6eb" stroke-width="1" d="M 55 339.5 L 590 339.5"></path></g><g class="highcharts-axis highcharts-yaxis "><text x="55" text-anchor="end" transform="translate(0,0)" class="highcharts-axis-title" style="color:#333;font-size:13px;font-weight:normal;fill:#333;" y="77"><tspan>Prosent</tspan></text><path fill="none" class="highcharts-axis-line" d="M 55 87 L 55 339"></path></g><g class="highcharts-series-group"><g class="highcharts-series highcharts-series-0 highcharts-line-series highcharts-color-0 " transform="translate(55,87) scale(1 1)" clip-path="url(#highcharts-lmuaigb-16)"><path fill="none" d="M 14.078947368421 201.6 L 42.236842105263 219.24 L 70.394736842105 183.95999999999998 L 98.552631578947 161.28000000000003 L 126.71052631579 120.96000000000001 L 154.86842105263 133.56 L 183.02631578947 126 L 211.18421052632 118.44 L 239.34210526316 110.88000000000002 L 267.5 108.36000000000001 L 295.65789473684 108.36000000000001 L 323.81578947368 110.88000000000002 L 351.97368421053 100.80000000000001 L 380.13157894737 85.68 L 408.28947368421 65.52000000000001 L 436.44736842105 50.400000000000006 L 464.60526315789 42.839999999999975 L 492.76315789474 32.76000000000002 L 520.92105263158 17.639999999999986" class="highcharts-graph" stroke="#1a9d49" stroke-width="2" stroke-linejoin="round" stroke-linecap="round"></path></g><g class="highcharts-markers highcharts-series-0 highcharts-line-series highcharts-color-0 " transform="translate(55,87) scale(1 1)" clip-path="none"><path fill="#1a9d49" d="M 524 18 A 4 4 0 1 1 523.9999980000001 17.996000000666665 Z" class="highcharts-point highcharts-color-0"></path></g></g><text x="10" text-anchor="start" class="highcharts-title" style="color:#333333;font-size:16px;font-weight:bold;fill:#333333;" y="22"><tspan>Figur 1. Andel barn under 18 år med vedvarende lav</tspan><tspan dy="19" x="10">husholdningsinntekt¹</tspan><title>Figur 1. Andel barn under 18 år med vedvarende lav husholdningsinntekt¹</title></text><text x="10" text-anchor="start" class="highcharts-subtitle" style="color:#333;font-size:13px;fill:#333;" y="58"></text><g class="highcharts-axis-labels highcharts-xaxis-labels "><text x="72.14307675356271" style="color:#333;cursor:default;font-size:13px;font-weight:normal;font-family:&quot;Open Sans Regular&quot;, &quot;Arial&quot;, &quot;DejaVu Sans&quot;, sans-serif;fill:#333;" text-anchor="end" transform="translate(0,0) rotate(-45 72.14307675356271 356)" y="356" opacity="1">2000</text><text x="100.3009714904047" style="color:#333;cursor:default;font-size:13px;font-weight:normal;font-family:&quot;Open Sans Regular&quot;, &quot;Arial&quot;, &quot;DejaVu Sans&quot;, sans-serif;fill:#333;" text-anchor="end" transform="translate(0,0) rotate(-45 100.3009714904047 356)" y="356" opacity="1">2001</text><text x="128.45886622725172" style="color:#333;cursor:default;font-size:13px;font-weight:normal;font-family:&quot;Open Sans Regular&quot;, &quot;Arial&quot;, &quot;DejaVu Sans&quot;, sans-serif;fill:#333;" text-anchor="end" transform="translate(0,0) rotate(-45 128.45886622725172 356)" y="356" opacity="1">2002</text><text x="156.61676096409172" style="color:#333;cursor:default;font-size:13px;font-weight:normal;font-family:&quot;Open Sans Regular&quot;, &quot;Arial&quot;, &quot;DejaVu Sans&quot;, sans-serif;fill:#333;" text-anchor="end" transform="translate(0,0) rotate(-45 156.61676096409172 356)" y="356" opacity="1">2003</text><text x="184.7746557009317" style="color:#333;cursor:default;font-size:13px;font-weight:normal;font-family:&quot;Open Sans Regular&quot;, &quot;Arial&quot;, &quot;DejaVu Sans&quot;, sans-serif;fill:#333;" text-anchor="end" transform="translate(0,0) rotate(-45 184.7746557009317 356)" y="356" opacity="1">2004</text><text x="212.9325504377717" style="color:#333;cursor:default;font-size:13px;font-weight:normal;font-family:&quot;Open Sans Regular&quot;, &quot;Arial&quot;, &quot;DejaVu Sans&quot;, sans-serif;fill:#333;" text-anchor="end" transform="translate(0,0) rotate(-45 212.9325504377717 356)" y="356" opacity="1">2005</text><text x="241.09044517461172" style="color:#333;cursor:default;font-size:13px;font-weight:normal;font-family:&quot;Open Sans Regular&quot;, &quot;Arial&quot;, &quot;DejaVu Sans&quot;, sans-serif;fill:#333;" text-anchor="end" transform="translate(0,0) rotate(-45 241.09044517461172 356)" y="356" opacity="1">2006</text><text x="269.2483399114617" style="color:#333;cursor:default;font-size:13px;font-weight:normal;font-family:&quot;Open Sans Regular&quot;, &quot;Arial&quot;, &quot;DejaVu Sans&quot;, sans-serif;fill:#333;" text-anchor="end" transform="translate(0,0) rotate(-45 269.2483399114617 356)" y="356" opacity="1">2007</text><text x="297.40623464830173" style="color:#333;cursor:default;font-size:13px;font-weight:normal;font-family:&quot;Open Sans Regular&quot;, &quot;Arial&quot;, &quot;DejaVu Sans&quot;, sans-serif;fill:#333;" text-anchor="end" transform="translate(0,0) rotate(-45 297.40623464830173 356)" y="356" opacity="1">2008</text><text x="325.5641293851417" style="color:#333;cursor:default;font-size:13px;font-weight:normal;font-family:&quot;Open Sans Regular&quot;, &quot;Arial&quot;, &quot;DejaVu Sans&quot;, sans-serif;fill:#333;" text-anchor="end" transform="translate(0,0) rotate(-45 325.5641293851417 356)" y="356" opacity="1">2009</text><text x="353.7220241219817" style="color:#333;cursor:default;font-size:13px;font-weight:normal;font-family:&quot;Open Sans Regular&quot;, &quot;Arial&quot;, &quot;DejaVu Sans&quot;, sans-serif;fill:#333;" text-anchor="end" transform="translate(0,0) rotate(-45 353.7220241219817 356)" y="356" opacity="1">2010</text><text x="381.8799188588217" style="color:#333;cursor:default;font-size:13px;font-weight:normal;font-family:&quot;Open Sans Regular&quot;, &quot;Arial&quot;, &quot;DejaVu Sans&quot;, sans-serif;fill:#333;" text-anchor="end" transform="translate(0,0) rotate(-45 381.8799188588217 356)" y="356" opacity="1">2011</text><text x="410.0378135956717" style="color:#333;cursor:default;font-size:13px;font-weight:normal;font-family:&quot;Open Sans Regular&quot;, &quot;Arial&quot;, &quot;DejaVu Sans&quot;, sans-serif;fill:#333;" text-anchor="end" transform="translate(0,0) rotate(-45 410.0378135956717 356)" y="356" opacity="1">2012</text><text x="438.1957083325117" style="color:#333;cursor:default;font-size:13px;font-weight:normal;font-family:&quot;Open Sans Regular&quot;, &quot;Arial&quot;, &quot;DejaVu Sans&quot;, sans-serif;fill:#333;" text-anchor="end" transform="translate(0,0) rotate(-45 438.1957083325117 356)" y="356" opacity="1">2013</text><text x="466.3536030693517" style="color:#333;cursor:default;font-size:13px;font-weight:normal;font-family:&quot;Open Sans Regular&quot;, &quot;Arial&quot;, &quot;DejaVu Sans&quot;, sans-serif;fill:#333;" text-anchor="end" transform="translate(0,0) rotate(-45 466.3536030693517 356)" y="356" opacity="1">2014</text><text x="494.5114978061917" style="color:#333;cursor:default;font-size:13px;font-weight:normal;font-family:&quot;Open Sans Regular&quot;, &quot;Arial&quot;, &quot;DejaVu Sans&quot;, sans-serif;fill:#333;" text-anchor="end" transform="translate(0,0) rotate(-45 494.5114978061917 356)" y="356" opacity="1">2015</text><text x="522.6693925430317" style="color:#333;cursor:default;font-size:13px;font-weight:normal;font-family:&quot;Open Sans Regular&quot;, &quot;Arial&quot;, &quot;DejaVu Sans&quot;, sans-serif;fill:#333;" text-anchor="end" transform="translate(0,0) rotate(-45 522.6693925430317 356)" y="356" opacity="1">2016</text><text x="550.8272872798816" style="color:#333;cursor:default;font-size:13px;font-weight:normal;font-family:&quot;Open Sans Regular&quot;, &quot;Arial&quot;, &quot;DejaVu Sans&quot;, sans-serif;fill:#333;" text-anchor="end" transform="translate(0,0) rotate(-45 550.8272872798816 356)" y="356" opacity="1">2017</text><text x="578.9851820167216" style="color:#333;cursor:default;font-size:13px;font-weight:normal;font-family:&quot;Open Sans Regular&quot;, &quot;Arial&quot;, &quot;DejaVu Sans&quot;, sans-serif;fill:#333;" text-anchor="end" transform="translate(0,0) rotate(-45 578.9851820167216 356)" y="356" opacity="1">2018</text></g><g class="highcharts-axis-labels highcharts-yaxis-labels "><text x="40" style="color:#333;cursor:default;font-size:13px;font-weight:normal;font-family:&quot;Open Sans Regular&quot;, &quot;Arial&quot;, &quot;DejaVu Sans&quot;, sans-serif;fill:#333;" text-anchor="end" transform="translate(0,0)" y="345" opacity="1">2</text><text x="40" style="color:#333;cursor:default;font-size:13px;font-weight:normal;font-family:&quot;Open Sans Regular&quot;, &quot;Arial&quot;, &quot;DejaVu Sans&quot;, sans-serif;fill:#333;" text-anchor="end" transform="translate(0,0)" y="294" opacity="1">4</text><text x="40" style="color:#333;cursor:default;font-size:13px;font-weight:normal;font-family:&quot;Open Sans Regular&quot;, &quot;Arial&quot;, &quot;DejaVu Sans&quot;, sans-serif;fill:#333;" text-anchor="end" transform="translate(0,0)" y="244" opacity="1">6</text><text x="40" style="color:#333;cursor:default;font-size:13px;font-weight:normal;font-family:&quot;Open Sans Regular&quot;, &quot;Arial&quot;, &quot;DejaVu Sans&quot;, sans-serif;fill:#333;" text-anchor="end" transform="translate(0,0)" y="193" opacity="1">8</text><text x="40" style="color:#333;cursor:default;font-size:13px;font-weight:normal;font-family:&quot;Open Sans Regular&quot;, &quot;Arial&quot;, &quot;DejaVu Sans&quot;, sans-serif;fill:#333;" text-anchor="end" transform="translate(0,0)" y="143" opacity="1">10</text><text x="40" style="color:#333;cursor:default;font-size:13px;font-weight:normal;font-family:&quot;Open Sans Regular&quot;, &quot;Arial&quot;, &quot;DejaVu Sans&quot;, sans-serif;fill:#333;" text-anchor="end" transform="translate(0,0)" y="93" opacity="1">12</text></g><text x="0" class="highcharts-credits" text-anchor="start" style="cursor:pointer;color:#333;font-size:11px;fill:#333;" y="395"><tspan>Kilde: Inntekts- og formuesstatistikk for husholdninger, Statistisk sentralbyrå.</tspan></text></svg>