<svg xmlns="http://www.w3.org/2000/svg" width="602" height="108.943" viewBox="0 0 602 108.943">
  <g id="Group_365" data-name="Group 365" transform="translate(-920 -3315.057)">
    <g id="Figma-logo" transform="translate(921 3315.057)">
      <path id="path0_fill" d="M13.533,227.065a13.537,13.537,0,0,0,13.533-13.533V200H13.533a13.533,13.533,0,1,0,0,27.065Z" transform="translate(0 -145.87)" fill="#0acf83"/>
      <path id="path1_fill" d="M0,113.533A13.537,13.537,0,0,1,13.533,100H27.065v27.065H13.533A13.538,13.538,0,0,1,0,113.533Z" transform="translate(0 -72.935)" fill="#a259ff"/>
      <path id="path1_fill_1_" d="M0,13.533A13.537,13.537,0,0,1,13.533,0H27.065V27.065H13.533A13.537,13.537,0,0,1,0,13.533Z" transform="translate(0 0)" fill="#f24e1e"/>
      <path id="path2_fill" d="M100,0h13.533a13.533,13.533,0,1,1,0,27.065H100Z" transform="translate(-72.935 0)" fill="#ff7262"/>
      <path id="path3_fill" d="M127.065,113.533A13.533,13.533,0,1,1,113.533,100,13.538,13.538,0,0,1,127.065,113.533Z" transform="translate(-72.935 -72.935)" fill="#1abcfe"/>
    </g>
    <g id="Adobe_InDesign_CC_icon" transform="translate(1031 3315.057)">
      <path id="Path_247" data-name="Path 247" d="M14.747,0H68.53A14.735,14.735,0,0,1,83.277,14.747v51.7A14.735,14.735,0,0,1,68.53,81.2H14.747A14.735,14.735,0,0,1,0,66.448v-51.7A14.735,14.735,0,0,1,14.747,0Z" transform="translate(0 0)" fill="#49021f"/>
      <g id="Outlined_Mnemonics_Logos" transform="translate(22.52 17.795)">
        <g id="Id">
          <path id="Path_248" data-name="Path 248" d="M72.638,60.341v35.6c0,.382-.174.555-.486.555h-6.8c-.312,0-.451-.174-.451-.555v-35.6c0-.312.174-.451.486-.451h6.766a.392.392,0,0,1,.451.347A.127.127,0,0,1,72.638,60.341Z" transform="translate(-64.9 -56.901)" fill="#f36"/>
          <path id="Path_249" data-name="Path 249" d="M117.306,91.436a17.251,17.251,0,0,1-7.46-1.561,12.1,12.1,0,0,1-5.24-4.719,15.014,15.014,0,0,1-1.908-7.911,14.251,14.251,0,0,1,1.908-7.321,14.409,14.409,0,0,1,5.517-5.378,17.749,17.749,0,0,1,8.779-2.013,6.2,6.2,0,0,1,.729.035c.312.035.659.035,1.076.069V51.672c0-.243.1-.382.347-.382H128.1a.311.311,0,0,1,.347.243v33.1c0,.625.035,1.319.069,2.082.069.729.1,1.423.139,2.013a.563.563,0,0,1-.347.555,26.5,26.5,0,0,1-5.656,1.666A30.3,30.3,0,0,1,117.306,91.436Zm3.4-6.94V69.229a8.873,8.873,0,0,0-.937-.173c-.382-.035-.763-.069-1.145-.069a8.554,8.554,0,0,0-3.921.9,7.778,7.778,0,0,0-2.949,2.568,7.692,7.692,0,0,0-1.145,4.407,9.67,9.67,0,0,0,.59,3.574A6.782,6.782,0,0,0,112.76,82.9a6,6,0,0,0,2.36,1.388,9.083,9.083,0,0,0,2.88.451c.52,0,1.006-.035,1.457-.069A2.955,2.955,0,0,0,120.706,84.5Z" transform="translate(-89.581 -51.284)" fill="#f36"/>
        </g>
      </g>
    </g>
    <g id="Layer_2_1_" transform="translate(1428 3315.057)">
      <g id="Surfaces" transform="translate(0 0)">
        <g id="Video_Audio_Surface">
          <g id="Outline_no_shadow">
            <path id="Path_250" data-name="Path 250" d="M14.747,0H68.53A14.735,14.735,0,0,1,83.277,14.747v51.7A14.735,14.735,0,0,1,68.53,81.2H14.747A14.735,14.735,0,0,1,0,66.448v-51.7A14.735,14.735,0,0,1,14.747,0Z" fill="#00005b"/>
          </g>
        </g>
      </g>
      <g id="Outlined_Mnemonics_Logos-2" data-name="Outlined_Mnemonics_Logos" transform="translate(19.778 20.646)">
        <g id="Pr">
          <path id="Path_251" data-name="Path 251" d="M57,95.8V60.09c0-.243.1-.382.347-.382.59,0,1.145,0,1.943-.035.833-.035,1.7-.035,2.637-.069s1.943-.035,3.019-.069S67.063,59.5,68.1,59.5a20.4,20.4,0,0,1,7.148,1.076,12.391,12.391,0,0,1,4.65,2.845,11.048,11.048,0,0,1,2.533,3.956,13.281,13.281,0,0,1,.8,4.511,12.405,12.405,0,0,1-2.082,7.391,11.888,11.888,0,0,1-5.587,4.233,22.488,22.488,0,0,1-7.807,1.18c-.833,0-1.388,0-1.735-.035s-.833-.035-1.492-.035V95.76a.432.432,0,0,1-.382.486H57.416C57.139,96.246,57,96.107,57,95.8Zm7.564-29.39V78.064c.486.035.937.069,1.353.069h1.839a12.961,12.961,0,0,0,3.99-.625,5.967,5.967,0,0,0,2.845-1.839A5.362,5.362,0,0,0,75.668,72.1a5.711,5.711,0,0,0-.8-3.088,5.032,5.032,0,0,0-2.429-1.978,10.182,10.182,0,0,0-4.094-.694c-.9,0-1.7,0-2.36.035a7.946,7.946,0,0,0-1.423.035Z" transform="translate(-57 -59.5)" fill="#99f"/>
          <path id="Path_252" data-name="Path 252" d="M145.934,84.082h6.072a.781.781,0,0,1,.729.555,3.522,3.522,0,0,1,.208.867c.069.347.139.729.174,1.076.035.382.069.8.069,1.249a12.914,12.914,0,0,1,3.713-2.984,10.754,10.754,0,0,1,5.274-1.353.432.432,0,0,1,.486.382v6.905c0,.278-.173.382-.555.382a15.087,15.087,0,0,0-3.747.347,14.279,14.279,0,0,0-2.915.937,5.394,5.394,0,0,0-1.77,1.284v17.7c0,.347-.139.486-.451.486h-6.836a.48.48,0,0,1-.555-.416V92.132c0-.833,0-1.7-.035-2.6s-.035-1.8-.069-2.707c0-.8-.069-1.561-.139-2.36a.32.32,0,0,1,.243-.382c0-.035.069-.035.1,0Z" transform="translate(-114.844 -75.164)" fill="#99f"/>
        </g>
      </g>
    </g>
    <g id="Layer_2_1_2" data-name="Layer_2_1_" transform="translate(1168.723 3315.057)">
      <g id="Surfaces-2" data-name="Surfaces" transform="translate(0 0)">
        <g id="Drawing_Surface">
          <g id="Outline_no_shadow-2" data-name="Outline_no_shadow">
            <path id="Path_253" data-name="Path 253" d="M14.747,0H68.53A14.735,14.735,0,0,1,83.277,14.747v51.7A14.735,14.735,0,0,1,68.53,81.2H14.747A14.735,14.735,0,0,1,0,66.448v-51.7A14.735,14.735,0,0,1,14.747,0Z" fill="#300"/>
          </g>
        </g>
      </g>
      <g id="Outlined_Mnemonics_Logos-3" data-name="Outlined_Mnemonics_Logos" transform="translate(17.207 18.009)">
        <g id="Ai">
          <path id="Path_254" data-name="Path 254" d="M72.738,87.833H59.83l-2.637,8.154a.607.607,0,0,1-.659.486H50.01c-.382,0-.486-.208-.382-.625L60.8,63.682c.1-.347.208-.729.347-1.145a12.12,12.12,0,0,0,.208-2.255.344.344,0,0,1,.278-.382h8.987c.278,0,.416.1.451.278l12.665,35.74c.1.382,0,.555-.347.555H76.138a.524.524,0,0,1-.555-.382Zm-10.9-7.044h8.814c-.208-.729-.486-1.6-.8-2.5-.312-.937-.625-1.943-.937-2.984-.347-1.076-.659-2.117-1.006-3.192s-.659-2.082-.937-3.088c-.278-.972-.52-1.874-.763-2.707h-.069a42.6,42.6,0,0,1-1.18,4.476c-.52,1.666-1.041,3.4-1.6,5.135-.486,1.77-1.006,3.4-1.527,4.858Z" transform="translate(-49.59 -57.124)" fill="#ff9a00"/>
          <path id="Path_255" data-name="Path 255" d="M161.764,60.609a4.294,4.294,0,0,1-3.088-1.214A4.508,4.508,0,0,1,157.5,56.2a4.082,4.082,0,0,1,1.249-3.088,4.444,4.444,0,0,1,3.088-1.214,4.155,4.155,0,0,1,3.158,1.214,4.77,4.77,0,0,1-.069,6.28A4.08,4.08,0,0,1,161.764,60.609Zm-3.886,30.119V64.01c0-.347.139-.486.451-.486h6.87c.312,0,.451.174.451.486V90.728c0,.382-.139.555-.451.555h-6.8A.486.486,0,0,1,157.878,90.728Z" transform="translate(-120.053 -51.9)" fill="#ff9a00"/>
        </g>
      </g>
    </g>
    <g id="Layer_2_1_3" data-name="Layer_2_1_" transform="translate(1300 3315.057)">
      <g id="Surfaces-3" data-name="Surfaces" transform="translate(0 0)">
        <g id="Photo_Surface">
          <g id="Outline_no_shadow-3" data-name="Outline_no_shadow">
            <path id="Path_256" data-name="Path 256" d="M14.747,0H68.53A14.735,14.735,0,0,1,83.277,14.747v51.7A14.735,14.735,0,0,1,68.53,81.2H14.747A14.735,14.735,0,0,1,0,66.448v-51.7A14.735,14.735,0,0,1,14.747,0Z" fill="#001e36"/>
          </g>
        </g>
      </g>
      <g id="Outlined_Mnemonics_Logos-4" data-name="Outlined_Mnemonics_Logos" transform="translate(18.737 20.646)">
        <g id="Ps">
          <path id="Path_257" data-name="Path 257" d="M54,95.8V60.09c0-.243.1-.382.347-.382.59,0,1.145,0,1.943-.035.833-.035,1.7-.035,2.637-.069s1.943-.035,3.019-.069S64.063,59.5,65.1,59.5a20.4,20.4,0,0,1,7.148,1.076,12.391,12.391,0,0,1,4.65,2.845,11.048,11.048,0,0,1,2.533,3.956,13.281,13.281,0,0,1,.8,4.511,12.405,12.405,0,0,1-2.082,7.391,11.888,11.888,0,0,1-5.587,4.233,22.488,22.488,0,0,1-7.807,1.18c-.833,0-1.388,0-1.735-.035s-.833-.035-1.492-.035V95.76a.432.432,0,0,1-.382.486H54.416C54.139,96.246,54,96.107,54,95.8Zm7.564-29.39V78.064c.486.035.937.069,1.353.069h1.839a12.961,12.961,0,0,0,3.99-.625,5.967,5.967,0,0,0,2.845-1.839A5.362,5.362,0,0,0,72.668,72.1a5.711,5.711,0,0,0-.8-3.088,5.032,5.032,0,0,0-2.429-1.978,10.182,10.182,0,0,0-4.094-.694c-.9,0-1.7,0-2.36.035a7.946,7.946,0,0,0-1.423.035Z" transform="translate(-54 -59.5)" fill="#31a8ff"/>
          <path id="Path_258" data-name="Path 258" d="M158.231,92.142a12.281,12.281,0,0,0-3.331-1.18,18.291,18.291,0,0,0-3.886-.451,6.986,6.986,0,0,0-2.082.243,1.782,1.782,0,0,0-1.076.694,1.839,1.839,0,0,0-.278.937,1.543,1.543,0,0,0,.347.9,3.915,3.915,0,0,0,1.18.937c.8.416,1.631.8,2.464,1.145a25.132,25.132,0,0,1,5.344,2.533,8.074,8.074,0,0,1,2.741,2.88,7.49,7.49,0,0,1,.8,3.574,8.073,8.073,0,0,1-1.353,4.615,8.7,8.7,0,0,1-3.886,3.088,15.9,15.9,0,0,1-6.281,1.11,23.9,23.9,0,0,1-4.719-.451,14,14,0,0,1-3.539-1.11.682.682,0,0,1-.382-.659v-6.038a.377.377,0,0,1,.139-.312.264.264,0,0,1,.312.035,14.854,14.854,0,0,0,4.3,1.7,16.154,16.154,0,0,0,4.094.52,6.623,6.623,0,0,0,2.88-.486,1.612,1.612,0,0,0,.937-1.457,1.838,1.838,0,0,0-.833-1.388,14.716,14.716,0,0,0-3.4-1.631,21.231,21.231,0,0,1-4.927-2.5,8.984,8.984,0,0,1-2.637-2.949,7.445,7.445,0,0,1-.8-3.539,8.161,8.161,0,0,1,1.18-4.2,8.553,8.553,0,0,1,3.643-3.192,13.456,13.456,0,0,1,6.142-1.214,29.912,29.912,0,0,1,4.3.312,12.209,12.209,0,0,1,2.984.8.61.61,0,0,1,.347.312,1.742,1.742,0,0,1,.069.416v5.656a.427.427,0,0,1-.174.347A.924.924,0,0,1,158.231,92.142Z" transform="translate(-110.347 -75.695)" fill="#31a8ff"/>
        </g>
      </g>
    </g>
    <text id="Indesign" transform="translate(1073 3418)" font-size="16" font-family="Poppins-Medium, Poppins" font-weight="500"><tspan x="-34.48" y="0">Indesign</tspan></text>
    <text id="Indesign-2" data-name="Indesign" transform="translate(946 3418)" font-size="16" font-family="Poppins-Medium, Poppins" font-weight="500"><tspan x="-25.264" y="0">Figma</tspan></text>
    <text id="Indesign-3" data-name="Indesign" transform="translate(1210.723 3418)" font-size="16" font-family="Poppins-Medium, Poppins" font-weight="500"><tspan x="-38.496" y="0">Illustrator</tspan></text>
    <text id="Indesign-4" data-name="Indesign" transform="translate(1342 3418)" font-size="16" font-family="Poppins-Medium, Poppins" font-weight="500"><tspan x="-43.232" y="0">Photoshop</tspan></text>
    <text id="Indesign-5" data-name="Indesign" transform="translate(1470 3418)" font-size="16" font-family="Poppins-Medium, Poppins" font-weight="500"><tspan x="-51.184" y="0">Premiere Pro</tspan></text>
  </g>
</svg>
