<svg xmlns="http://www.w3.org/2000/svg" width="589" height="107.001" viewBox="0 0 589 107.001">
  <g id="Group_367" data-name="Group 367" transform="translate(-931 -3919.999)">
    <text id="Indesign" transform="translate(944 4021)" font-size="16" font-family="Poppins-Medium, Poppins" font-weight="500"><tspan x="0" y="0">Notion</tspan></text>
    <path id="Cib-notion__CoreUI_Icons_v1.0.0_" data-name="Cib-notion_(CoreUI_Icons_v1.0.0)" d="M14.092,14.232c2.512,2.048,3.463,1.9,8.205,1.586L67,13.136c.951,0,.16-.951-.16-1.111L59.417,6.659A8.935,8.935,0,0,0,52.465,4.6L9.188,7.767c-1.586.145-1.9.939-1.269,1.573ZM16.774,24.66v47.03c0,2.525,1.256,3.476,4.1,3.316l49.134-2.842c2.842-.16,3.172-1.89,3.172-3.95V21.5c0-2.063-.794-3.159-2.537-3L19.3,21.5c-1.9.16-2.525,1.1-2.525,3.146Zm48.5,2.509c.317,1.428,0,2.842-1.428,3.014l-2.365.477V65.375a12.306,12.306,0,0,1-5.524,1.746c-2.537,0-3.172-.794-5.062-3.159L35.408,39.648V63.17l4.9,1.111s0,2.842-3.95,2.842l-10.9.634a2.024,2.024,0,0,1,1.111-2.525l2.842-.794V33.345l-3.95-.317a2.954,2.954,0,0,1,2.682-3.633L39.835,28.6,55.957,53.232V31.44l-4.11-.477a2.655,2.655,0,0,1,2.525-3.146ZM5.554,3.5,50.578.186C56.1-.291,57.53.026,61,2.551L75.382,12.659c2.365,1.73,3.159,2.207,3.159,4.1V72.168c0,3.476-1.269,5.524-5.683,5.841L20.552,81.167c-3.3.16-4.889-.317-6.635-2.525L3.332,64.9C1.442,62.374.65,60.484.65,58.279V9.028c0-2.842,1.269-5.206,4.9-5.524Z" transform="translate(930.35 3920)"/>
    <g id="Rectangle_217" data-name="Rectangle 217" transform="translate(1452 3920)" fill="#fff" stroke="#707070" stroke-width="1" opacity="0">
      <rect width="68" height="80" stroke="none"/>
      <rect x="0.5" y="0.5" width="67" height="79" fill="none"/>
    </g>
  </g>
</svg>
