<svg xmlns="http://www.w3.org/2000/svg" width="43.295" height="43.295" viewBox="0 0 43.295 43.295">
  <path id="Icon_ionic-ios-arrow-dropdown-circle" data-name="Icon ionic-ios-arrow-dropdown-circle" d="M3.375,25.022A21.647,21.647,0,1,0,25.022,3.375,21.644,21.644,0,0,0,3.375,25.022Zm30.088-4.517a2.016,2.016,0,0,1,2.841,0,1.984,1.984,0,0,1,.583,1.415,2.019,2.019,0,0,1-.593,1.426L26.479,33.13a2.006,2.006,0,0,1-2.768-.062l-9.96-9.929A2.009,2.009,0,0,1,16.592,20.3l8.44,8.524Z" transform="translate(-3.375 -3.375)" fill="#0e004e"/>
</svg>
