<svg xmlns="http://www.w3.org/2000/svg" width="80" height="80" viewBox="0 0 80 80">
  <g id="Group_110" data-name="Group 110" transform="translate(-1058 -6357)">
    <rect id="Rectangle_80" data-name="Rectangle 80" width="80" height="80" rx="10" transform="translate(1058 6357)" fill="#fff6e8"/>
    <path id="Icon_ionic-logo-github" data-name="Icon ionic-logo-github" d="M27.705,2.25C13.648,2.25,2.25,13.944,2.25,28.353A26.053,26.053,0,0,0,19.66,53.115a2,2,0,0,0,.432.045,1.232,1.232,0,0,0,1.307-1.3c0-.625-.023-2.261-.034-4.443a11.637,11.637,0,0,1-2.568.307c-4.9,0-6.012-3.807-6.012-3.807C11.625,40.91,9.955,40.1,9.955,40.1c-2.216-1.557-.011-1.6.159-1.6h.011a5.472,5.472,0,0,1,3.9,2.7,5,5,0,0,0,4.5,2.852,7.154,7.154,0,0,0,2.909-.682,5.639,5.639,0,0,1,1.614-3.489c-5.648-.659-11.591-2.9-11.591-12.9a10.217,10.217,0,0,1,2.614-7,9.609,9.609,0,0,1,.25-6.909,2.118,2.118,0,0,1,.568-.057c.92,0,3,.352,6.432,2.739a23.662,23.662,0,0,1,12.75,0c3.432-2.386,5.512-2.739,6.432-2.739a2.118,2.118,0,0,1,.568.057,9.609,9.609,0,0,1,.25,6.909,10.258,10.258,0,0,1,2.614,7c0,10.023-5.955,12.228-11.625,12.875a6.329,6.329,0,0,1,1.727,4.83C34.035,48.183,34,51,34,51.854a1.225,1.225,0,0,0,1.3,1.307,2.2,2.2,0,0,0,.455-.045,26.049,26.049,0,0,0,17.41-24.762C53.161,13.944,41.763,2.25,27.705,2.25Z" transform="translate(1070.195 6369.294)" fill="#0e004e"/>
  </g>
</svg>
