<?xml version="1.0" encoding="utf-8"?>
<!-- Generator: Adobe Illustrator 25.1.0, SVG Export Plug-In . SVG Version: 6.00 Build 0)  -->
<svg version="1.1" id="Layer_1" xmlns="http://www.w3.org/2000/svg" xmlns:xlink="http://www.w3.org/1999/xlink" x="0px" y="0px"
	 viewBox="0 0 1534.5 1562.9" style="enable-background:new 0 0 1534.5 1562.9;" xml:space="preserve">
<style type="text/css">
	.st0{fill:#FFF6E8;}
	.st1{fill:#0E004E;}
	.st2{fill:#0E004E;stroke:#FFFFFF;stroke-width:2;stroke-miterlimit:10;}
	.st3{fill:#B57016;stroke:#0E004E;stroke-miterlimit:10;}
	.st4{fill:#B57016;}
	.st5{fill:#FFFFFF;stroke:#0E004E;stroke-miterlimit:10;}
	.st6{fill:#EBEEF7;stroke:#0E004E;stroke-miterlimit:10;}
	.st7{fill:#0E004E;stroke:#FFFFFF;stroke-miterlimit:10;}
	.st8{fill:#8164D9;stroke:#0E004E;stroke-miterlimit:10;}
	.st9{fill:none;stroke:#FFFFFF;stroke-miterlimit:10;}
	.st10{fill:none;stroke:#0E004E;stroke-miterlimit:10;}
	.st11{fill:none;stroke:#1B1023;stroke-miterlimit:10;}
	.st12{fill:#FCBD2C;}
	.st13{fill:none;stroke:#FFF6E8;stroke-miterlimit:10;}
</style>
<g id="Layer_2_1_">
	<g id="pc-sky">
		<path id="Path_40" class="st0" d="M894,999.1c-86.6-127.8-142.4-107-218-95.2c-110.2,17.1-256.4-7.1-358-91s-29-87.6-128-170.2
			c-87.4-72.9-190-43-190-43V0h1227.7c0,0-29.9,76,42.4,117.4s109.4,50,195,158.9s85.9,334.9,35,458.3
			c-30.8,76.4-88.1,167.9-139.1,237.1c-17.2,26.5-181.6,214.8-180.9,215.3c1.8,1.2-66.7,11.6-100,21.1
			C1059.2,1053.4,956.5,1097.7,894,999.1z"/>
	</g>
	<g id="Jente">
		<g>
			<path class="st1" d="M684.3,1316.2c-11.1-0.5-20.1-1-22.5,1.3l-0.6,1.7c0.3,2.7,11.2,4.3,20.2,4.1h0.8h0.7c0-0.1,0.1-0.2,0.1-0.3
				C683.5,1320.8,684,1318.5,684.3,1316.2z"/>
			<path class="st1" d="M630.8,1279.7c-5.3,7-1.6,9.4-1.6,9.4c3.2-2.1,6.2-4.5,9-7C636,1281.4,633.5,1280.6,630.8,1279.7z"/>
			<path class="st2" d="M503.4,1357.5c-4.9,2.7-17.6,11.2-40.8,36.7c5.5,3.2,11.4,7.2,16,10c17.1-17,30.1-34,28-45.1
				c-0.2-1.2-1.3-2-2.6-1.8C503.8,1357.3,503.6,1357.4,503.4,1357.5z"/>
			<path class="st3" d="M492.5,1119.1c0.6,4.4,1.4,8,1.5,8.7C493.9,1127.2,493.3,1123.7,492.5,1119.1z"/>
			<path class="st1" d="M1146.6,1324.9c0,0-2.7,27.1-2.8,33.4s-13.8,2.8-13.8,2.8s7.8-19.9,11.9-27.1
				C1145.2,1328.1,1146.6,1324.9,1146.6,1324.9z"/>
			<path class="st1" d="M706.3,1193c-12.4,14-7.9,36.8,9.3,42.5l11.6-10.5c0,0-11.2-4-3.7-9.6s5.4,4.2,15.2-1.7s5.6-17.8,13.5-15.8
				c2.3,0.6,4.6,2.9,6.5,6.1c2.1-3.9,3.4-9.7-1.9-15.8c-7.8-9-26-9.6-39.9-2.8c-2,0.9-3.8,2-5.6,3.3
				C709.4,1189.8,707.8,1191.3,706.3,1193z"/>
			<path class="st1" d="M467.2,1114c6.7,21,6.7,19.8,6.7,19.8c1.2,0-11.1-42-4.9-45.7s14.1,41.5,15.4,41.2s-11.2-36.1-4.2-40.7
				c5-3.2,9.8,18,12.2,30.5c-0.7-4.8-1.2-10.6-0.7-14.9c0.3-2.9,1.1-5.2,2.6-6c4.9-2.6,7.4,27.3,8.2,39.2
				c5.6-8.2,7.8-19.7,13.6-15.2c7.6,5.9-11.8,11.6,2.4,50.8c2.1,5.7,7.2,11.2,14.4,16.4c28.6-10.5,51.7-0.6,82.4,7.1
				c29.7,7.4,80.2-12.3,90.8-3.6c1.5-1.7,3.1-3.1,4.9-4.4c1.8-1.3,3.6-2.4,5.6-3.3c-7.6-4.1-16.4-11.7-11.6-23.5
				c7.9-19.5,41.8-45.7,21.8-72.7s-76.5-11.5-96.4-38.8c-18.4-25.2-17-48.5-40-65c-33.8-24.3-86.2,17.6-111.7,16.1
				c-19.8-1.1-37-10.9-59.7-12.7c-17.6-1.4-104,2.9-85.3,97c14.4,72.3,107.4,51.2,132,51.2C457.9,1104.9,466.9,1113.1,467.2,1114z"
				/>
			<path class="st4" d="M766.2,1309c0.1,0,0-0.4-0.2-1.1l-0.2,0.1C765.9,1308.3,766.1,1308.7,766.2,1309z"/>
			<polygon class="st5" points="1131.9,1353.3 1176,1354.1 1202.8,1368.1 1189.9,1398.9 1167.3,1401.8 1114.2,1411 1104.2,1405.7 
				1128.5,1353.2 			"/>
			<path class="st1" d="M746.2,1310c-2.1,4.6-3.3,9.6-3.6,14.6c5.6-1.6,26.5-8,23.7-15.6c-0.1-0.4-0.3-0.7-0.5-1
				C762.8,1302.4,755.5,1306.6,746.2,1310z"/>
			<path class="st1" d="M663.4,1228.5c-1.8,0.2-4,2.3-6.6,5.7l6.1,1.4C663.2,1233.2,663.4,1230.9,663.4,1228.5z"/>
			<path class="st1" d="M1115.4,1411c-2,10.2-3.3,20.5-3.8,30.9c9.5-6.9,16.4-19.7,21.5-34.3L1115.4,1411L1115.4,1411z"/>
			<path class="st6" d="M1247.6,1299.9c-6.4,12.2-7.9,15.6-7.9,15.6l-25.9,14l4.9,13.7l-4.9-13.7l-8.5,4.6l5.6,13.1l-5.6-13.1
				l-7,3.8l5.2,12.6l-5.2-12.6l-18,9.7c0,0-7.6,4.9-1.5,10.2c3,2.6,12.7,5.3,13.5,16.4s-5.6,16.6-7.7,18.4s-15.6,1.6-17,5.1
				s-0.3,3.9-0.3,3.9l40.6,22.2l53.9-129.2C1255.9,1293.9,1250.2,1294.9,1247.6,1299.9z"/>
			<path class="st5" d="M478.9,1404.4c-4.5-2.7-9.7-5.8-15.2-9c-13.1-7.7-27.7-16.1-38.1-21.4c-0.5,0.9-1.1,1.7-1.9,2.3
				c-2.8,2.5-14.9-3.4-17.5-2.6s-10.8,3-14.8,13.4s3.6,17,5.2,20.6c1.1,2.4,0.8,4.2-0.1,5.5l30.9,26.7l5.9,5.1
				C447,1433.8,464.4,1419,478.9,1404.4z"/>
			<path class="st6" d="M396.6,1407.7c-1.6-3.6-9.2-10.2-5.2-20.6s12.1-12.7,14.8-13.4s14.8,5.1,17.5,2.6c0.8-0.6,1.4-1.4,1.9-2.3
				c0.3-0.8,0-1.1,0-1.1l-27.3-37.4l0,0l-103.9,94.4l0,0c5,3,10.6,4.6,15.1,1.1c11-8.3,13.8-10.8,13.8-10.8l29.4-1.7l9.6-0.6l0,0
				l0.5-14.3l-0.5,14.3l8-0.5l0.7-13.6l-0.7,13.6l0,0l20.5-1.2c0,0,4-0.6,5.7-3.1C397.4,1411.9,397.6,1410.1,396.6,1407.7z
				 M352.8,1418.4l1.5-14.5L352.8,1418.4z"/>
			<path class="st1" d="M427.4,1439.8c-5.3,7-11,14.7-17,22.9c0.5-0.3,10-7.4,22.9-17.8L427.4,1439.8z"/>
			<path class="st7" d="M410.4,1462.7c0.5-0.3,10-7.4,22.9-17.8"/>
			<path class="st1" d="M1114.2,1411c4-19.8,9.9-39.1,17.7-57.7c3.9-9.7,8.5-19.1,13.5-28.3c-9.4-12.7-336.3-2.3-398.1-0.2l-2.8,0.1
				l0,0h-2l-0.2,0.1c-32.1-19.8-50.1,5.7-59.9-0.9l-0.3-0.2c-10.2,6.2-24.6,19.8-28.5,40.8c-5.6,30.4,17.6,57.6,16.5,67.2
				c-0.4,3.2-2.5,5.9-5.2,8.1c-63.3-23.9-158.7-82.4-158.7-82.4c4.4,10.2-9.1,28.4-27.4,46.8c-14.5,14.7-31.9,29.5-45.6,40.5
				c-12.9,10.4-22.4,17.5-22.9,17.8l0,0c27.2,10.5,234.9,122.6,336.1,96.2c65.3-17,44.4-88.2,21.4-136.6
				c-7.6-16-16.2-31.4-25.9-46.2c9.7,14.8,18.3,30.2,25.9,46.2c80.2-5.5,342.6,19.6,342.6,19.6
				C1111,1431.5,1112.3,1421.1,1114.2,1411L1114.2,1411z M665,1440c14.2,4.1,11.7,1.8,14.5,1.6C676.6,1441.8,679.2,1444.1,665,1440z
				"/>
			<path class="st8" d="M759,1290.8c0,0,4.8,13.4,6,17.3l-0.2,0.1c-3-5.6-10.2-1.4-19.6,2c-2.3,0.9-4.7,1.6-7.1,2.2
				c-14,3.3-41.3,4.6-54.6,4h-0.1c-11.1-0.5-20.1-1-22.5,1.3l8.9-25.8c-16.4,4.5-41.5-2.6-41.5-2.6c3.2-2.1,6.2-4.5,9-7
				c13.5-12.1,22.3-28.6,24.7-46.5c0.3-2.3,0.5-4.7,0.5-7.1l47.3,11.5v0.1l0,0c-0.1,1.6,0,16.1,18.9,18.5c1.8,0.2,3.6,0.4,5.4,0.4
				c14.6,0.2,14.7-8.3,14.7-8.3l58.8-23.3c1.5,1.4,2.8,2.9,4.1,4.4c14.6,17.3,12,36.9,8.9,47.7c-0.8,2.8-1.8,5.6-3.1,8.3l-52.4,20.2
				L759,1290.8z"/>
		</g>
		<path class="st9" d="M489.5,1478.3c0,0,118.5,86.1,264.1,78.4"/>
		<path class="st9" d="M522.2,1481.9c0,0,105.2,71.4,250.8,63.7"/>
	</g>
	<g id="Jente-outline">
		<g>
			<path class="st10" d="M682.2,1323.4h-0.7h-0.8c-9,0.2-19.8-1.4-20.2-4.1c-0.1-0.6,0.1-1.3,0.6-1.7c2.4-2.3,11.4-1.7,22.5-1.3h0.1
				c13.3,0.6,40.7-0.7,54.6-4c2.4-0.6,4.8-1.3,7.1-2.2c9.4-3.4,16.6-7.6,19.6-2c0.2,0.3,0.3,0.7,0.5,1c2.8,7.6-18.1,14-23.7,15.6"/>
			<path class="st10" d="M683.8,1316.3L683.8,1316.3c-0.3,2.3-0.7,4.5-1.4,6.7l-0.1,0.3c0,0.1-0.1,0.2-0.1,0.3l-0.2,0.5"/>
			<path class="st10" d="M742,1325.1L742,1325.1c0-0.1,0-0.2,0-0.3c0.3-5.1,1.5-10,3.6-14.6"/>
			<path class="st10" d="M759.5,1290.7c0,0,6.6,18.4,6.2,18.4"/>
			<path class="st9" d="M741.4,1376.3c9.7,14.8,18.3,30.2,25.9,46.2"/>
			<path class="st9" d="M661.8,1438.4c11.3,4.8,13.7,3.1,17.1,2.7"/>
			<path class="st10" d="M662.8,1228.6c-1.8,0.2-4,2.3-6.6,5.7"/>
			<g>
				<path class="st1" d="M397.8,1335.5L294,1429.9l-0.1,0.1c-3.2-2-6.2-4.4-8.8-7l0,0l106.2-96.4l0,0l6.5,8.9L397.8,1335.5z"/>
				<g>
					<line class="st10" x1="397.7" y1="1335.4" x2="293.8" y2="1429.8"/>
					<line class="st10" x1="391.1" y1="1326.3" x2="284.9" y2="1422.8"/>
					<line class="st11" x1="369.9" y1="1417.5" x2="361.9" y2="1418"/>
					<line class="st10" x1="397.7" y1="1335.4" x2="391.1" y2="1326.3"/>
					<path class="st10" d="M293.8,1429.8c-3.2-2-6.2-4.4-8.8-7"/>
					<path class="st10" d="M397.7,1335.4l0.1,0.2l27.3,37.4c0,0,0.3,0.3,0,1.1c-0.5,0.9-1.1,1.7-1.9,2.3c-2.8,2.5-14.9-3.4-17.6-2.6
						s-10.8,3-14.8,13.4s3.6,17,5.2,20.6c1.1,2.4,0.8,4.2,0,5.5c-1.7,2.6-5.7,3.1-5.7,3.1l-20.5,1.2"/>
					<line class="st11" x1="361.9" y1="1418" x2="352.3" y2="1418.5"/>
					<path class="st10" d="M352.3,1418.5l-29.4,1.7c0,0-2.8,2.5-13.8,10.8c-4.5,3.4-10.1,1.9-15.2-1.2l-0.2-0.1"/>
					<line class="st10" x1="352.3" y1="1418.5" x2="353.8" y2="1404"/>
					<line class="st10" x1="361.9" y1="1418" x2="362.4" y2="1403.7"/>
					<line class="st10" x1="369.9" y1="1417.5" x2="370.6" y2="1403.9"/>
				</g>
			</g>
			<path class="st1" d="M747.9,1216.7c1.8-1.8,4.3-2.7,6.9-2.5c0.6,0,0.6-1,0-1c-2.8-0.2-5.6,0.8-7.6,2.8c-0.2,0.2-0.2,0.5,0,0.7
				C747.3,1216.9,747.7,1216.9,747.9,1216.7L747.9,1216.7z"/>
			<path class="st1" d="M1207.4,1424.2l9.8,5.4l55.1-132.5c-3.6-1.2-7.3-2.1-11-2.6L1207.4,1424.2z"/>
			<g>
				<path class="st10" d="M761.6,1227.8c-4.7,5.8-10.7,5.7-12.4,5.1s-0.1,18-0.1,18s-0.1,10.5-20.1,7.9c-18.9-2.4-19-16.9-18.9-18.5
					l0,0l0.2-0.3l4.8-4.3l11.5-10.5c0,0-11.2-4-3.7-9.6s5.4,4.2,15.2-1.7s5.6-17.8,13.5-15.8c2.3,0.6,4.6,2.9,6.4,6
					C762.5,1211.6,764.9,1223.7,761.6,1227.8z"/>
				<path class="st10" d="M715.1,1235.7c-17.2-5.7-21.7-28.6-9.3-42.5c1.5-1.7,3.1-3.1,4.9-4.4c1.8-1.3,3.7-2.4,5.6-3.3
					c14-6.8,32.1-6.2,39.9,2.8c5.3,6.1,4,12,1.9,15.8"/>
				<path class="st10" d="M465.4,1137c-24.6,0-117.6,21.1-132-51.2c-18.7-94.1,67.7-98.3,85.3-97c22.7,1.8,40,11.5,59.7,12.7
					c25.5,1.5,77.9-40.4,111.7-16.1c23,16.5,21.6,39.7,40,65c19.9,27.3,76.4,11.8,96.4,38.8s-13.9,53.2-21.8,72.7
					c-4.8,11.8,4,19.4,11.6,23.5"/>
				<path class="st10" d="M821,1279.6c14.9-7.5,47-24.3,54.2-33.1c9.4-11.5,46.1-91.2,49.9-95.8c4.7-5.8,7.2-3.8,11.7-5.7
					c1.7-0.8,3.2-1.7,4.7-2.7"/>
				<path class="st10" d="M812.1,1231.9c10.1-5.4,25.6-14.2,31-19.5c10.5-10.2,29.5-61.6,55-83.6"/>
				<path class="st10" d="M662.3,1235.7c-36.8-8.3-100.6-24.9-129.8-46c-7.2-5.2-12.4-10.7-14.4-16.4c-14.2-39.2,5.2-44.9-2.4-50.8
					c-5.8-4.5-8.1,7-13.6,15.2c-1.5,2.5-3.7,4.5-6.2,6c-10.8,5.6-5.6,18.2-5.6,18.2"/>
				<path class="st10" d="M493.5,1127.9c-0.1-0.7-0.6-4.1-1.5-8.7c-2.4-12.6-7.2-33.8-12.2-30.5c-7,4.6,5.5,40.3,4.2,40.7
					s-9.2-44.9-15.4-41.2s6.1,45.7,4.9,45.7c0,0,0,1.2-6.8-19.8c-0.3-0.9-9.3-9.1-1.3,22.9c2.2,8.8,5.7,20.6,11,36.4
					c20.3,60.2,124.4,97.4,161.2,108.8"/>
				<path class="st10" d="M925.2,1134.4c-0.5-6.1-2.5-12-5.7-17.3c-2.5-2.7-3.2-2.9-5.4-4.5c-0.7-0.5-1.4-1.1-2.4-2
					c-2.2-1.9-2-6-8.2-14c-4.1-5.3-16.1-12.7-11.2,1.4c2.3,6.6,5.2,18.9,5.5,25.3c0.1,2.2,0.1,3.9,0.1,5.4c0.1,2.3,0.6,4.5,1.7,6.4"
					/>
				<path class="st10" d="M502.1,1137.6c-0.8-11.9-3.3-41.8-8.2-39.2c-1.5,0.8-2.3,3-2.6,6c-0.5,4.3,0.1,10.1,0.8,14.9
					c0.6,4.4,1.4,8,1.5,8.7c0,0,0,0.1,0,0.1"/>
				<path class="st10" d="M952.9,1145.1c4.3-0.2,7.2-1.5,7.7-5.1c0.1-0.9,0-1.8-0.1-2.7c-0.8-7.2-4.8-23.4-4.8-23.4"/>
				<path class="st10" d="M945.2,1117.2c0,0,4.7,14.4,7.7,27.9c2.2,10.2,3.5,19.9,0.9,22.6c-3.3,3.4-7.8-12.2-12.3-25.4
					c-3.6-10.5-7.2-19.5-10.3-15.9"/>
				<path class="st10" d="M914.2,1112.6c2.4-1.8,4.5-3.8,12-7s29.1-8.2,34.3-4.4s5.5,26.8,4.3,31.4c-0.7,2.1-2.2,3.8-4.2,4.7"/>
			</g>
		</g>
		<g>
			<path class="st12" d="M670.3,1239.5c-2,4.3,1.2,10.2,6,10.8"/>
			<path class="st12" d="M655,1283.5c4.7,0.6,9.3-4.3,8.5-9"/>
			<path class="st12" d="M704.5,1251.8c0.6-4.7-4.3-9.3-9-8.4"/>
			<path class="st12" d="M686,1298.3c-4.7,0.9-7.5,6.9-5.3,11.1"/>
			<path class="st12" d="M709.9,1304.7c1.6-4.5-2.2-10-7-10.1"/>
			<path class="st12" d="M721,1268.1c-4.7,0.9-7.5,6.9-5.3,11.1"/>
			<path class="st12" d="M741.1,1302.8c0.6-4.7-4.3-9.3-9-8.4"/>
			<path class="st12" d="M689.1,1279c0.6-4.7-4.3-9.3-9-8.4"/>
			<path class="st12" d="M743.6,1272c2.5,4.1,9.1,4.7,12.3,1.1"/>
			<path class="st12" d="M774.3,1298.6c4.5-1.7,6.2-8.2,3.2-11.9"/>
			<path class="st12" d="M796.3,1272.6c0-4.8-5.3-8.8-9.9-7.3"/>
			<path class="st12" d="M806.3,1288.8c4.7-0.6,8-6.5,5.9-10.8"/>
			<path class="st12" d="M764.2,1248.6c1.1,4.7,7.3,7.2,11.4,4.8"/>
			<path class="st12" d="M807.8,1248.3c0.6-4.7-4.3-9.3-9-8.4"/>
		</g>
	</g>
	<g id="Boom">
		<polygon class="st12" points="1065.1,1197.9 1072,1151.5 1037.8,1174.7 1028.3,1086 1005.8,1187.9 977.9,1151.5 977.4,1217 
			948.2,1205.3 956.5,1238.7 889.8,1228.7 963.5,1284.3 1057.5,1253.7 		"/>
	</g>
	<g id="pc">
		<polygon class="st0" points="1015.8,1265.6 1002.8,1303.1 961.6,1282.4 		"/>
		<path class="st1" d="M1175.4,1179.2l-142.9,36.8c-1.1,0.3-2.1,1.1-2.4,2.3l-30.8,91.1l151.8-34.3l27.1-93.1
			c0.4-1.2-0.4-2.5-1.6-2.9C1176.2,1179.1,1175.8,1179.1,1175.4,1179.2z"/>
		<path class="st1" d="M1001.8,1302.2l-41.2-20.1v7.3c0,0.4,0.3,0.8,0.6,1l38.1,19"/>
		<line class="st10" x1="960.6" y1="1282.1" x2="1014.7" y2="1264.9"/>
		<polyline class="st1" points="1013.1,1273.4 981.8,1283.9 1006.2,1295.5 1013.5,1272.2 		"/>
		<g id="Layer_5">
			
				<ellipse transform="matrix(0.9361 -0.3518 0.3518 0.9361 -367.9772 464.7767)" class="st13" cx="1094.8" cy="1244.8" rx="4.8" ry="4.2"/>
		</g>
	</g>
</g>
</svg>
