<svg id="Layer_1" data-name="Layer 1" xmlns="http://www.w3.org/2000/svg" viewBox="0 0 1845.73 1416.72">
  <defs>
    <style>
      .cls-1 {
        fill: #fff6e8;
      }

      .cls-2, .cls-3, .cls-8 {
        fill: #0e004e;
      }

      .cls-10, .cls-3, .cls-8 {
        stroke: #fff;
      }

      .cls-10, .cls-11, .cls-12, .cls-3, .cls-4, .cls-6, .cls-7, .cls-8 {
        stroke-miterlimit: 10;
      }

      .cls-3 {
        stroke-width: 2px;
      }

      .cls-4, .cls-5 {
        fill: #b57016;
      }

      .cls-11, .cls-4, .cls-6, .cls-7 {
        stroke: #0e004e;
      }

      .cls-6 {
        fill: #fff;
      }

      .cls-7 {
        fill: #ebeef7;
      }

      .cls-9 {
        fill: #1d8658;
      }

      .cls-10, .cls-11, .cls-12, .cls-14 {
        fill: none;
      }

      .cls-12 {
        stroke: #1b1023;
      }

      .cls-13 {
        fill: #fcbd2c;
      }

      .cls-14 {
        stroke: #fff6e8;
        stroke-miterlimit: 10;
      }
    </style>
  </defs>
  <g id="Layer_2" data-name="Layer 2">
    <g id="pc-sky">
      <path id="Path_40" data-name="Path 40" class="cls-1" d="M1120.11,816.22c-107.2-122.73-224.61-98.85-318.2-87.56-136.44,16.44-246.29-11.86-372.06-92.4S263.91,457.73,131.07,409-59.66,323.93-59.66,323.93V-80.27h1383s-16.93,109.18,72.6,148.9,171.94,78.24,277.86,182.87,145,217.41,81.94,335.86c-30.7,57.68-81.27,172.2-148.22,228.86-.51-.44-83.8,93-82.91,93.41,2.29,1.11-48.48,14.21-89.7,23.28C1409.23,784.51,1197.56,910.9,1120.11,816.22Z"/>
    </g>
    <g id="Jente">
      <g>
        <path class="cls-2" d="M1006.34,1088.89c-11.06-.83-20.06-1.71-22.52.52l-.66,1.71c.23,2.75,11.06,4.72,20,4.77h1.43l.12-.34A39.23,39.23,0,0,0,1006.34,1088.89Z"/>
        <path class="cls-2" d="M954,1050.65c-5.58,6.86-1.89,9.3-1.89,9.3a81.93,81.93,0,0,0,9.24-6.69C959.18,1052.49,956.71,1051.62,954,1050.65Z"/>
        <path class="cls-3" d="M824.13,1124.1c-5,2.53-18,10.66-42,35.34,5.4,3.37,11.16,7.6,15.69,10.48,17.63-16.41,31.18-32.94,29.5-44.13a2.24,2.24,0,0,0-2.52-1.9A1.94,1.94,0,0,0,824.13,1124.1Z"/>
        <path class="cls-4" d="M821.16,885.48c.49,4.47,1.11,8.08,1.24,8.76C822.34,893.59,821.88,890.12,821.16,885.48Z"/>
        <path class="cls-2" d="M1468.1,1113s-3.62,27-3.87,33.3-13.94,2.3-13.94,2.3,8.5-19.59,12.78-26.72C1466.55,1116.08,1468.1,1113,1468.1,1113Z"/>
        <path class="cls-2" d="M1032.41,966.47c-12.9,13.56-9.16,36.53,7.88,42.83l11.9-10.12s-11-4.38-3.38-9.7,5.28,4.38,15.22-1.23,6.21-17.56,14.06-15.39c2.32.64,4.49,3,6.25,6.27,2.2-3.78,3.74-9.59-1.35-15.86-7.51-9.24-25.61-10.49-39.8-4.15a38.4,38.4,0,0,0-5.71,3.1A28.65,28.65,0,0,0,1032.41,966.47Z"/>
        <path class="cls-2" d="M796.07,879.51c6,21.2,6.08,20,6.08,20,1.16,0-9.74-42.3-3.38-45.85s12.73,42,14,41.67-10-36.49-2.82-40.82c5.09-3.07,9.22,18.29,11.18,30.93-.51-4.79-.86-10.58-.25-14.88.42-2.92,1.27-5.14,2.83-5.89,5-2.39,6.51,27.58,6.92,39.5,5.83-8,8.45-19.47,14.13-14.74,7.41,6.18-12.16,11.17.75,50.85,1.88,5.78,6.81,11.46,13.88,16.92,28.91-9.55,51.68,1.13,82.1,9.83,29.4,8.4,80.58-9.64,90.89-.6a28.65,28.65,0,0,1,5.07-4.25,38.4,38.4,0,0,1,5.71-3.1c-7.49-4.37-16-12.22-10.82-23.88,8.55-19.2,43.3-44.31,24.23-71.94s-76-14-95-42c-17.55-25.85-15.35-49-37.83-66.29-33-25.38-86.7,14.73-112.17,12.42-19.7-1.78-36.66-12.1-59.28-14.64-17.53-2-104-.57-88.45,94.07,12,72.74,105.66,54.72,130.23,55.54C787.06,870.14,795.82,878.63,796.07,879.51Z"/>
        <path class="cls-5" d="M1088.46,1084.43c.06,0,0-.41-.2-1.11l-.22.07A8.69,8.69,0,0,1,1088.46,1084.43Z"/>
        <polygon class="cls-6" points="1452.49 1140.81 1496.48 1143.14 1522.79 1157.98 1508.88 1188.36 1486.2 1190.54 1432.88 1197.94 1422.97 1192.24 1449.06 1140.66 1452.49 1140.81"/>
        <path class="cls-2" d="M1068.34,1084.73a40.62,40.62,0,0,0-4.08,14.51c5.64-1.39,26.71-7.15,24.16-14.82a8.09,8.09,0,0,0-.42-1C1085.25,1077.67,1077.85,1081.62,1068.34,1084.73Z"/>
        <path class="cls-2" d="M988.34,1000.52c-1.76.09-4.12,2.17-6.77,5.46l6,1.6A51,51,0,0,0,988.34,1000.52Z"/>
        <path class="cls-2" d="M1434,1197.94a220.12,220.12,0,0,0-4.83,30.74c9.73-6.63,17.09-19.14,22.63-33.55l-17.8,2.8Z"/>
        <path class="cls-7" d="M1569.84,1091.32c-6.83,12-8.39,15.4-8.39,15.4l-26.34,13.15,4.4,13.93-4.4-13.93-8.62,4.3,5.17,13.31-5.17-13.31-7.15,3.56,4.74,12.78-4.74-12.78-18.32,9.15s-7.73,4.68-1.87,10.13c2.9,2.69,12.51,5.7,12.92,16.87s-6.12,16.44-8.29,18.2-15.62,1.12-17.17,4.53-.42,3.93-.42,3.93l39.85,23.57,58.17-127.72C1578.4,1085.62,1572.64,1086.41,1569.84,1091.32Z"/>
        <path class="cls-6" d="M798.11,1170.15c-4.45-2.87-9.54-6.14-14.85-9.5-12.87-8.17-27.14-17-37.39-22.68a8.12,8.12,0,0,1-2,2.25c-2.86,2.43-14.76-3.86-17.46-3.2s-10.87,2.66-15.24,12.94,3,17.1,4.51,20.76c1,2.47.66,4.22-.23,5.46l30,27.67,5.74,5.28C765.2,1198.56,783.13,1184.34,798.11,1170.15Z"/>
        <path class="cls-7" d="M715.71,1170.73c-1.48-3.66-8.9-10.47-4.51-20.76s12.52-12.28,15.24-12.94,14.6,5.63,17.46,3.2a8.12,8.12,0,0,0,2-2.25c.37-.79.08-1.13.08-1.13l-26-38.29h0l-107,90.86h0c4.94,3.17,10.49,4.91,15.11,1.65,11.29-8,14.15-10.37,14.15-10.37l29.42-.69,9.64-.23h0l1-14.24-1,14.24,8-.19,1.15-13.58-1.15,13.58h0l20.48-.48s4-.43,5.77-2.92C716.34,1174.94,716.7,1173.19,715.71,1170.73ZM671.62,1180l2-14.48Z"/>
        <path class="cls-2" d="M745.45,1203.85q-8.37,10.26-17.74,22.32c.48-.33,10.24-7.06,23.48-17Z"/>
        <path class="cls-8" d="M727.71,1226.17c.48-.33,10.24-7.06,23.48-17"/>
        <path class="cls-2" d="M1432.88,1197.93a301.56,301.56,0,0,1,19.61-57.12,266.4,266.4,0,0,1,14.45-27.81c-9-13-336-13.46-397.85-13.42h-4.82l-.17.05c-29.32,5.66-50.31,4.06-59.86-2.9l-.29-.22c-10.4,5.88-25.29,19-29.86,39.79-6.64,30.15,15.71,58.12,14.27,67.72-.48,3.15-2.71,5.82-5.49,8C920.35,1186,827,1124.34,827,1124.34c4.09,10.31-10.08,28-28.91,45.86-15,14.19-32.91,28.41-46.92,39-13.24,10-23,16.71-23.48,17h0c26.86,11.42,230.73,130.31,332.67,107.33,65.82-14.83,47.3-86.71,25.9-135.78a392.89,392.89,0,0,0-24.34-47,392.89,392.89,0,0,1,24.34,47c80.31-2.87,341.78,31,341.78,31a218.65,218.65,0,0,1,4.83-30.74Zm-450,14c14.1,4.52,11.59,2.21,14.48,2.09-2.9.16-.39,2.47-14.49-2Z"/>
        <path class="cls-9" d="M1081.87,1066s4.37,13.52,5.4,17.52l-.23.07c-2.79-5.72-10.18-1.77-19.66,1.35a64.4,64.4,0,0,1-7.19,2c-14.08,2.86-41.43,3.19-54.74,2.2h-.11c-11.07-.83-20.06-1.71-22.52.52l9.75-25.47c-16.51,4-41.39-4-41.39-4a81.93,81.93,0,0,0,9.24-6.69,75.73,75.73,0,0,0,26.21-45.68,49.4,49.4,0,0,0,.72-7.06l46.86,13.11v.12h0c-.12,1.59-.57,16.07,18.26,19.13a46.76,46.76,0,0,0,5.42.58c14.55.65,15-7.8,15-7.85l59.58-21.34a54.08,54.08,0,0,1,4,4.54c14,17.76,10.8,37.24,7.28,48a50.73,50.73,0,0,1-3.39,8.18l-53,18.37Z"/>
      </g>
      <path class="cls-10" d="M806.24,1244.42s115.57,90,261.34,87.11"/>
      <path class="cls-10" d="M838.76,1249.07s102.79,74.91,248.56,72"/>
    </g>
    <g id="Jente-outline">
      <g>
        <path class="cls-11" d="M1004,1096h-1.43c-9,0-19.79-2-20-4.76a2,2,0,0,1,.65-1.72c2.46-2.23,11.46-1.35,22.52-.51h.14c13.32,1,40.67.66,54.75-2.2a64.4,64.4,0,0,0,7.19-2c9.47-3.12,16.87-7.07,19.66-1.35a8.09,8.09,0,0,1,.42,1c2.55,7.67-18.52,13.43-24.16,14.82"/>
        <path class="cls-11" d="M1005.79,1089h0a39.07,39.07,0,0,1-1.61,6.65l-.12.34-.13.34c-.06.17-.13.33-.2.49"/>
        <path class="cls-11" d="M1063.74,1099.66h0a1.6,1.6,0,0,1,0-.31,40.62,40.62,0,0,1,4.08-14.51"/>
        <path class="cls-11" d="M1082.34,1065.9s6,18.64,5.59,18.62"/>
        <path class="cls-10" d="M1061.4,1150.8a392.89,392.89,0,0,1,24.34,47"/>
        <path class="cls-10" d="M979.83,1210.24c11.09,5.14,13.61,3.57,17,3.28"/>
        <path class="cls-11" d="M987.79,1000.61c-1.76.09-4.12,2.17-6.77,5.46"/>
        <g>
          <path class="cls-2" d="M719.34,1098.64l-107,90.86h-.06a52.41,52.41,0,0,1-8.6-7.26h0L713,1089.39h0l6.16,9.08Z"/>
          <g>
            <line class="cls-11" x1="719.26" y1="1098.48" x2="612.23" y2="1189.39"/>
            <line class="cls-11" x1="712.98" y1="1089.24" x2="603.62" y2="1182.12"/>
            <line class="cls-12" x1="688.7" y1="1179.67" x2="680.73" y2="1179.86"/>
            <line class="cls-11" x1="719.26" y1="1098.48" x2="712.98" y2="1089.24"/>
            <path class="cls-11" d="M612.23,1189.39a52.54,52.54,0,0,1-8.61-7.27"/>
            <path class="cls-11" d="M719.26,1098.48l.12.16,26,38.29s.29.34-.08,1.13a8.12,8.12,0,0,1-2,2.25c-2.86,2.43-14.76-3.86-17.46-3.2s-10.87,2.66-15.24,12.94,3,17.1,4.51,20.76c1,2.47.66,4.22-.23,5.46-1.78,2.49-5.77,2.92-5.77,2.92l-20.48.48"/>
            <line class="cls-12" x1="680.73" y1="1179.86" x2="671.09" y2="1180.09"/>
            <path class="cls-11" d="M671.09,1180.09l-29.42.69s-2.86,2.42-14.15,10.37c-4.62,3.26-10.17,1.52-15.11-1.65l-.18-.12"/>
            <line class="cls-11" x1="671.09" y1="1180.09" x2="673.04" y2="1165.61"/>
            <line class="cls-11" x1="680.73" y1="1179.86" x2="681.71" y2="1165.62"/>
            <line class="cls-11" x1="688.7" y1="1179.67" x2="689.85" y2="1166.09"/>
          </g>
        </g>
        <path class="cls-2" d="M1073.17,991.53a8.86,8.86,0,0,1,7-2.29.52.52,0,0,0,.5-.5.51.51,0,0,0-.5-.5,9.75,9.75,0,0,0-7.67,2.58c-.47.44.23,1.15.7.71Z"/>
        <path class="cls-2" d="M1525.52,1214.21l9.62,5.69,59.46-130.57a51.21,51.21,0,0,0-10.87-2.92Z"/>
        <g>
          <path class="cls-11" d="M1086.49,1003.07c-4.9,5.6-10.9,5.3-12.52,4.66s-.69,18-.69,18-.44,10.51-20.38,7.27c-18.82-3.06-18.37-17.54-18.26-19.12h0l.22-.29,4.89-4.16,11.9-10.12s-11-4.38-3.38-9.7,5.28,4.38,15.22-1.23,6.21-17.56,14.06-15.39c2.32.64,4.49,3,6.25,6.27C1088,986.89,1090,999.13,1086.49,1003.07Z"/>
          <path class="cls-11" d="M1039.76,1009.39c-17-6.3-20.78-29.27-7.88-42.83a28.65,28.65,0,0,1,5.07-4.25,38.4,38.4,0,0,1,5.71-3.1c14.19-6.34,32.29-5.09,39.8,4.15,5.09,6.27,3.55,12.08,1.35,15.86"/>
          <path class="cls-11" d="M793.52,902.48c-24.57-.82-118.26,17.2-130.23-55.54-15.56-94.64,70.92-96,88.45-94.07,22.6,2.54,39.6,12.86,59.28,14.64,25.47,2.31,79.15-37.8,112.17-12.42,22.48,17.29,20.28,40.44,37.83,66.29,19,28,76,14.38,95,42s-15.68,52.74-24.22,71.94c-5.2,11.66,3.32,19.51,10.81,23.88"/>
          <path class="cls-11" d="M1144.15,1056.86c15.11-7,47.8-22.77,55.28-31.29,9.8-11.19,49.13-89.67,53-94.13,4.9-5.6,7.37-3.54,11.86-5.28a32.81,32.81,0,0,0,4.83-2.56"/>
          <path class="cls-11" d="M1136.87,1008.91c10.28-5,26-13.38,31.57-18.45,10.83-9.9,31.49-60.55,57.7-81.76"/>
          <path class="cls-11" d="M987.07,1007.67c-36.5-9.53-99.67-28.27-128.18-50.34-7.07-5.46-12-11.14-13.88-16.92-12.91-39.68,6.66-44.67-.75-50.85-5.68-4.73-8.3,6.75-14.13,14.74a18,18,0,0,1-6.43,5.78c-11,5.25-6.25,18-6.25,18"/>
          <path class="cls-11" d="M821.87,894.33c-.08-.65-.52-4.12-1.24-8.76-2-12.64-6.09-34-11.18-30.93-7.17,4.33,4.12,40.52,2.82,40.82s-7.69-45.21-14-41.67,4.54,45.9,3.38,45.85c0,0,0,1.16-6.08-20-.25-.88-9-9.37-2,22.88,1.91,8.86,5,20.77,9.81,36.76,18.26,60.87,121.07,101.46,157.53,114.11"/>
          <path class="cls-11" d="M1253.2,915.19a40.24,40.24,0,0,0-5.08-17.45c-2.35-2.77-3.1-3-5.23-4.69-.64-.52-1.4-1.17-2.36-2.06-2.17-2-1.86-6.06-7.78-14.29-3.93-5.48-15.66-13.2-11.24,1,2.07,6.7,4.51,19.09,4.68,25.53,0,2.24-.07,3.9,0,5.43a14.87,14.87,0,0,0,1.48,6.51"/>
          <path class="cls-11" d="M830.13,904.3c-.41-11.91-1.94-41.89-6.92-39.49-1.55.74-2.41,3-2.83,5.88-.61,4.3-.25,10.09.25,14.88.49,4.48,1.12,8.09,1.24,8.77a.2.2,0,0,0,0,.11"/>
          <path class="cls-11" d="M1280.47,926.83c4.28,0,7.23-1.27,7.9-4.87a12.55,12.55,0,0,0,0-2.74c-.55-7.21-4.08-23.56-4.08-23.56"/>
          <path class="cls-11" d="M1273.7,898.67s4.26,14.54,6.77,28.16c1.9,10.27,2.79,20,.1,22.58-3.46,3.34-7.37-12.46-11.41-25.81-3.22-10.65-6.55-19.74-9.8-16.27"/>
          <path class="cls-11" d="M1242.89,893.05c2.44-1.78,4.65-3.64,12.22-6.64s29.35-7.22,34.4-3.31,4.61,27,3.24,31.54a7.61,7.61,0,0,1-4.37,4.58"/>
        </g>
      </g>
      <g>
        <path class="cls-13" d="M994.89,1011.73c-2.16,4.27.89,10.22,5.6,11"/>
        <path class="cls-13" d="M978.13,1055.24c4.72.75,9.46-4,8.74-8.67"/>
        <path class="cls-13" d="M1028.65,1025.15c.76-4.72-4-9.46-8.67-8.74"/>
        <path class="cls-13" d="M1008.63,1071.05c-4.72.74-7.77,6.68-5.63,11"/>
        <path class="cls-13" d="M1032.28,1078.22c1.73-4.46-1.89-10.08-6.65-10.36"/>
        <path class="cls-13" d="M1044.64,1042c-4.72.74-7.77,6.68-5.63,11"/>
        <path class="cls-13" d="M1063.5,1077.42c.75-4.72-4-9.46-8.68-8.74"/>
        <path class="cls-13" d="M1012.39,1051.86c.75-4.71-4-9.45-8.67-8.74"/>
        <path class="cls-13" d="M1067,1046.65c2.32,4.17,9,5,12.22,1.51"/>
        <path class="cls-13" d="M1096.84,1074.23c4.51-1.56,6.47-8,3.6-11.77"/>
        <path class="cls-13" d="M1119.74,1049c.19-4.78-5-8.93-9.64-7.67"/>
        <path class="cls-13" d="M1129.19,1065.5c4.75-.46,8.16-6.2,6.28-10.59"/>
        <path class="cls-13" d="M1088.47,1023.94c1,4.68,7,7.46,11.2,5.13"/>
        <path class="cls-13" d="M1132,1025.15c.76-4.72-3.94-9.46-8.67-8.74"/>
      </g>
    </g>
    <g id="Boom">
      <polygon class="cls-13" points="1399.05 938.7 1405.5 897.1 1373.57 917.9 1364.72 838.48 1343.72 929.74 1317.7 897.1 1317.23 955.78 1289.96 945.27 1297.75 975.22 1235.41 966.29 1304.19 1016.06 1391.94 988.62 1399.05 938.7"/>
    </g>
    <g id="pc">
      <polygon class="cls-1" points="1361.41 997.35 1348.45 1034.78 1307.28 1014.1 1361.41 997.35"/>
      <path class="cls-2" d="M1521.07,911l-142.9,36.84a3.45,3.45,0,0,0-2.43,2.26L1345,1041.18l151.77-34.29,27.14-93a2.33,2.33,0,0,0-1.58-2.88A2.27,2.27,0,0,0,1521.07,911Z"/>
      <path class="cls-2" d="M1347.43,1033.92l-41.17-20.06v7.32a1.15,1.15,0,0,0,.65,1l38.07,19"/>
      <line class="cls-11" x1="1306.26" y1="1013.86" x2="1360.39" y2="996.68"/>
      <polyline class="cls-2" points="1358.79 1005.15 1327.43 1015.61 1351.82 1027.22 1359.18 1003.91"/>
      <g id="Layer_5" data-name="Layer 5">
        <ellipse class="cls-14" cx="1437.47" cy="980.06" rx="4.76" ry="4.2" transform="matrix(0.94, -0.35, 0.35, 0.94, -252.91, 568.43)"/>
      </g>
    </g>
  </g>
</svg>
