<svg xmlns="http://www.w3.org/2000/svg" viewBox="0 0 1534.53 1792.91">
  <defs>
    <style>
      .cls-1, .cls-15 {
        fill: #fff6e8;
      }

      .cls-2, .cls-3, .cls-9 {
        fill: #0e004e;
      }

      .cls-11, .cls-3, .cls-9 {
        stroke: #fff;
      }

      .cls-10, .cls-11, .cls-12, .cls-13, .cls-15, .cls-16, .cls-3, .cls-4, .cls-6, .cls-7, .cls-9 {
        stroke-miterlimit: 10;
      }

      .cls-3 {
        stroke-width: 2px;
      }

      .cls-4, .cls-5 {
        fill: #b57016;
      }

      .cls-10, .cls-12, .cls-15, .cls-4, .cls-6, .cls-7 {
        stroke: #0e004e;
      }

      .cls-6 {
        fill: #fff;
      }

      .cls-7, .cls-8 {
        fill: #ddafcb;
      }

      .cls-10 {
        fill: #8164d9;
      }

      .cls-11, .cls-12, .cls-13, .cls-16 {
        fill: none;
      }

      .cls-13 {
        stroke: #1b1023;
      }

      .cls-14 {
        fill: #fcbd2c;
      }

      .cls-16 {
        stroke: #fff6e8;
      }
    </style>
  </defs>
  <g id="Layer_2" data-name="Layer 2">
    <g id="pc-sky">
      <path id="Path_40" data-name="Path 40" class="cls-1" d="M894,1186c-86.57-151.73-142.42-127-218-113-110.18,20.33-256.43-8.43-358-108S289,861,190,763C102.56,676.44,0,712,0,712V0H1227.65s-29.9,90.23,42.4,139.34S1379.46,198.65,1465,328s85.9,397.56,35,544c-30.76,90.71-88.13,199.27-139.11,281.47-17.16,31.43-181.61,255-180.89,255.53,1.85,1.37-66.72,13.79-100,25C1059.25,1250.53,956.55,1303.06,894,1186Z"/>
    </g>
    <g id="Jente">
      <g>
        <path class="cls-2" d="M688.28,1546.23c-11.09-.47-20.11-1-22.49,1.26l-.61,1.74c.32,2.73,11.21,4.34,20.17,4.09l.77,0,.66,0a3.19,3.19,0,0,1,.11-.33A39.86,39.86,0,0,0,688.28,1546.23Z"/>
        <path class="cls-2" d="M634.77,1509.74c-5.35,7-1.58,9.36-1.58,9.36a82.77,82.77,0,0,0,9-7C640,1511.41,637.47,1510.62,634.77,1509.74Z"/>
        <path class="cls-3" d="M507.38,1587.48c-4.9,2.69-17.59,11.25-40.79,36.71,5.52,3.19,11.41,7.23,16,10,17.07-17,30.06-34,28-45.08A2.23,2.23,0,0,0,507.38,1587.48Z"/>
        <path class="cls-4" d="M496.46,1349.09c.64,4.45,1.39,8,1.53,8.71C497.89,1357.15,497.34,1353.7,496.46,1349.09Z"/>
        <path class="cls-2" d="M1150.62,1554.94s-2.72,27.13-2.76,33.42-13.85,2.76-13.85,2.76,7.84-19.86,11.88-27.13C1149.17,1558.07,1150.62,1554.94,1150.62,1554.94Z"/>
        <path class="cls-2" d="M710.29,1423c-12.44,14-7.94,36.81,9.31,42.54L731.15,1455s-11.19-4-3.7-9.58,5.42,4.2,15.17-1.74,5.62-17.75,13.54-15.84c2.34.56,4.59,2.9,6.45,6.06,2.08-3.86,3.42-9.71-1.87-15.81-7.81-9-26-9.64-39.92-2.83a38.28,38.28,0,0,0-5.6,3.3A28.76,28.76,0,0,0,710.29,1423Z"/>
        <path class="cls-2" d="M471.19,1344c6.73,21,6.74,19.83,6.74,19.83,1.16,0-11.13-42-4.9-45.71s14.11,41.53,15.41,41.18-11.2-36.14-4.18-40.7c5-3.24,9.83,18,12.2,30.54-.66-4.77-1.21-10.55-.74-14.87.32-2.93,1.1-5.18,2.63-6,4.9-2.56,7.43,27.34,8.23,39.23,5.56-8.17,7.8-19.73,13.64-15.2,7.61,5.93-11.79,11.58,2.44,50.81,2.07,5.71,7.19,11.22,14.43,16.45,28.58-10.52,51.69-.6,82.38,7.08,29.67,7.43,80.22-12.31,90.82-3.62a28.76,28.76,0,0,1,4.93-4.41,38.28,38.28,0,0,1,5.6-3.3c-7.63-4.12-16.41-11.67-11.6-23.5,7.9-19.47,41.79-45.73,21.82-72.71s-76.48-11.49-96.4-38.82c-18.4-25.25-17-48.47-40-65-33.85-24.27-86.16,17.6-111.7,16.14-19.75-1.12-37.05-10.87-59.74-12.65-17.58-1.38-104,2.89-85.26,97,14.38,72.3,107.42,51.18,132,51.18C461.87,1334.89,470.91,1343.08,471.19,1344Z"/>
        <path class="cls-5" d="M770.24,1539c.06,0,0-.41-.24-1.1l-.21.07C769.94,1538.31,770.1,1538.66,770.24,1539Z"/>
        <polygon class="cls-6" points="1135.94 1583.26 1179.99 1584.13 1206.77 1598.08 1193.88 1628.91 1171.29 1631.85 1118.24 1641.01 1108.15 1635.65 1132.51 1583.22 1135.94 1583.26"/>
        <path class="cls-2" d="M750.18,1540a40.74,40.74,0,0,0-3.6,14.63c5.6-1.57,26.46-8,23.66-15.61-.14-.37-.3-.72-.45-1C766.81,1532.38,759.54,1536.57,750.18,1540Z"/>
        <path class="cls-2" d="M667.36,1458.5c-1.76.15-4,2.31-6.58,5.68l6.09,1.4A47.78,47.78,0,0,0,667.36,1458.5Z"/>
        <path class="cls-2" d="M1119.4,1641a222.49,222.49,0,0,0-3.8,30.89c9.5-6.95,16.44-19.7,21.5-34.29l-17.7,3.39Z"/>
        <path class="cls-7" d="M1251.58,1529.88c-6.43,12.17-7.87,15.63-7.87,15.63l-25.89,14,4.86,13.74-4.86-13.74-8.47,4.58,5.61,13.08-5.61-13.08-7,3.78,5.16,12.58-5.16-12.58-18,9.72s-7.57,4.93-1.53,10.17c3,2.58,12.69,5.26,13.47,16.38s-5.56,16.59-7.68,18.41-15.57,1.64-17,5.09-.28,3.93-.28,3.93l40.61,22.17,53.88-129.23C1259.94,1523.91,1254.21,1524.89,1251.58,1529.88Z"/>
        <path class="cls-6" d="M482.9,1634.37c-4.54-2.73-9.74-5.82-15.16-9-13.13-7.73-27.68-16.07-38.12-21.42a7.56,7.56,0,0,1-1.9,2.31c-2.77,2.53-14.87-3.36-17.55-2.61s-10.77,3-14.81,13.44,3.61,17,5.21,20.6c1.07,2.44.8,4.2-.06,5.47l30.89,26.65,5.91,5.08C451,1663.85,468.4,1649,482.9,1634.37Z"/>
        <path class="cls-8" d="M400.57,1637.68c-1.6-3.61-9.25-10.17-5.21-20.6s12.11-12.69,14.81-13.44,14.78,5.14,17.55,2.61a7.56,7.56,0,0,0,1.9-2.31c.34-.8.05-1.13.05-1.13l-27.3-37.4h0l-103.89,94.37h0c5,3,10.64,4.55,15.15,1.14,11-8.31,13.8-10.83,13.8-10.83l29.38-1.67,9.63-.55h0l.5-14.26-.5,14.26,8-.46.69-13.6-.69,13.6h0l20.45-1.16s4-.56,5.66-3.1C401.37,1641.88,401.64,1640.12,400.57,1637.68Zm-43.76,10.74,1.47-14.54Z"/>
        <path class="cls-2" d="M431.4,1669.8q-8,10.53-17,22.9c.47-.35,10-7.39,22.9-17.82Z"/>
        <path class="cls-9" d="M414.41,1692.7c.47-.35,10-7.39,22.9-17.82"/>
        <path class="cls-2" d="M1118.24,1641a301.83,301.83,0,0,1,17.7-57.74,267.3,267.3,0,0,1,13.52-28.28c-9.42-12.7-336.3-2.26-398.08-.17l-2.85.1h0l-1.95,0-.18.06c-32.11-19.83-50.14,5.73-59.91-.9l-.3-.22c-10.2,6.23-24.64,19.84-28.52,40.76-5.63,30.36,17.64,57.57,16.52,67.21-.38,3.17-2.52,5.91-5.23,8.14-63.35-23.92-158.68-82.45-158.68-82.45,4.44,10.17-9.14,28.37-27.37,46.81-14.5,14.67-31.94,29.48-45.59,40.51-12.91,10.43-22.43,17.47-22.9,17.82h0c27.22,10.52,234.93,122.56,336.06,96.19,65.29-17,44.38-88.23,21.36-136.56a392.83,392.83,0,0,0-25.89-46.18,392.83,392.83,0,0,1,25.89,46.18c80.17-5.54,342.62,19.56,342.62,19.56a222.3,222.3,0,0,1,3.8-30.89ZM669,1670c14.24,4.06,11.66,1.83,14.55,1.61C680.61,1671.84,683.19,1674.07,669,1670Z"/>
        <path class="cls-10" d="M763,1520.83s4.81,13.36,6,17.33l-.22.08c-3-5.62-10.25-1.43-19.61,2a65.06,65.06,0,0,1-7.12,2.2c-14,3.32-41.3,4.57-54.64,4h-.14c-11.09-.47-20.11-1-22.49,1.26l8.9-25.78c-16.37,4.5-41.5-2.61-41.5-2.61a81.54,81.54,0,0,0,9-7,75.7,75.7,0,0,0,24.67-46.53,47.78,47.78,0,0,0,.49-7.08l47.27,11.54v.13h0c-.06,1.59,0,16.07,18.89,18.51a48.94,48.94,0,0,0,5.44.4c14.56.16,14.68-8.3,14.68-8.35l58.85-23.31a54.43,54.43,0,0,1,4.14,4.4c14.57,17.29,12,36.87,8.88,47.68a50.63,50.63,0,0,1-3.12,8.29L769,1538.16Z"/>
      </g>
      <path class="cls-11" d="M493.5,1708.33s118.5,86.11,264.09,78.36"/>
      <path class="cls-11" d="M526.16,1711.89s105.23,71.45,250.82,63.7"/>
    </g>
    <g id="Jente-outline">
      <g>
        <path class="cls-12" d="M686.25,1553.38l-.66,0-.77,0c-9,.25-19.84-1.36-20.16-4.1a1.94,1.94,0,0,1,.6-1.73c2.38-2.31,11.4-1.73,22.49-1.27h.14c13.34.55,40.66-.69,54.64-4a62.94,62.94,0,0,0,7.12-2.19c9.37-3.44,16.63-7.63,19.61-2a8.18,8.18,0,0,1,.45,1c2.81,7.58-18.06,14-23.65,15.61"/>
        <path class="cls-12" d="M687.76,1546.33h0a38.7,38.7,0,0,1-1.39,6.71l-.11.34c0,.11-.08.23-.12.35l-.18.49"/>
        <path class="cls-12" d="M746,1555.07h0a2.85,2.85,0,0,1,0-.31,40.7,40.7,0,0,1,3.59-14.63"/>
        <path class="cls-12" d="M763.5,1520.71s6.64,18.43,6.21,18.43"/>
        <path class="cls-11" d="M745.4,1606.27a393.67,393.67,0,0,1,25.9,46.18"/>
        <path class="cls-11" d="M665.85,1668.38c11.26,4.78,13.72,3.12,17.13,2.72"/>
        <path class="cls-12" d="M666.83,1458.6c-1.75.16-4,2.32-6.58,5.69"/>
        <g>
          <path class="cls-2" d="M401.84,1565.52,298,1659.88l-.06.06a52.49,52.49,0,0,1-8.84-7l0,0,106.16-96.44h0l6.47,8.87Z"/>
          <g>
            <line class="cls-12" x1="401.72" y1="1565.36" x2="297.76" y2="1659.78"/>
            <line class="cls-12" x1="395.13" y1="1556.34" x2="288.92" y2="1652.8"/>
            <line class="cls-13" x1="373.87" y1="1647.52" x2="365.91" y2="1647.98"/>
            <line class="cls-12" x1="401.72" y1="1565.36" x2="395.13" y2="1556.34"/>
            <path class="cls-12" d="M297.76,1659.78a52.49,52.49,0,0,1-8.84-7"/>
            <path class="cls-12" d="M401.72,1565.36l.12.16,27.3,37.4s.3.33-.05,1.13a7.64,7.64,0,0,1-1.89,2.31c-2.77,2.52-14.88-3.36-17.56-2.62s-10.77,3-14.8,13.45,3.6,17,5.2,20.59c1.08,2.44.8,4.21-.05,5.47-1.69,2.55-5.67,3.11-5.67,3.11l-20.45,1.16"/>
            <line class="cls-13" x1="365.91" y1="1647.98" x2="356.29" y2="1648.53"/>
            <path class="cls-12" d="M356.29,1648.53l-29.39,1.67s-2.78,2.51-13.79,10.83c-4.51,3.41-10.12,1.86-15.16-1.15l-.18-.1"/>
            <line class="cls-12" x1="356.29" y1="1648.53" x2="357.76" y2="1633.99"/>
            <line class="cls-12" x1="365.91" y1="1647.98" x2="366.42" y2="1633.72"/>
            <line class="cls-12" x1="373.87" y1="1647.52" x2="374.57" y2="1633.91"/>
          </g>
        </g>
        <path class="cls-2" d="M751.86,1446.7a8.82,8.82,0,0,1,6.88-2.53c.64,0,.63-1,0-1a9.82,9.82,0,0,0-7.59,2.82.5.5,0,0,0,.71.71Z"/>
        <path class="cls-2" d="M1211.38,1654.19l9.8,5.37,55.09-132.49a52.46,52.46,0,0,0-11-2.55Z"/>
        <g>
          <path class="cls-12" d="M765.57,1457.78c-4.72,5.76-10.72,5.66-12.36,5.08s-.09,18-.09,18-.1,10.52-20.13,7.94c-18.92-2.43-19-16.92-18.89-18.51h0l.22-.3,4.75-4.32,11.55-10.51s-11.19-4-3.7-9.58,5.42,4.2,15.18-1.74,5.61-17.76,13.54-15.84c2.34.56,4.59,2.9,6.44,6C766.53,1441.55,768.89,1453.73,765.57,1457.78Z"/>
          <path class="cls-12" d="M719.07,1465.65c-17.24-5.73-21.74-28.56-9.31-42.54a29.62,29.62,0,0,1,4.93-4.42,38.69,38.69,0,0,1,5.61-3.29c14-6.81,32.1-6.16,39.91,2.83,5.3,6.1,3.95,12,1.87,15.8"/>
          <path class="cls-12" d="M469.4,1367c-24.58,0-117.62,21.12-132-51.18-18.7-94.07,67.69-98.34,85.27-97,22.69,1.79,40,11.54,59.73,12.66,25.54,1.46,77.86-40.42,111.7-16.14,23,16.52,21.61,39.74,40,65,19.91,27.33,76.42,11.84,96.39,38.82s-13.92,53.24-21.82,72.71c-4.8,11.83,4,19.38,11.61,23.5"/>
          <path class="cls-12" d="M825,1509.62c14.87-7.51,47-24.35,54.21-33.12,9.42-11.5,46.12-91.25,49.88-95.84,4.71-5.75,7.24-3.78,11.68-5.67a32.28,32.28,0,0,0,4.73-2.71"/>
          <path class="cls-12" d="M816.1,1461.94c10.11-5.39,25.58-14.24,30.95-19.49,10.49-10.25,29.45-61.56,55-83.63"/>
          <path class="cls-12" d="M666.35,1465.68c-36.8-8.3-100.56-24.93-129.78-46-7.25-5.23-12.37-10.73-14.44-16.45-14.22-39.22,5.17-44.87-2.44-50.8-5.84-4.54-8.07,7-13.64,15.2a17.63,17.63,0,0,1-6.23,6c-10.78,5.62-5.65,18.18-5.65,18.18"/>
          <path class="cls-12" d="M497.46,1357.91c-.09-.65-.65-4.11-1.52-8.72-2.38-12.57-7.22-33.78-12.21-30.53-7,4.56,5.47,40.35,4.18,40.7s-9.18-44.93-15.41-41.18,6.07,45.72,4.91,45.71c0,0,0,1.16-6.75-19.83-.28-.87-9.31-9.06-1.26,22.94,2.21,8.78,5.71,20.59,11,36.41,20.27,60.23,124.37,97.37,161.24,108.8"/>
          <path class="cls-12" d="M929.25,1364.4a40.22,40.22,0,0,0-5.65-17.28c-2.45-2.68-3.2-2.86-5.39-4.51-.65-.49-1.44-1.12-2.43-2-2.23-1.92-2-6-8.25-14-4.11-5.34-16.09-12.67-11.2,1.42,2.3,6.62,5.15,18.92,5.53,25.35.13,2.24.06,3.9.14,5.44a14.87,14.87,0,0,0,1.69,6.45"/>
          <path class="cls-12" d="M506.06,1367.6c-.81-11.9-3.34-41.8-8.23-39.24-1.53.79-2.31,3-2.64,6-.46,4.32.08,10.1.75,14.87.63,4.45,1.38,8,1.53,8.71a.69.69,0,0,0,0,.12"/>
          <path class="cls-12" d="M956.89,1375.13c4.28-.19,7.19-1.51,7.74-5.13a11.65,11.65,0,0,0-.09-2.74c-.79-7.19-4.85-23.42-4.85-23.42"/>
          <path class="cls-12" d="M949.2,1347.21s4.73,14.38,7.69,27.92c2.24,10.2,3.46,19.91.86,22.56-3.35,3.45-7.78-12.21-12.27-25.41-3.57-10.54-7.2-19.52-10.33-15.94"/>
          <path class="cls-12" d="M918.21,1342.61c2.38-1.85,4.53-3.79,12-7s29.09-8.19,34.27-4.45,5.5,26.78,4.29,31.41a7.64,7.64,0,0,1-4.23,4.73"/>
        </g>
      </g>
      <g>
        <path class="cls-14" d="M674.3,1469.51c-2,4.33,1.23,10.17,6,10.77"/>
        <path class="cls-14" d="M659,1513.52c4.74.6,9.32-4.26,8.45-9"/>
        <path class="cls-14" d="M708.49,1481.77c.6-4.74-4.26-9.32-9-8.45"/>
        <path class="cls-14" d="M690,1528.31c-4.69.9-7.55,6.94-5.26,11.13"/>
        <path class="cls-14" d="M713.89,1534.69c1.57-4.51-2.23-10-7-10.13"/>
        <path class="cls-14" d="M725,1498.09c-4.69.9-7.55,6.94-5.26,11.13"/>
        <path class="cls-14" d="M745.06,1532.85c.59-4.74-4.27-9.32-9-8.45"/>
        <path class="cls-14" d="M693.13,1509c.59-4.74-4.27-9.32-9-8.44"/>
        <path class="cls-14" d="M747.57,1502c2.46,4.1,9.11,4.69,12.26,1.1"/>
        <path class="cls-14" d="M778.27,1528.56c4.46-1.72,6.2-8.16,3.21-11.89"/>
        <path class="cls-14" d="M800.32,1502.58c0-4.77-5.33-8.75-9.89-7.33"/>
        <path class="cls-14" d="M810.31,1518.75c4.74-.61,8-6.46,5.93-10.79"/>
        <path class="cls-14" d="M768.24,1478.57c1.11,4.65,7.27,7.22,11.36,4.75"/>
        <path class="cls-14" d="M811.81,1478.33c.59-4.74-4.27-9.32-9-8.45"/>
      </g>
    </g>
    <g id="Boom">
      <polygon class="cls-14" points="1069.09 1427.94 1076 1381.47 1041.79 1404.7 1032.3 1316 1009.8 1417.93 981.92 1381.47 981.42 1447.01 952.2 1435.27 960.54 1468.72 893.75 1458.74 967.45 1514.33 1061.47 1483.68 1069.09 1427.94"/>
    </g>
    <g id="pc">
      <polygon class="cls-1" points="1019.75 1495.62 1006.79 1533.05 965.62 1512.37 1019.75 1495.62"/>
      <path class="cls-2" d="M1179.41,1409.22l-142.9,36.84a3.47,3.47,0,0,0-2.43,2.26l-30.76,91.13,151.77-34.29,27.14-93.05A2.32,2.32,0,0,0,1179.41,1409.22Z"/>
      <path class="cls-2" d="M1005.77,1532.19l-41.16-20.06v7.32a1.14,1.14,0,0,0,.64,1l38.07,19"/>
      <line class="cls-15" x1="964.61" y1="1512.13" x2="1018.73" y2="1494.95"/>
      <polyline class="cls-2" points="1017.13 1503.42 985.77 1513.88 1010.16 1525.49 1017.52 1502.18"/>
      <g id="Layer_5" data-name="Layer 5">
        <ellipse class="cls-16" cx="1098.81" cy="1474.72" rx="4.76" ry="4.2" transform="translate(-448.67 481) rotate(-20.6)"/>
      </g>
    </g>
  </g>
</svg>
