<svg xmlns="http://www.w3.org/2000/svg" viewBox="0 0 717.59 1243.64">
  <defs>
    <style>
      .cls-1, .cls-14 {
        fill: #fff6e8;
      }

      .cls-2, .cls-3, .cls-8 {
        fill: #0e004e;
      }

      .cls-10, .cls-3, .cls-8 {
        stroke: #fff;
      }

      .cls-10, .cls-11, .cls-12, .cls-14, .cls-15, .cls-3, .cls-4, .cls-6, .cls-7, .cls-8, .cls-9 {
        stroke-miterlimit: 10;
      }

      .cls-3 {
        stroke-width: 2px;
      }

      .cls-4, .cls-5 {
        fill: #b57016;
      }

      .cls-11, .cls-14, .cls-4, .cls-6, .cls-7, .cls-9 {
        stroke: #0e004e;
      }

      .cls-6 {
        fill: #fff;
      }

      .cls-7 {
        fill: #ebeef7;
      }

      .cls-9 {
        fill: #8164d9;
      }

      .cls-10, .cls-11, .cls-12, .cls-15 {
        fill: none;
      }

      .cls-12 {
        stroke: #1b1023;
      }

      .cls-13 {
        fill: #fcbd2c;
      }

      .cls-15 {
        stroke: #fff6e8;
      }
    </style>
  </defs>
  <g id="Layer_2" data-name="Layer 2">
    <g id="pc-sky">
      <path id="Path_40" data-name="Path 40" class="cls-1" d="M715,0c7,85,0,406-23,465-34,84,17,122,17,175,1,143-106.33,362.73-106,363,.84.69-38.86,7.32-54,13-9.44-92.94-118.55-134.71-147-194-39.38-76.86,16-119-96-142-50.12,10.3-126-12-151-52-36.25-58-14-119.36-59-169C56.23,415.15,0,397,0,397V0"/>
    </g>
    <g id="Jente">
      <g>
        <path class="cls-2" d="M294.29,1088.53c-7-.29-12.64-.65-14.14.8l-.38,1.09c.2,1.72,7.05,2.73,12.68,2.58l.48,0,.42,0a1.72,1.72,0,0,1,.07-.21A24.54,24.54,0,0,0,294.29,1088.53Z"/>
        <path class="cls-2" d="M260.65,1065.59c-3.37,4.43-1,5.89-1,5.89a51.45,51.45,0,0,0,5.67-4.4C263.91,1066.64,262.35,1066.15,260.65,1065.59Z"/>
        <path class="cls-3" d="M180.54,1114.47c-3.07,1.69-11.06,7.08-25.64,23.08,3.47,2,7.18,4.55,10.08,6.26,10.74-10.67,18.91-21.35,17.62-28.34A1.41,1.41,0,0,0,180.54,1114.47Z"/>
        <path class="cls-4" d="M173.68,964.58c.4,2.8.87,5,1,5.48C174.58,969.65,174.23,967.48,173.68,964.58Z"/>
        <path class="cls-2" d="M585,1094s-1.71,17.06-1.74,21-8.71,1.74-8.71,1.74,4.93-12.49,7.47-17.06C584.09,1096,585,1094,585,1094Z"/>
        <path class="cls-2" d="M308.13,1011.05c-7.82,8.8-5,23.15,5.85,26.75l7.27-6.61s-7-2.52-2.33-6,3.41,2.64,9.54-1.1,3.53-11.16,8.52-10c1.47.36,2.88,1.83,4,3.81a8.24,8.24,0,0,0-1.18-9.94c-4.91-5.65-16.31-6.06-25.1-1.77a23.88,23.88,0,0,0-3.52,2.07A18.44,18.44,0,0,0,308.13,1011.05Z"/>
        <path class="cls-2" d="M157.79,961.35c4.23,13.2,4.24,12.46,4.24,12.46.73,0-7-26.37-3.08-28.73s8.87,26.11,9.69,25.89-7-22.72-2.63-25.59c3.13-2,6.18,11.29,7.67,19.2a42.16,42.16,0,0,1-.47-9.35c.21-1.84.7-3.26,1.66-3.76,3.08-1.6,4.67,17.2,5.17,24.68,3.5-5.14,4.91-12.42,8.58-9.56,4.78,3.73-7.41,7.28,1.53,31.94,1.31,3.59,4.52,7.06,9.08,10.34,18-6.61,32.5-.37,51.8,4.46,18.65,4.67,50.44-7.74,57.1-2.28a18.44,18.44,0,0,1,3.1-2.77,23.88,23.88,0,0,1,3.52-2.07c-4.8-2.59-10.31-7.34-7.29-14.78,5-12.24,26.28-28.76,13.72-45.72s-48.09-7.22-60.61-24.41c-11.57-15.88-10.68-30.47-25.17-40.86-21.28-15.27-54.17,11.06-70.23,10.15-12.41-.71-23.29-6.84-37.56-8-11-.87-65.37,1.82-53.61,61,9,45.46,67.54,32.18,83,32.18C151.93,955.65,157.61,960.8,157.79,961.35Z"/>
        <path class="cls-5" d="M345.82,1084s0-.26-.14-.7l-.14,0A4.38,4.38,0,0,1,345.82,1084Z"/>
        <polygon class="cls-6" points="575.77 1111.82 603.46 1112.37 620.3 1121.14 612.2 1140.52 598 1142.37 564.64 1148.13 558.29 1144.76 573.61 1111.8 575.77 1111.82"/>
        <path class="cls-2" d="M333.21,1084.62a25.83,25.83,0,0,0-2.26,9.2c3.52-1,16.64-5,14.87-9.81a4.38,4.38,0,0,0-.28-.65C343.67,1079.83,339.1,1082.46,333.21,1084.62Z"/>
        <path class="cls-2" d="M281.14,1033.37c-1.11.1-2.55,1.45-4.14,3.57,1.32.31,2.6.61,3.83.88A31,31,0,0,0,281.14,1033.37Z"/>
        <path class="cls-2" d="M565.37,1148.11a138.9,138.9,0,0,0-2.39,19.42c6-4.37,10.34-12.39,13.52-21.56l-11.13,2.13Z"/>
        <path class="cls-7" d="M648.48,1078.25c-4,7.66-5,9.83-5,9.83l-16.28,8.79,3.06,8.64-3.06-8.64-5.33,2.87,3.53,8.23-3.53-8.23-4.4,2.38,3.24,7.91-3.24-7.91-11.33,6.12s-4.76,3.09-1,6.39c1.88,1.62,8,3.31,8.47,10.3a13.13,13.13,0,0,1-4.83,11.57c-1.32,1.15-9.79,1-10.69,3.21s-.18,2.47-.18,2.47l25.54,13.94,33.88-81.26C653.74,1074.5,650.14,1075.12,648.48,1078.25Z"/>
        <path class="cls-6" d="M165.16,1144c-2.86-1.71-6.13-3.65-9.54-5.66-8.25-4.86-17.4-10.11-24-13.47a4.74,4.74,0,0,1-1.19,1.46c-1.74,1.58-9.35-2.12-11-1.65a13.2,13.2,0,0,0-9.3,8.45c-2.55,6.56,2.26,10.69,3.27,13a3.39,3.39,0,0,1,0,3.44l19.42,16.76,3.72,3.2A362.2,362.2,0,0,0,165.16,1144Z"/>
        <path class="cls-7" d="M113.39,1146c-1-2.26-5.82-6.39-3.27-13a13.2,13.2,0,0,1,9.3-8.45c1.69-.47,9.3,3.23,11,1.65a4.74,4.74,0,0,0,1.19-1.46c.22-.5,0-.71,0-.71l-17.16-23.51h0L49.2,1159.93h0c3.17,1.89,6.69,2.87,9.53.72,6.92-5.23,8.67-6.81,8.67-6.81l18.48-1,6.05-.35h0l.32-9-.32,9,5-.28.44-8.56-.44,8.56h0l12.86-.73s2.5-.35,3.56-2A3.39,3.39,0,0,0,113.39,1146Zm-27.51,6.76.92-9.14Z"/>
        <path class="cls-2" d="M132.77,1166.23q-5,6.63-10.68,14.4c.29-.22,6.28-4.65,14.4-11.2Z"/>
        <path class="cls-8" d="M122.09,1180.63c.29-.22,6.28-4.65,14.4-11.2"/>
        <path class="cls-2" d="M564.64,1148.12a190.44,190.44,0,0,1,11.13-36.3,168.34,168.34,0,0,1,8.5-17.78c-5.93-8-211.45-1.43-250.3-.11l-1.79.06h0l-1.23,0-.11,0c-20.19-12.47-31.53,3.61-37.67-.57l-.19-.13c-6.41,3.91-15.49,12.47-17.93,25.63-3.54,19.09,11.09,36.2,10.38,42.26a8.23,8.23,0,0,1-3.28,5.12c-39.83-15-99.78-51.84-99.78-51.84,2.79,6.39-5.74,17.83-17.2,29.42a362.2,362.2,0,0,1-28.67,25.48c-8.12,6.55-14.11,11-14.4,11.2h0c17.12,6.61,147.72,77.06,211.31,60.48,41.05-10.7,27.9-55.48,13.43-85.87a248.06,248.06,0,0,0-16.28-29,248.06,248.06,0,0,1,16.28,29c50.41-3.48,215.43,12.3,215.43,12.3a138.9,138.9,0,0,1,2.39-19.42Zm-282.5,18.25c8.95,2.55,7.33,1.14,9.14,1C289.47,1167.51,291.09,1168.92,282.14,1166.37Z"/>
        <path class="cls-9" d="M341.3,1072.56s3,8.41,3.76,10.9l-.14,0c-1.88-3.53-6.44-.9-12.33,1.26a39.71,39.71,0,0,1-4.48,1.38c-8.79,2.09-26,2.87-34.36,2.53h-.08c-7-.29-12.65-.66-14.14.79l5.59-16.2c-10.29,2.82-26.09-1.65-26.09-1.65a52.37,52.37,0,0,0,5.67-4.39A47.65,47.65,0,0,0,280.21,1038a31,31,0,0,0,.31-4.45l29.72,7.25v.08h0c0,1,0,10.11,11.87,11.64a29.61,29.61,0,0,0,3.42.25c9.16.11,9.24-5.22,9.24-5.25l37-14.66a35,35,0,0,1,2.6,2.77c9.16,10.87,7.57,23.18,5.58,30a31.27,31.27,0,0,1-2,5.22l-32.93,12.65Z"/>
      </g>
      <path class="cls-10" d="M171.82,1190.46s74.51,54.15,166.05,49.27"/>
      <path class="cls-10" d="M192.35,1192.7s66.17,44.92,157.71,40"/>
    </g>
    <g id="Jente-outline">
      <g>
        <path class="cls-11" d="M293,1093l-.42,0h-.48c-5.63.16-12.48-.85-12.68-2.57a1.22,1.22,0,0,1,.38-1.09c1.5-1.45,7.17-1.09,14.14-.8h.09c8.38.35,25.56-.44,34.35-2.53a39.71,39.71,0,0,0,4.48-1.38c5.89-2.16,10.46-4.79,12.33-1.26a4.38,4.38,0,0,1,.28.65c1.77,4.76-11.35,8.82-14.87,9.81"/>
        <path class="cls-11" d="M294,1088.6h0a23.85,23.85,0,0,1-.88,4.22l-.06.21a2,2,0,0,0-.08.22c0,.11-.07.21-.11.31"/>
        <path class="cls-11" d="M330.61,1094.1h0a1.34,1.34,0,0,1,0-.2,25.77,25.77,0,0,1,2.26-9.2"/>
        <path class="cls-11" d="M341.59,1072.49s4.17,11.59,3.9,11.59"/>
        <path class="cls-10" d="M330.21,1126.29a248.06,248.06,0,0,1,16.28,29"/>
        <path class="cls-10" d="M280.19,1165.34c7.08,3,8.63,2,10.77,1.71"/>
        <path class="cls-11" d="M280.81,1033.44c-1.11.1-2.55,1.45-4.14,3.57"/>
        <g>
          <path class="cls-2" d="M114.19,1100.66,48.86,1160l0,0a33,33,0,0,1-5.56-4.38v0L110,1095h0l4.07,5.57Z"/>
          <g>
            <line class="cls-11" x1="114.11" y1="1100.56" x2="48.75" y2="1159.93"/>
            <line class="cls-11" x1="109.97" y1="1094.89" x2="43.19" y2="1155.55"/>
            <line class="cls-12" x1="96.6" y1="1152.22" x2="91.6" y2="1152.51"/>
            <line class="cls-11" x1="114.11" y1="1100.56" x2="109.97" y2="1094.89"/>
            <path class="cls-11" d="M48.75,1159.93a33,33,0,0,1-5.56-4.38"/>
            <path class="cls-11" d="M114.11,1100.56l.08.1,17.16,23.52s.19.21,0,.71a4.73,4.73,0,0,1-1.19,1.45c-1.74,1.59-9.35-2.11-11-1.64a13.22,13.22,0,0,0-9.31,8.45c-2.54,6.56,2.27,10.68,3.27,12.95a3.38,3.38,0,0,1,0,3.44c-1.06,1.6-3.56,2-3.56,2l-12.86.72"/>
            <line class="cls-12" x1="91.6" y1="1152.51" x2="85.54" y2="1152.86"/>
            <path class="cls-11" d="M85.54,1152.86l-18.47,1.05s-1.75,1.58-8.68,6.81c-2.83,2.14-6.36,1.17-9.53-.72l-.11-.07"/>
            <line class="cls-11" x1="85.54" y1="1152.86" x2="86.47" y2="1143.72"/>
            <line class="cls-11" x1="91.6" y1="1152.51" x2="91.91" y2="1143.54"/>
            <line class="cls-11" x1="96.6" y1="1152.23" x2="97.04" y2="1143.67"/>
          </g>
        </g>
        <path class="cls-2" d="M334.4,1026.09a5.32,5.32,0,0,1,4.19-1.54.5.5,0,0,0,.5-.5.51.51,0,0,0-.5-.5,6.31,6.31,0,0,0-4.9,1.83.5.5,0,0,0,.71.71Z"/>
        <path class="cls-2" d="M623.2,1156.42l6.16,3.37,34.64-83.3a32.39,32.39,0,0,0-6.9-1.6Z"/>
        <g>
          <path class="cls-11" d="M342.89,1032.92c-3,3.62-6.74,3.56-7.77,3.19s-.06,11.32-.06,11.32-.06,6.61-12.66,5c-11.89-1.53-11.91-10.64-11.87-11.64h0l.13-.19,3-2.72,7.26-6.61s-7-2.52-2.32-6,3.41,2.64,9.54-1.1,3.53-11.16,8.51-10c1.48.36,2.89,1.82,4.06,3.81C343.49,1022.72,345,1030.37,342.89,1032.92Z"/>
          <path class="cls-11" d="M313.65,1037.87c-10.84-3.6-13.67-18-5.85-26.75a18.93,18.93,0,0,1,3.1-2.78,25.19,25.19,0,0,1,3.52-2.07c8.79-4.28,20.19-3.87,25.1,1.78a8.24,8.24,0,0,1,1.18,9.94"/>
          <path class="cls-11" d="M156.67,975.84c-15.46,0-74,13.28-83-32.18-11.76-59.15,42.56-61.83,53.61-61,14.27,1.12,25.15,7.25,37.56,8,16.06.91,48.95-25.42,70.23-10.16,14.49,10.39,13.59,25,25.16,40.87,12.53,17.18,48.06,7.44,60.62,24.41s-8.76,33.47-13.72,45.72c-3,7.43,2.49,12.18,7.29,14.77"/>
          <path class="cls-11" d="M380.24,1065.51c9.36-4.72,29.57-15.3,34.09-20.82,5.92-7.23,29-57.37,31.36-60.26,3-3.62,4.56-2.38,7.35-3.57a20.26,20.26,0,0,0,3-1.7"/>
          <path class="cls-11" d="M374.66,1035.53c6.36-3.38,16.09-9,19.46-12.25,6.6-6.44,18.52-38.71,34.55-52.58"/>
          <path class="cls-11" d="M280.5,1037.89c-23.14-5.22-63.22-15.68-81.6-29-4.56-3.29-7.78-6.75-9.08-10.34-8.94-24.67,3.25-28.22-1.53-31.94-3.67-2.86-5.08,4.42-8.58,9.55a11,11,0,0,1-3.92,3.77c-6.77,3.53-3.55,11.43-3.55,11.43"/>
          <path class="cls-11" d="M174.31,970.13c-.06-.41-.41-2.59-1-5.48-1.49-7.91-4.54-21.24-7.67-19.21-4.42,2.87,3.44,25.38,2.63,25.6s-5.78-28.25-9.69-25.9,3.81,28.75,3.08,28.74c0,0,0,.73-4.24-12.46-.18-.55-5.86-5.7-.79,14.42,1.39,5.52,3.59,12.95,6.94,22.9,12.74,37.87,78.2,61.22,101.38,68.41"/>
          <path class="cls-11" d="M445.81,974.21a25.29,25.29,0,0,0-3.56-10.87,16.31,16.31,0,0,0-3.38-2.83c-.42-.31-.91-.71-1.53-1.25-1.4-1.2-1.29-3.77-5.19-8.81-2.58-3.36-10.12-8-7,.89a77.57,77.57,0,0,1,3.48,15.94c.07,1.41,0,2.45.08,3.42a9.41,9.41,0,0,0,1.06,4"/>
          <path class="cls-11" d="M179.71,976.22c-.5-7.48-2.09-26.29-5.17-24.68-1,.5-1.45,1.91-1.66,3.76a42.78,42.78,0,0,0,.47,9.35c.4,2.8.87,5.05,1,5.48a.31.31,0,0,0,0,.07"/>
          <path class="cls-11" d="M463.19,981c2.69-.11,4.51-1,4.86-3.22A7.56,7.56,0,0,0,468,976c-.5-4.52-3.05-14.72-3.05-14.72"/>
          <path class="cls-11" d="M458.35,963.4s3,9,4.84,17.55c1.41,6.41,2.17,12.52.54,14.19-2.11,2.17-4.9-7.68-7.72-16-2.24-6.63-4.52-12.27-6.49-10"/>
          <path class="cls-11" d="M438.87,960.51a27.09,27.09,0,0,1,7.54-4.43c4.77-2.07,18.29-5.15,21.55-2.8s3.46,16.84,2.69,19.75a4.76,4.76,0,0,1-2.65,3"/>
        </g>
      </g>
      <g>
        <path class="cls-13" d="M285.5,1040.3a5,5,0,0,0,3.75,6.77"/>
        <path class="cls-13" d="M275.88,1068a5,5,0,0,0,5.31-5.63"/>
        <path class="cls-13" d="M307,1048a5,5,0,0,0-5.63-5.31"/>
        <path class="cls-13" d="M295.38,1077.27a5,5,0,0,0-3.31,7"/>
        <path class="cls-13" d="M310.39,1081.28a5,5,0,0,0-4.4-6.37"/>
        <path class="cls-13" d="M317.4,1058.27a5,5,0,0,0-3.31,7"/>
        <path class="cls-13" d="M330,1080.12a5,5,0,0,0-5.63-5.31"/>
        <path class="cls-13" d="M297.34,1065.13a5,5,0,0,0-5.63-5.31"/>
        <path class="cls-13" d="M331.57,1060.71a5,5,0,0,0,7.71.7"/>
        <path class="cls-13" d="M350.88,1077.42a5,5,0,0,0,2-7.47"/>
        <path class="cls-13" d="M364.74,1061.09a5,5,0,0,0-6.22-4.61"/>
        <path class="cls-13" d="M371,1071.26a5,5,0,0,0,3.73-6.79"/>
        <path class="cls-13" d="M344.57,1046a5,5,0,0,0,7.14,3"/>
        <path class="cls-13" d="M372,1045.84a5,5,0,0,0-5.63-5.31"/>
      </g>
    </g>
    <g id="Boom">
      <polygon class="cls-13" points="533.73 1014.16 538.08 984.94 516.57 999.55 510.6 943.77 496.45 1007.86 478.93 984.94 478.61 1026.15 460.24 1018.77 465.48 1039.8 423.49 1033.53 469.82 1068.48 528.94 1049.21 533.73 1014.16"/>
    </g>
    <g id="pc">
      <polygon class="cls-1" points="502.71 1056.71 494.56 1080.25 468.68 1067.25 502.71 1056.71"/>
      <path class="cls-2" d="M603.1,1002.39l-89.85,23.16a2.21,2.21,0,0,0-1.53,1.42l-19.34,57.3,95.43-21.55,17.06-58.51A1.46,1.46,0,0,0,603.1,1002.39Z"/>
      <path class="cls-2" d="M493.92,1079.71,468,1067.1v4.6a.71.71,0,0,0,.4.65l23.94,11.92"/>
      <line class="cls-14" x1="468.04" y1="1067.1" x2="502.07" y2="1056.29"/>
      <polyline class="cls-2" points="501.06 1061.62 481.34 1068.19 496.68 1075.5 501.31 1060.84"/>
      <g id="Layer_5" data-name="Layer 5">
        <ellipse class="cls-15" cx="548.84" cy="1047.22" rx="4.76" ry="4.2" transform="translate(-333.41 260.12) rotate(-20.6)"/>
      </g>
    </g>
  </g>
</svg>
