<svg xmlns="http://www.w3.org/2000/svg" viewBox="0 0 709.38 1075.64">
  <defs>
    <style>
      .cls-1, .cls-15 {
        fill: #fff6e8;
      }

      .cls-2, .cls-3, .cls-9 {
        fill: #0e004e;
      }

      .cls-11, .cls-3, .cls-9 {
        stroke: #fff;
      }

      .cls-10, .cls-11, .cls-12, .cls-13, .cls-15, .cls-16, .cls-3, .cls-4, .cls-6, .cls-7, .cls-9 {
        stroke-miterlimit: 10;
      }

      .cls-3 {
        stroke-width: 2px;
      }

      .cls-4, .cls-5 {
        fill: #b57016;
      }

      .cls-10, .cls-12, .cls-15, .cls-4, .cls-6, .cls-7 {
        stroke: #0e004e;
      }

      .cls-6 {
        fill: #fff;
      }

      .cls-7, .cls-8 {
        fill: #ddafcb;
      }

      .cls-10 {
        fill: #8164d9;
      }

      .cls-11, .cls-12, .cls-13, .cls-16 {
        fill: none;
      }

      .cls-13 {
        stroke: #1b1023;
      }

      .cls-14 {
        fill: #fcbd2c;
      }

      .cls-16 {
        stroke: #fff6e8;
      }
    </style>
  </defs>
  <g id="Layer_2" data-name="Layer 2">
    <g id="pc-sky">
      <path id="Path_40" data-name="Path 40" class="cls-1" d="M655,0c32.89,24.88-13.91,93.48,25,159s35.15,231.82,12,306c-14,45.95,17,124.35,8,174,1,143-93.33,207.31-93,207.58.84.69-62.86,11.74-78,17.42-9.44-92.94-137.55-117.71-166-177-39.38-76.86-46.62-131.42-81-124.35C231.88,573,182.2,560.44,136,510s-4.54-73.86-49.58-123.51C46.65,342.65,0,360.66,0,360.66V0"/>
    </g>
    <g id="Jente">
      <g>
        <path class="cls-2" d="M298.29,920.53c-7-.29-12.64-.65-14.14.8l-.38,1.09c.2,1.72,7.05,2.73,12.68,2.58l.48,0,.42,0a1.72,1.72,0,0,1,.07-.21A24.54,24.54,0,0,0,298.29,920.53Z"/>
        <path class="cls-2" d="M264.65,897.59c-3.37,4.43-1,5.89-1,5.89a51.45,51.45,0,0,0,5.67-4.4C267.91,898.64,266.35,898.15,264.65,897.59Z"/>
        <path class="cls-3" d="M184.54,946.47c-3.07,1.69-11.06,7.08-25.64,23.08,3.47,2,7.18,4.55,10.08,6.26,10.74-10.67,18.91-21.35,17.62-28.34A1.41,1.41,0,0,0,184.54,946.47Z"/>
        <path class="cls-4" d="M177.68,796.58c.4,2.8.87,5,1,5.48C178.58,801.65,178.23,799.48,177.68,796.58Z"/>
        <path class="cls-2" d="M589,926s-1.71,17.06-1.74,21-8.71,1.74-8.71,1.74,4.93-12.49,7.47-17.06C588.09,928,589,926,589,926Z"/>
        <path class="cls-2" d="M312.13,843.05c-7.82,8.8-5,23.15,5.85,26.75l7.27-6.61s-7-2.52-2.33-6,3.41,2.64,9.54-1.1,3.53-11.16,8.52-10c1.47.36,2.88,1.83,4,3.81a8.24,8.24,0,0,0-1.18-9.94c-4.91-5.65-16.31-6.06-25.1-1.77a23.88,23.88,0,0,0-3.52,2.07A18.44,18.44,0,0,0,312.13,843.05Z"/>
        <path class="cls-2" d="M161.79,793.35c4.23,13.2,4.24,12.46,4.24,12.46.73,0-7-26.37-3.08-28.73s8.87,26.11,9.69,25.89-7-22.72-2.63-25.59c3.13-2,6.18,11.29,7.67,19.2a42.16,42.16,0,0,1-.47-9.35c.21-1.84.7-3.26,1.66-3.76,3.08-1.6,4.67,17.2,5.17,24.68,3.5-5.14,4.91-12.42,8.58-9.56,4.78,3.73-7.41,7.28,1.53,31.94,1.31,3.59,4.52,7.06,9.08,10.34,18-6.61,32.5-.37,51.8,4.46,18.65,4.67,50.44-7.74,57.1-2.28a18.44,18.44,0,0,1,3.1-2.77,23.88,23.88,0,0,1,3.52-2.07c-4.8-2.59-10.31-7.34-7.29-14.78,5-12.24,26.28-28.76,13.72-45.72s-48.09-7.22-60.61-24.41c-11.57-15.88-10.68-30.47-25.17-40.86-21.28-15.27-54.17,11.06-70.23,10.15-12.41-.71-23.29-6.84-37.56-8-11.05-.87-65.37,1.82-53.61,61,9,45.46,67.54,32.18,83,32.18C155.93,787.65,161.61,792.8,161.79,793.35Z"/>
        <path class="cls-5" d="M349.82,916s0-.26-.14-.7l-.14.05A4.38,4.38,0,0,1,349.82,916Z"/>
        <polygon class="cls-6" points="579.77 943.82 607.46 944.37 624.3 953.14 616.2 972.52 602 974.37 568.64 980.13 562.29 976.76 577.61 943.79 579.77 943.82"/>
        <path class="cls-2" d="M337.21,916.62a25.83,25.83,0,0,0-2.26,9.2c3.52-1,16.64-5,14.87-9.81a4.38,4.38,0,0,0-.28-.65C347.67,911.83,343.1,914.46,337.21,916.62Z"/>
        <path class="cls-2" d="M285.14,865.37c-1.11.1-2.55,1.45-4.14,3.57,1.32.31,2.6.61,3.83.88A31,31,0,0,0,285.14,865.37Z"/>
        <path class="cls-2" d="M569.37,980.11A138.9,138.9,0,0,0,567,999.53c6-4.37,10.34-12.39,13.52-21.56l-11.13,2.13Z"/>
        <path class="cls-7" d="M652.48,910.25c-4,7.66-5,9.83-5,9.83l-16.28,8.79,3.06,8.64-3.06-8.64-5.33,2.87,3.53,8.23-3.53-8.23-4.4,2.38,3.24,7.91-3.24-7.91-11.33,6.12s-4.76,3.09-1,6.39c1.88,1.62,8,3.31,8.47,10.3a13.13,13.13,0,0,1-4.83,11.57c-1.32,1.15-9.79,1-10.69,3.21s-.18,2.47-.18,2.47l25.54,13.94,33.88-81.26C657.74,906.5,654.14,907.12,652.48,910.25Z"/>
        <path class="cls-6" d="M169.16,976c-2.86-1.71-6.13-3.65-9.54-5.66-8.25-4.86-17.4-10.11-24-13.47a4.74,4.74,0,0,1-1.19,1.46c-1.74,1.58-9.35-2.12-11-1.65a13.2,13.2,0,0,0-9.3,8.45c-2.55,6.56,2.26,10.69,3.27,12.95a3.39,3.39,0,0,1,0,3.44l19.42,16.76,3.72,3.2A362.2,362.2,0,0,0,169.16,976Z"/>
        <path class="cls-8" d="M117.39,978c-1-2.26-5.82-6.39-3.27-12.95a13.2,13.2,0,0,1,9.3-8.45c1.69-.47,9.3,3.23,11,1.65a4.74,4.74,0,0,0,1.19-1.46c.22-.5,0-.71,0-.71L118.52,932.6h0L53.2,991.93h0c3.17,1.89,6.69,2.87,9.53.72,6.92-5.23,8.67-6.81,8.67-6.81l18.48-1.05,6.05-.35h0l.32-9-.32,9,5-.28.44-8.56-.44,8.56h0l12.86-.73s2.5-.35,3.56-2A3.39,3.39,0,0,0,117.39,978Zm-27.51,6.76.92-9.14Z"/>
        <path class="cls-2" d="M136.77,998.23q-5,6.63-10.68,14.4c.29-.22,6.28-4.65,14.4-11.2Z"/>
        <path class="cls-9" d="M126.09,1012.63c.29-.22,6.28-4.65,14.4-11.2"/>
        <path class="cls-2" d="M568.64,980.12a190.44,190.44,0,0,1,11.13-36.3,168.34,168.34,0,0,1,8.5-17.78c-5.93-8-211.45-1.43-250.3-.11l-1.79.06h0l-1.23,0-.11,0c-20.19-12.47-31.53,3.61-37.67-.57l-.19-.13c-6.41,3.91-15.49,12.47-17.93,25.63-3.54,19.09,11.09,36.2,10.38,42.26a8.23,8.23,0,0,1-3.28,5.12c-39.83-15-99.78-51.84-99.78-51.84,2.79,6.39-5.74,17.83-17.2,29.42a362.2,362.2,0,0,1-28.67,25.48c-8.12,6.55-14.11,11-14.4,11.2h0c17.12,6.61,147.72,77.06,211.31,60.48,41.05-10.7,27.9-55.48,13.43-85.87a248.06,248.06,0,0,0-16.28-29,248.06,248.06,0,0,1,16.28,29c50.41-3.48,215.43,12.3,215.43,12.3a138.9,138.9,0,0,1,2.39-19.42Zm-282.5,18.25c8.95,2.55,7.33,1.14,9.14,1C293.47,999.51,295.09,1000.92,286.14,998.37Z"/>
        <path class="cls-10" d="M345.3,904.56s3,8.41,3.76,10.9l-.14,0c-1.88-3.53-6.44-.9-12.33,1.26a39.71,39.71,0,0,1-4.48,1.38c-8.79,2.09-26,2.87-34.36,2.53h-.08c-7-.29-12.65-.66-14.14.79l5.59-16.2c-10.29,2.82-26.09-1.65-26.09-1.65a52.37,52.37,0,0,0,5.67-4.39A47.65,47.65,0,0,0,284.21,870a31,31,0,0,0,.31-4.45l29.72,7.25v.08h0c0,1,0,10.11,11.87,11.64a29.61,29.61,0,0,0,3.42.25c9.16.11,9.24-5.22,9.24-5.25l37-14.66a35,35,0,0,1,2.6,2.77c9.16,10.87,7.57,23.18,5.58,30a31.27,31.27,0,0,1-2,5.22l-32.93,12.65Z"/>
      </g>
      <path class="cls-11" d="M175.82,1022.46s74.51,54.15,166.05,49.27"/>
      <path class="cls-11" d="M196.35,1024.7s66.17,44.92,157.71,40"/>
    </g>
    <g id="Jente-outline">
      <g>
        <path class="cls-12" d="M297,925l-.42,0h-.48c-5.63.16-12.48-.85-12.68-2.57a1.22,1.22,0,0,1,.38-1.09c1.5-1.45,7.17-1.09,14.14-.8h.09c8.38.35,25.56-.44,34.35-2.53a39.71,39.71,0,0,0,4.48-1.38c5.89-2.16,10.46-4.79,12.33-1.26a4.38,4.38,0,0,1,.28.65c1.77,4.76-11.35,8.82-14.87,9.81"/>
        <path class="cls-12" d="M298,920.6h0a23.85,23.85,0,0,1-.88,4.22L297,925a2,2,0,0,0-.08.22c0,.11-.07.21-.11.31"/>
        <path class="cls-12" d="M334.61,926.1h0a1.34,1.34,0,0,1,0-.2,25.77,25.77,0,0,1,2.26-9.2"/>
        <path class="cls-12" d="M345.59,904.49s4.17,11.59,3.9,11.59"/>
        <path class="cls-11" d="M334.21,958.29a248.06,248.06,0,0,1,16.28,29"/>
        <path class="cls-11" d="M284.19,997.34c7.08,3,8.63,2,10.77,1.71"/>
        <path class="cls-12" d="M284.81,865.44c-1.11.1-2.55,1.45-4.14,3.57"/>
        <g>
          <path class="cls-2" d="M118.19,932.66,52.86,992l0,0a33,33,0,0,1-5.56-4.38v0L114,927h0l4.07,5.57Z"/>
          <g>
            <line class="cls-12" x1="118.11" y1="932.56" x2="52.75" y2="991.93"/>
            <line class="cls-12" x1="113.97" y1="926.89" x2="47.19" y2="987.55"/>
            <line class="cls-13" x1="100.6" y1="984.22" x2="95.6" y2="984.51"/>
            <line class="cls-12" x1="118.11" y1="932.56" x2="113.97" y2="926.89"/>
            <path class="cls-12" d="M52.75,991.93a33,33,0,0,1-5.56-4.38"/>
            <path class="cls-12" d="M118.11,932.56l.08.1,17.16,23.52s.19.21,0,.71a4.73,4.73,0,0,1-1.19,1.45c-1.74,1.59-9.35-2.11-11-1.64a13.22,13.22,0,0,0-9.31,8.45c-2.54,6.56,2.27,10.68,3.27,13a3.38,3.38,0,0,1,0,3.44c-1.06,1.6-3.56,2-3.56,2l-12.86.72"/>
            <line class="cls-13" x1="95.6" y1="984.51" x2="89.54" y2="984.86"/>
            <path class="cls-12" d="M89.54,984.86l-18.47,1s-1.75,1.58-8.68,6.81c-2.83,2.14-6.36,1.17-9.53-.72l-.11-.07"/>
            <line class="cls-12" x1="89.54" y1="984.86" x2="90.47" y2="975.72"/>
            <line class="cls-12" x1="95.6" y1="984.51" x2="95.91" y2="975.54"/>
            <line class="cls-12" x1="100.6" y1="984.23" x2="101.04" y2="975.67"/>
          </g>
        </g>
        <path class="cls-2" d="M338.4,858.09a5.32,5.32,0,0,1,4.19-1.54.5.5,0,0,0,.5-.5.51.51,0,0,0-.5-.5,6.31,6.31,0,0,0-4.9,1.83.5.5,0,0,0,.71.71Z"/>
        <path class="cls-2" d="M627.2,988.42l6.16,3.37L668,908.49a32.39,32.39,0,0,0-6.9-1.6Z"/>
        <g>
          <path class="cls-12" d="M346.89,864.92c-3,3.62-6.74,3.56-7.77,3.19s-.06,11.32-.06,11.32-.06,6.61-12.66,5c-11.89-1.53-11.91-10.64-11.87-11.64h0l.13-.19,3-2.72,7.26-6.61s-7-2.52-2.32-6,3.41,2.64,9.54-1.1,3.53-11.16,8.51-10c1.48.36,2.89,1.82,4.06,3.81C347.49,854.72,349,862.37,346.89,864.92Z"/>
          <path class="cls-12" d="M317.65,869.87c-10.84-3.6-13.67-18-5.85-26.75a18.93,18.93,0,0,1,3.1-2.78,25.19,25.19,0,0,1,3.52-2.07c8.79-4.28,20.19-3.87,25.1,1.78A8.24,8.24,0,0,1,344.7,850"/>
          <path class="cls-12" d="M160.67,807.84c-15.46,0-74,13.28-83-32.18-11.76-59.15,42.56-61.83,53.61-61,14.27,1.12,25.15,7.25,37.56,8,16.06.91,48.95-25.42,70.23-10.16,14.49,10.39,13.59,25,25.16,40.87,12.53,17.18,48.06,7.44,60.62,24.41s-8.76,33.47-13.72,45.72c-3,7.43,2.49,12.18,7.29,14.77"/>
          <path class="cls-12" d="M384.24,897.51c9.36-4.72,29.57-15.3,34.09-20.82,5.92-7.23,29-57.37,31.36-60.26,3-3.62,4.56-2.38,7.35-3.57a20.26,20.26,0,0,0,3-1.7"/>
          <path class="cls-12" d="M378.66,867.53c6.36-3.38,16.09-8.95,19.46-12.25,6.6-6.44,18.52-38.71,34.55-52.58"/>
          <path class="cls-12" d="M284.5,869.89c-23.14-5.22-63.22-15.68-81.6-28.95-4.56-3.29-7.78-6.75-9.08-10.34-8.94-24.67,3.25-28.22-1.53-31.94-3.67-2.86-5.08,4.42-8.58,9.55a11,11,0,0,1-3.92,3.77c-6.77,3.53-3.55,11.43-3.55,11.43"/>
          <path class="cls-12" d="M178.31,802.13c-.06-.41-.41-2.59-1-5.48-1.49-7.91-4.54-21.24-7.67-19.21-4.42,2.87,3.44,25.38,2.63,25.6s-5.78-28.25-9.69-25.9,3.81,28.75,3.08,28.74c0,0,0,.73-4.24-12.46-.18-.55-5.86-5.7-.79,14.42,1.39,5.52,3.59,12.95,6.94,22.9C180.35,868.61,245.81,892,269,899.15"/>
          <path class="cls-12" d="M449.81,806.21a25.29,25.29,0,0,0-3.56-10.87,16.31,16.31,0,0,0-3.38-2.83c-.42-.31-.91-.71-1.53-1.25-1.4-1.2-1.29-3.77-5.19-8.81-2.58-3.36-10.12-8-7,.89a77.57,77.57,0,0,1,3.48,15.94c.07,1.41,0,2.45.08,3.42a9.41,9.41,0,0,0,1.06,4"/>
          <path class="cls-12" d="M183.71,808.22c-.5-7.48-2.09-26.29-5.17-24.68-1,.5-1.45,1.91-1.66,3.76a42.78,42.78,0,0,0,.47,9.35c.4,2.8.87,5.05,1,5.48a.31.31,0,0,0,0,.07"/>
          <path class="cls-12" d="M467.19,813c2.69-.11,4.51-1,4.86-3.22A7.56,7.56,0,0,0,472,808c-.5-4.52-3.05-14.72-3.05-14.72"/>
          <path class="cls-12" d="M462.35,795.4s3,9,4.84,17.55c1.41,6.41,2.17,12.52.54,14.19-2.11,2.17-4.9-7.68-7.72-16-2.24-6.63-4.52-12.27-6.49-10"/>
          <path class="cls-12" d="M442.87,792.51a27.09,27.09,0,0,1,7.54-4.43c4.77-2.07,18.29-5.15,21.55-2.8s3.46,16.84,2.69,19.75a4.76,4.76,0,0,1-2.65,3"/>
        </g>
      </g>
      <g>
        <path class="cls-14" d="M289.5,872.3a5,5,0,0,0,3.75,6.77"/>
        <path class="cls-14" d="M279.88,900a5,5,0,0,0,5.31-5.63"/>
        <path class="cls-14" d="M311,880a5,5,0,0,0-5.63-5.31"/>
        <path class="cls-14" d="M299.38,909.27a5,5,0,0,0-3.31,7"/>
        <path class="cls-14" d="M314.39,913.28a5,5,0,0,0-4.4-6.37"/>
        <path class="cls-14" d="M321.4,890.27a5,5,0,0,0-3.31,7"/>
        <path class="cls-14" d="M334,912.12a5,5,0,0,0-5.63-5.31"/>
        <path class="cls-14" d="M301.34,897.13a5,5,0,0,0-5.63-5.31"/>
        <path class="cls-14" d="M335.57,892.71a5,5,0,0,0,7.71.7"/>
        <path class="cls-14" d="M354.88,909.42a5,5,0,0,0,2-7.47"/>
        <path class="cls-14" d="M368.74,893.09a5,5,0,0,0-6.22-4.61"/>
        <path class="cls-14" d="M375,903.26a5,5,0,0,0,3.73-6.79"/>
        <path class="cls-14" d="M348.57,878a5,5,0,0,0,7.14,3"/>
        <path class="cls-14" d="M376,877.84a5,5,0,0,0-5.63-5.31"/>
      </g>
    </g>
    <g id="Boom">
      <polygon class="cls-14" points="537.73 846.16 542.08 816.94 520.57 831.55 514.6 775.77 500.45 839.86 482.93 816.94 482.61 858.15 464.24 850.77 469.48 871.8 427.49 865.53 473.82 900.48 532.94 881.21 537.73 846.16"/>
    </g>
    <g id="pc">
      <polygon class="cls-1" points="506.71 888.71 498.56 912.25 472.68 899.25 506.71 888.71"/>
      <path class="cls-2" d="M607.1,834.39l-89.85,23.16a2.21,2.21,0,0,0-1.53,1.42l-19.34,57.3,95.43-21.55,17.06-58.51A1.46,1.46,0,0,0,607.1,834.39Z"/>
      <path class="cls-2" d="M497.92,911.71,472,899.1v4.6a.71.71,0,0,0,.4.65l23.94,11.92"/>
      <line class="cls-15" x1="472.04" y1="899.1" x2="506.07" y2="888.29"/>
      <polyline class="cls-2" points="505.06 893.62 485.34 900.19 500.68 907.5 505.31 892.84"/>
      <g id="Layer_5" data-name="Layer 5">
        <ellipse class="cls-16" cx="552.84" cy="879.22" rx="4.76" ry="4.2" transform="translate(-274.04 250.78) rotate(-20.6)"/>
        <ellipse class="cls-16" cx="499.81" cy="279.72" rx="4.76" ry="4.2" transform="translate(-66.46 193.77) rotate(-20.6)"/>
      </g>
    </g>
  </g>
</svg>
