<svg xmlns="http://www.w3.org/2000/svg" viewBox="0 0 1845.73 1416.72">
  <defs>
    <style>
      .cls-1, .cls-14 {
        fill: #fff6e8;
      }

      .cls-2, .cls-3, .cls-8 {
        fill: #0e004e;
      }

      .cls-10, .cls-3, .cls-8 {
        stroke: #fff;
      }

      .cls-10, .cls-11, .cls-12, .cls-14, .cls-15, .cls-3, .cls-4, .cls-6, .cls-7, .cls-8 {
        stroke-miterlimit: 10;
      }

      .cls-3 {
        stroke-width: 2px;
      }

      .cls-4, .cls-5 {
        fill: #b57016;
      }

      .cls-11, .cls-14, .cls-4, .cls-6, .cls-7 {
        stroke: #0e004e;
      }

      .cls-6 {
        fill: #fff;
      }

      .cls-7 {
        fill: #ebeef7;
      }

      .cls-9 {
        fill: #1d8658;
      }

      .cls-10, .cls-11, .cls-12, .cls-15 {
        fill: none;
      }

      .cls-12 {
        stroke: #1b1023;
      }

      .cls-13 {
        fill: #fcbd2c;
      }

      .cls-15 {
        stroke: #fff6e8;
      }
    </style>
  </defs>
  <g id="Layer_2" data-name="Layer 2">
    <g id="pc-sky">
      <path id="Path_40" data-name="Path 40" class="cls-1" d="M1179.77,896.49c-107.2-122.73-224.61-98.85-318.2-87.56-136.44,16.44-246.29-11.86-372.06-92.4S323.57,538,190.73,489.28,0,404.2,0,404.2V0H1383s-16.93,109.18,72.6,148.9,171.94,78.24,277.86,182.87,145,217.41,81.94,335.86c-30.7,57.68-81.27,172.2-148.22,228.86-.51-.44-83.8,93-82.91,93.41,2.29,1.11-48.48,14.21-89.7,23.28C1468.89,864.78,1257.22,991.17,1179.77,896.49Z"/>
    </g>
    <g id="Jente">
      <g>
        <path class="cls-2" d="M1066,1169.16c-11.06-.83-20.06-1.71-22.52.52l-.66,1.71c.23,2.75,11.06,4.72,20,4.77h1.43l.12-.34A38.63,38.63,0,0,0,1066,1169.16Z"/>
        <path class="cls-2" d="M1013.7,1130.92c-5.58,6.86-1.89,9.3-1.89,9.3a81,81,0,0,0,9.24-6.69C1018.84,1132.76,1016.37,1131.89,1013.7,1130.92Z"/>
        <path class="cls-3" d="M883.79,1204.37c-5,2.53-17.95,10.66-42,35.34,5.4,3.37,11.16,7.6,15.69,10.48,17.63-16.41,31.18-32.94,29.5-44.13A2.23,2.23,0,0,0,883.79,1204.37Z"/>
        <path class="cls-4" d="M880.82,965.75c.49,4.47,1.11,8.08,1.24,8.76C882,973.86,881.54,970.39,880.82,965.75Z"/>
        <path class="cls-2" d="M1527.76,1193.27s-3.62,27-3.87,33.3-13.94,2.3-13.94,2.3,8.5-19.59,12.78-26.72C1526.21,1196.35,1527.76,1193.27,1527.76,1193.27Z"/>
        <path class="cls-2" d="M1092.07,1046.74c-12.9,13.56-9.16,36.53,7.88,42.83l11.9-10.12s-11-4.38-3.38-9.7,5.28,4.38,15.22-1.23,6.21-17.56,14.06-15.39c2.32.64,4.49,3,6.25,6.27,2.2-3.78,3.74-9.59-1.35-15.86-7.51-9.24-25.61-10.49-39.8-4.15a38.82,38.82,0,0,0-5.71,3.1A29.05,29.05,0,0,0,1092.07,1046.74Z"/>
        <path class="cls-2" d="M855.73,959.78c6,21.2,6.08,20,6.08,20,1.16,0-9.74-42.3-3.38-45.85s12.73,42,14,41.67-10-36.49-2.82-40.82c5.09-3.07,9.22,18.29,11.18,30.93-.51-4.79-.86-10.58-.25-14.88.42-2.92,1.27-5.14,2.83-5.89,5-2.39,6.51,27.58,6.92,39.5,5.83-8,8.45-19.47,14.13-14.74,7.41,6.18-12.16,11.17.75,50.85,1.88,5.78,6.81,11.46,13.88,16.92,28.91-9.55,51.68,1.13,82.1,9.83,29.4,8.4,80.58-9.64,90.89-.6a29.05,29.05,0,0,1,5.07-4.25,38.82,38.82,0,0,1,5.71-3.1c-7.49-4.37-16-12.22-10.82-23.88,8.55-19.2,43.3-44.31,24.23-71.94s-76-14-95-42c-17.55-25.85-15.35-49-37.83-66.29-33-25.38-86.7,14.73-112.17,12.42-19.7-1.78-36.66-12.1-59.28-14.64-17.53-2-104-.57-88.45,94.07,12,72.74,105.66,54.72,130.23,55.54C846.72,950.41,855.48,958.9,855.73,959.78Z"/>
        <path class="cls-5" d="M1148.12,1164.7c.06,0,0-.41-.2-1.11l-.22.07A8.34,8.34,0,0,1,1148.12,1164.7Z"/>
        <polygon class="cls-6" points="1512.15 1221.08 1556.14 1223.41 1582.45 1238.25 1568.54 1268.63 1545.86 1270.81 1492.54 1278.21 1482.63 1272.51 1508.72 1220.93 1512.15 1221.08"/>
        <path class="cls-2" d="M1128,1165a40.75,40.75,0,0,0-4.08,14.51c5.64-1.39,26.71-7.15,24.16-14.82a8.34,8.34,0,0,0-.42-1C1144.91,1157.94,1137.51,1161.89,1128,1165Z"/>
        <path class="cls-2" d="M1048,1080.79c-1.76.09-4.12,2.17-6.77,5.46l6,1.6A50.12,50.12,0,0,0,1048,1080.79Z"/>
        <path class="cls-2" d="M1493.7,1278.21a220.69,220.69,0,0,0-4.83,30.74c9.73-6.63,17.09-19.14,22.63-33.55l-17.8,2.8Z"/>
        <path class="cls-7" d="M1629.5,1171.59c-6.83,12-8.39,15.4-8.39,15.4l-26.34,13.15,4.4,13.93-4.4-13.93-8.62,4.3,5.17,13.31-5.17-13.31L1579,1208l4.74,12.78L1579,1208l-18.32,9.15s-7.73,4.68-1.87,10.13c2.9,2.69,12.51,5.7,12.92,16.87s-6.12,16.44-8.29,18.2-15.62,1.12-17.17,4.53-.42,3.93-.42,3.93l39.85,23.57,58.17-127.72C1638.06,1165.89,1632.3,1166.68,1629.5,1171.59Z"/>
        <path class="cls-6" d="M857.77,1250.42c-4.45-2.87-9.54-6.14-14.85-9.5-12.87-8.17-27.14-17-37.39-22.68a7.73,7.73,0,0,1-2,2.25c-2.86,2.43-14.76-3.86-17.46-3.2s-10.87,2.66-15.24,12.94,3,17.1,4.51,20.76c1,2.47.66,4.22-.23,5.46l30,27.67,5.74,5.28C824.86,1278.83,842.79,1264.61,857.77,1250.42Z"/>
        <path class="cls-7" d="M775.37,1251c-1.48-3.66-8.9-10.47-4.51-20.76s12.52-12.28,15.24-12.94,14.6,5.63,17.46,3.2a7.73,7.73,0,0,0,2-2.25c.37-.79.08-1.13.08-1.13l-26-38.29h0l-107,90.86h0c4.94,3.17,10.49,4.91,15.11,1.65,11.29-7.95,14.15-10.37,14.15-10.37l29.42-.69,9.64-.23h0l1-14.24-1,14.24,8-.19,1.15-13.58-1.15,13.58h0l20.48-.48s4-.43,5.77-2.92C776,1255.21,776.36,1253.46,775.37,1251Zm-44.09,9.28,2-14.48Z"/>
        <path class="cls-2" d="M805.11,1284.12q-8.37,10.26-17.74,22.32c.48-.33,10.24-7.06,23.48-17Z"/>
        <path class="cls-8" d="M787.37,1306.44c.48-.33,10.24-7.06,23.48-17"/>
        <path class="cls-2" d="M1492.54,1278.2a301.93,301.93,0,0,1,19.61-57.12,268.21,268.21,0,0,1,14.45-27.81c-9-13-336-13.46-397.85-13.42h-4.82l-.17.05c-29.32,5.66-50.31,4.06-59.86-2.9l-.29-.22c-10.4,5.88-25.29,19-29.86,39.79-6.64,30.15,15.71,58.12,14.27,67.72-.48,3.15-2.71,5.82-5.49,8-62.52-26-155.85-87.68-155.85-87.68,4.09,10.31-10.08,28-28.91,45.86-15,14.19-32.91,28.41-46.92,39-13.24,10-23,16.71-23.48,17h0c26.86,11.42,230.73,130.31,332.67,107.33,65.82-14.83,47.3-86.71,25.9-135.78a393.54,393.54,0,0,0-24.34-47,393.54,393.54,0,0,1,24.34,47c80.31-2.87,341.78,31,341.78,31a219.21,219.21,0,0,1,4.83-30.74Zm-450,14c14.1,4.52,11.59,2.21,14.48,2.09C1054.12,1294.45,1056.63,1296.76,1042.53,1292.24Z"/>
        <path class="cls-9" d="M1141.53,1146.27s4.37,13.52,5.4,17.52l-.23.07c-2.79-5.72-10.18-1.77-19.66,1.35a62.5,62.5,0,0,1-7.19,2c-14.08,2.86-41.43,3.19-54.74,2.2H1065c-11.07-.83-20.06-1.71-22.52.52l9.75-25.47c-16.51,3.95-41.39-4-41.39-4a80.12,80.12,0,0,0,9.24-6.69,75.66,75.66,0,0,0,26.21-45.68,48.28,48.28,0,0,0,.72-7.06l46.86,13.11v.12h0c-.12,1.59-.57,16.07,18.26,19.13a45.1,45.1,0,0,0,5.42.58c14.55.65,15-7.8,15-7.85l59.58-21.34a53.31,53.31,0,0,1,4,4.54c14,17.76,10.8,37.24,7.28,48a50.12,50.12,0,0,1-3.39,8.18l-53,18.37Z"/>
      </g>
      <path class="cls-10" d="M865.9,1324.69s115.57,90,261.34,87.11"/>
      <path class="cls-10" d="M898.42,1329.34s102.79,74.91,248.56,72"/>
    </g>
    <g id="Jente-outline">
      <g>
        <path class="cls-11" d="M1063.7,1176.25h-1.43c-9,0-19.79-2-20-4.76a2,2,0,0,1,.65-1.72c2.46-2.23,11.46-1.35,22.52-.51h.14c13.32,1,40.67.66,54.75-2.2a62.5,62.5,0,0,0,7.19-2c9.47-3.12,16.87-7.07,19.66-1.35a8.34,8.34,0,0,1,.42,1c2.55,7.67-18.52,13.43-24.16,14.82"/>
        <path class="cls-11" d="M1065.45,1169.26h0a38.74,38.74,0,0,1-1.61,6.65l-.12.34-.13.34c-.06.17-.13.33-.2.49"/>
        <path class="cls-11" d="M1123.4,1179.93h0a2.72,2.72,0,0,1,0-.31,40.75,40.75,0,0,1,4.08-14.51"/>
        <path class="cls-11" d="M1142,1146.17s6,18.64,5.59,18.62"/>
        <path class="cls-10" d="M1121.06,1231.07a393.54,393.54,0,0,1,24.34,47"/>
        <path class="cls-10" d="M1039.49,1290.51c11.09,5.14,13.61,3.57,17,3.28"/>
        <path class="cls-11" d="M1047.45,1080.88c-1.76.09-4.12,2.17-6.77,5.46"/>
        <g>
          <path class="cls-2" d="M779,1178.91l-107,90.86-.06,0a52.13,52.13,0,0,1-8.6-7.26l0,0,109.32-92.85h0l6.16,9.08Z"/>
          <g>
            <line class="cls-11" x1="778.92" y1="1178.75" x2="671.89" y2="1269.66"/>
            <line class="cls-11" x1="772.64" y1="1169.51" x2="663.28" y2="1262.39"/>
            <line class="cls-12" x1="748.36" y1="1259.94" x2="740.39" y2="1260.13"/>
            <line class="cls-11" x1="778.92" y1="1178.75" x2="772.64" y2="1169.51"/>
            <path class="cls-11" d="M671.89,1269.66a52.26,52.26,0,0,1-8.61-7.27"/>
            <path class="cls-11" d="M778.92,1178.75l.12.16,26,38.29s.29.34-.08,1.13a7.73,7.73,0,0,1-2,2.25c-2.86,2.43-14.76-3.86-17.46-3.2s-10.87,2.66-15.24,12.94,3,17.1,4.51,20.76c1,2.47.66,4.22-.23,5.46-1.78,2.49-5.77,2.92-5.77,2.92l-20.48.48"/>
            <line class="cls-12" x1="740.39" y1="1260.13" x2="730.75" y2="1260.36"/>
            <path class="cls-11" d="M730.75,1260.36l-29.42.69s-2.86,2.42-14.15,10.37c-4.62,3.26-10.17,1.52-15.11-1.65l-.18-.12"/>
            <line class="cls-11" x1="730.75" y1="1260.36" x2="732.7" y2="1245.88"/>
            <line class="cls-11" x1="740.39" y1="1260.13" x2="741.37" y2="1245.89"/>
            <line class="cls-11" x1="748.36" y1="1259.94" x2="749.51" y2="1246.36"/>
          </g>
        </g>
        <path class="cls-2" d="M1132.83,1071.8a8.88,8.88,0,0,1,7-2.29.51.51,0,0,0,.5-.5.52.52,0,0,0-.5-.5,9.79,9.79,0,0,0-7.67,2.58c-.47.44.23,1.15.7.71Z"/>
        <path class="cls-2" d="M1585.18,1294.48l9.62,5.69,59.46-130.57a51.76,51.76,0,0,0-10.87-2.92Z"/>
        <g>
          <path class="cls-11" d="M1146.15,1083.34c-4.9,5.6-10.9,5.3-12.52,4.66s-.69,18-.69,18-.44,10.51-20.38,7.27c-18.82-3.06-18.37-17.54-18.26-19.12v0l.22-.29,4.89-4.16,11.9-10.12s-11-4.38-3.38-9.7,5.28,4.38,15.22-1.23,6.21-17.56,14.06-15.39c2.32.64,4.49,3,6.25,6.27C1147.66,1067.16,1149.61,1079.4,1146.15,1083.34Z"/>
          <path class="cls-11" d="M1099.42,1089.66c-17-6.3-20.78-29.27-7.88-42.83a29.05,29.05,0,0,1,5.07-4.25,38.82,38.82,0,0,1,5.71-3.1c14.19-6.34,32.29-5.09,39.8,4.15,5.09,6.27,3.55,12.08,1.35,15.86"/>
          <path class="cls-11" d="M853.18,982.75c-24.57-.82-118.26,17.2-130.23-55.54-15.56-94.64,70.92-96,88.45-94.07C834,835.68,851,846,870.68,847.78c25.47,2.31,79.15-37.8,112.17-12.42,22.48,17.29,20.28,40.44,37.83,66.29,19,28,76,14.38,95.05,42s-15.68,52.74-24.22,71.94c-5.2,11.66,3.32,19.51,10.81,23.88"/>
          <path class="cls-11" d="M1203.81,1137.13c15.11-7,47.8-22.77,55.28-31.29,9.8-11.19,49.13-89.67,53-94.13,4.9-5.6,7.37-3.54,11.86-5.28a32.06,32.06,0,0,0,4.83-2.56"/>
          <path class="cls-11" d="M1196.53,1089.18c10.28-5,26-13.38,31.57-18.45,10.83-9.9,31.49-60.55,57.7-81.76"/>
          <path class="cls-11" d="M1046.73,1087.94c-36.5-9.53-99.67-28.27-128.18-50.34-7.07-5.46-12-11.14-13.88-16.92-12.91-39.68,6.66-44.67-.75-50.85-5.68-4.73-8.3,6.75-14.13,14.74a17.87,17.87,0,0,1-6.43,5.78c-11,5.25-6.25,18-6.25,18"/>
          <path class="cls-11" d="M881.53,974.6c-.08-.65-.52-4.12-1.24-8.76-2-12.64-6.09-34-11.18-30.93-7.17,4.33,4.12,40.52,2.82,40.82s-7.69-45.21-14-41.67,4.54,45.9,3.38,45.85c0,0,0,1.16-6.08-20-.25-.88-9-9.37-2,22.88,1.91,8.86,5,20.77,9.81,36.76,18.26,60.87,121.07,101.46,157.53,114.11"/>
          <path class="cls-11" d="M1312.86,995.46a40.17,40.17,0,0,0-5.08-17.45c-2.35-2.77-3.1-3-5.23-4.69-.64-.52-1.4-1.17-2.36-2.06-2.17-2-1.86-6.06-7.78-14.29-3.93-5.48-15.66-13.2-11.24,1,2.07,6.7,4.51,19.09,4.68,25.53.05,2.24-.07,3.9,0,5.43a15,15,0,0,0,1.48,6.51"/>
          <path class="cls-11" d="M889.79,984.57c-.41-11.91-1.94-41.89-6.92-39.49-1.55.74-2.41,3-2.83,5.88-.61,4.3-.25,10.09.25,14.88.49,4.48,1.12,8.09,1.24,8.77a.66.66,0,0,0,0,.11"/>
          <path class="cls-11" d="M1340.13,1007.1c4.28,0,7.23-1.27,7.9-4.87a12,12,0,0,0,0-2.74c-.55-7.21-4.08-23.56-4.08-23.56"/>
          <path class="cls-11" d="M1333.36,978.94s4.26,14.54,6.77,28.16c1.9,10.27,2.79,20,.1,22.58-3.46,3.34-7.37-12.46-11.41-25.81-3.22-10.65-6.55-19.74-9.8-16.27"/>
          <path class="cls-11" d="M1302.55,973.32c2.44-1.78,4.65-3.64,12.22-6.64s29.35-7.22,34.4-3.31,4.61,27,3.24,31.54a7.6,7.6,0,0,1-4.37,4.58"/>
        </g>
      </g>
      <g>
        <path class="cls-13" d="M1054.55,1092c-2.16,4.27.89,10.22,5.6,11"/>
        <path class="cls-13" d="M1037.79,1135.51c4.72.75,9.46-4,8.74-8.67"/>
        <path class="cls-13" d="M1088.31,1105.42c.76-4.72-4-9.46-8.67-8.74"/>
        <path class="cls-13" d="M1068.29,1151.32c-4.72.74-7.77,6.68-5.63,11"/>
        <path class="cls-13" d="M1091.94,1158.49c1.73-4.46-1.89-10.08-6.65-10.36"/>
        <path class="cls-13" d="M1104.3,1122.28c-4.72.74-7.77,6.68-5.63,11"/>
        <path class="cls-13" d="M1123.16,1157.69c.75-4.72-4-9.46-8.68-8.74"/>
        <path class="cls-13" d="M1072.05,1132.13c.75-4.71-4-9.45-8.67-8.74"/>
        <path class="cls-13" d="M1126.7,1126.92c2.32,4.17,9,5,12.22,1.51"/>
        <path class="cls-13" d="M1156.5,1154.5c4.51-1.56,6.47-8,3.6-11.77"/>
        <path class="cls-13" d="M1179.4,1129.28c.19-4.78-5-8.93-9.64-7.67"/>
        <path class="cls-13" d="M1188.85,1145.77c4.75-.46,8.16-6.2,6.28-10.59"/>
        <path class="cls-13" d="M1148.13,1104.21c1,4.68,7,7.46,11.2,5.13"/>
        <path class="cls-13" d="M1191.68,1105.42c.76-4.72-3.94-9.46-8.67-8.74"/>
      </g>
    </g>
    <g id="Boom">
      <polygon class="cls-13" points="1458.71 1018.97 1465.16 977.37 1433.23 998.17 1424.38 918.75 1403.38 1010.01 1377.36 977.37 1376.89 1036.05 1349.62 1025.54 1357.41 1055.49 1295.07 1046.56 1363.85 1096.33 1451.6 1068.89 1458.71 1018.97"/>
    </g>
    <g id="pc">
      <polygon class="cls-1" points="1421.07 1077.62 1408.11 1115.05 1366.94 1094.37 1421.07 1077.62"/>
      <path class="cls-2" d="M1580.73,991.22l-142.9,36.84a3.47,3.47,0,0,0-2.43,2.26l-30.76,91.13,151.77-34.29,27.14-93.05A2.32,2.32,0,0,0,1580.73,991.22Z"/>
      <path class="cls-2" d="M1407.09,1114.19l-41.17-20.06v7.32a1.15,1.15,0,0,0,.65,1l38.07,19"/>
      <line class="cls-14" x1="1365.92" y1="1094.13" x2="1420.05" y2="1076.95"/>
      <polyline class="cls-2" points="1418.45 1085.42 1387.09 1095.88 1411.48 1107.49 1418.84 1084.18"/>
      <g id="Layer_5" data-name="Layer 5">
        <ellipse class="cls-15" cx="1497.16" cy="1060.22" rx="4.76" ry="4.2" transform="translate(-277.33 594.67) rotate(-20.6)"/>
      </g>
    </g>
  </g>
</svg>
