<svg xmlns="http://www.w3.org/2000/svg" width="44.064" height="35.246" viewBox="0 0 44.064 35.246">
  <path id="Icon_awesome-code" data-name="Icon awesome-code" d="M19.2,35.214,15,34a.827.827,0,0,1-.565-1.026L23.834.6A.827.827,0,0,1,24.86.034l4.2,1.219a.827.827,0,0,1,.565,1.026l-9.4,32.371a.825.825,0,0,1-1.026.565ZM11.352,27.49,14.347,24.3a.826.826,0,0,0-.055-1.184L8.055,17.624l6.237-5.487a.82.82,0,0,0,.055-1.184L11.352,7.759a.827.827,0,0,0-1.17-.034L.262,17.018a.821.821,0,0,0,0,1.2l9.92,9.3a.821.821,0,0,0,1.17-.034Zm22.526.041,9.92-9.3a.821.821,0,0,0,0-1.2l-9.92-9.308a.834.834,0,0,0-1.17.034l-2.995,3.194a.826.826,0,0,0,.055,1.184l6.237,5.494-6.237,5.487a.82.82,0,0,0-.055,1.184l2.995,3.194a.827.827,0,0,0,1.17.041Z" transform="translate(0.002 -0.003)" fill="#357ee0"/>
</svg>
